if (_typeface_js && _typeface_js.loadFace) _typeface_js.loadFace({"glyphs":{"0":{"ha":925,"x_min":58,"x_max":810,"o":"m 694 232 l 694 840 q 621 946 694 909 q 434 983 547 983 q 248 946 321 983 q 174 840 174 909 l 174 232 q 250 109 174 160 q 434 58 326 58 q 618 109 543 58 q 694 232 694 160 m 810 289 q 709 82 810 164 q 434 0 608 0 q 158 82 258 0 q 58 289 58 164 l 58 781 q 157 972 58 903 q 434 1042 256 1042 q 711 972 613 1042 q 810 781 810 902 l 810 289 z "},"1":{"ha":404,"x_min":58,"x_max":289,"o":"m 289 1042 l 289 0 l 174 0 l 174 959 l 58 869 l 58 955 l 174 1042 l 289 1042 z "},"2":{"ha":983,"x_min":58,"x_max":868,"o":"m 492 1042 q 825 796 825 1042 q 260 58 825 651 l 868 58 l 868 0 l 58 0 q 709 840 707 700 q 492 983 709 983 q 278 868 296 983 q 137 868 278 868 q 249 1000 163 959 q 492 1042 335 1042 z "},"3":{"ha":925,"x_min":58,"x_max":810,"o":"m 434 1042 q 677 985 602 1042 q 753 840 753 928 q 726 727 753 762 q 639 667 700 692 q 810 406 810 610 l 810 289 q 709 82 810 164 q 434 0 608 0 q 158 82 258 0 q 58 289 58 164 l 174 289 l 174 232 q 250 109 174 160 q 434 58 326 58 q 621 96 547 58 q 694 202 694 133 l 694 492 q 646 600 694 564 q 492 636 598 636 l 492 694 q 611 722 586 694 q 636 817 636 749 l 636 891 q 434 983 636 983 q 273 954 335 983 q 202 868 212 925 l 87 868 q 196 1000 114 959 q 434 1042 278 1042 z "},"4":{"ha":925,"x_min":58,"x_max":810,"o":"m 636 947 l 145 406 l 636 406 l 636 947 m 753 1042 l 753 406 l 810 406 l 810 347 l 753 347 l 753 0 l 636 0 l 636 347 l 58 347 l 58 406 l 636 1042 l 753 1042 z "},"5":{"ha":925,"x_min":58,"x_max":810,"o":"m 810 1042 l 810 983 l 174 983 l 174 636 q 434 694 288 694 q 711 625 613 694 q 810 434 810 555 l 810 289 q 709 82 810 164 q 434 0 608 0 q 158 82 258 0 q 58 289 58 164 l 174 289 l 174 232 q 250 109 174 160 q 434 58 326 58 q 618 109 543 58 q 694 232 694 160 l 694 492 q 621 599 694 562 q 434 636 547 636 q 248 599 321 636 q 174 492 174 562 l 58 492 l 58 1042 l 810 1042 m 174 289 z "},"6":{"ha":925,"x_min":58,"x_max":810,"o":"m 174 492 l 174 232 q 250 109 174 160 q 434 58 326 58 q 618 109 543 58 q 694 232 694 160 l 694 492 q 621 599 694 562 q 434 636 547 636 q 248 599 321 636 q 174 492 174 562 m 810 289 q 709 82 810 164 q 434 0 608 0 q 158 82 258 0 q 58 289 58 164 l 58 781 q 157 972 58 903 q 434 1042 256 1042 q 802 840 741 1042 l 694 840 q 621 946 694 909 q 434 983 547 983 q 248 946 321 983 q 174 840 174 909 l 174 636 q 434 694 288 694 q 711 625 613 694 q 810 434 810 555 l 810 289 z "},"7":{"ha":925,"x_min":58,"x_max":810,"o":"m 651 983 l 58 983 l 58 1042 l 810 1042 l 784 983 l 334 0 l 201 0 l 651 983 z "},"8":{"ha":1042,"x_min":115,"x_max":868,"o":"m 868 289 q 767 82 868 164 q 492 0 666 0 q 216 82 316 0 q 115 289 115 164 l 115 406 q 159 566 115 494 q 286 667 203 637 q 206 738 224 703 q 189 840 189 773 q 492 1042 189 1042 q 796 840 796 1042 q 779 736 796 772 q 697 667 761 700 q 868 406 868 598 l 868 289 m 753 232 l 753 463 q 676 585 753 534 q 492 636 600 636 q 308 585 384 636 q 232 463 232 534 l 232 232 q 308 109 232 160 q 492 58 384 58 q 676 109 600 58 q 753 232 753 160 m 680 825 l 680 868 q 492 983 680 983 q 349 950 393 983 q 304 868 304 917 l 304 825 q 345 724 304 753 q 492 694 385 694 q 639 724 598 694 q 680 825 680 753 z "},"9":{"ha":925,"x_min":58,"x_max":810,"o":"m 694 579 l 694 840 q 621 946 694 909 q 434 983 547 983 q 248 946 321 983 q 174 840 174 909 l 174 579 q 250 456 174 507 q 434 406 326 406 q 618 456 543 406 q 694 579 694 507 m 810 289 q 709 82 810 164 q 434 0 608 0 q 190 63 282 0 q 66 232 98 126 l 174 232 q 250 109 174 160 q 434 58 326 58 q 618 109 543 58 q 694 232 694 160 l 694 406 q 434 347 581 347 q 158 429 258 347 q 58 636 58 511 l 58 781 q 157 972 58 903 q 434 1042 256 1042 q 711 972 613 1042 q 810 781 810 902 l 810 289 z "},"\u0000":{"ha":751,"x_min":0,"x_max":0,"o":""},"\r":{"ha":751,"x_min":0,"x_max":0,"o":""},"\u0001":{"ha":751,"x_min":0,"x_max":0,"o":""},"\u0002":{"ha":751,"x_min":0,"x_max":0,"o":""},"\u0003":{"ha":751,"x_min":0,"x_max":0,"o":""},"\u0004":{"ha":751,"x_min":0,"x_max":0,"o":""},"\u0005":{"ha":751,"x_min":0,"x_max":0,"o":""},"\u0006":{"ha":751,"x_min":0,"x_max":0,"o":""},"\u0007":{"ha":751,"x_min":0,"x_max":0,"o":""},"\b":{"ha":751,"x_min":0,"x_max":0,"o":""},"\t":{"ha":751,"x_min":0,"x_max":0,"o":""},"\n":{"ha":751,"x_min":0,"x_max":0,"o":""},"\u000b":{"ha":751,"x_min":0,"x_max":0,"o":""},"\f":{"ha":751,"x_min":0,"x_max":0,"o":""},"\u000e":{"ha":751,"x_min":0,"x_max":0,"o":""},"\u000f":{"ha":751,"x_min":0,"x_max":0,"o":""},"\u0010":{"ha":751,"x_min":0,"x_max":0,"o":""},"\u0011":{"ha":751,"x_min":0,"x_max":0,"o":""},"\u0012":{"ha":751,"x_min":0,"x_max":0,"o":""},"\u0013":{"ha":751,"x_min":0,"x_max":0,"o":""},"\u0014":{"ha":751,"x_min":0,"x_max":0,"o":""},"\u0015":{"ha":751,"x_min":0,"x_max":0,"o":""},"\u0016":{"ha":751,"x_min":0,"x_max":0,"o":""},"\u0017":{"ha":751,"x_min":0,"x_max":0,"o":""},"\u0018":{"ha":751,"x_min":0,"x_max":0,"o":""},"\u0019":{"ha":1389,"x_min":0,"x_max":0,"o":""},"\u001a":{"ha":751,"x_min":0,"x_max":0,"o":""},"\u001b":{"ha":751,"x_min":0,"x_max":0,"o":""},"\u001c":{"ha":751,"x_min":0,"x_max":0,"o":""},"\u001d":{"ha":751,"x_min":0,"x_max":0,"o":""},"\u001e":{"ha":751,"x_min":0,"x_max":0,"o":""},"\u001f":{"ha":1389,"x_min":0,"x_max":0,"o":""}," ":{"ha":868,"x_min":0,"x_max":0,"o":""},"!":{"ha":289,"x_min":58,"x_max":174,"o":"m 115 87 q 157 70 140 87 q 174 28 174 53 q 157 -12 174 5 q 115 -28 140 -28 q 75 -12 92 -28 q 58 28 58 5 q 75 70 58 53 q 115 87 92 87 m 174 1100 l 174 289 l 58 289 l 58 1100 l 174 1100 z "},"\"":{"ha":521,"x_min":58,"x_max":406,"o":"m 307 1082 q 315 1091 307 1082 q 347 1100 324 1100 q 388 1082 370 1100 q 406 1042 406 1065 q 391 984 406 1029 q 376 868 376 939 l 319 868 q 304 983 319 936 q 289 1042 289 1031 q 307 1082 289 1065 m 115 1100 q 157 1082 140 1100 q 174 1042 174 1065 q 159 984 174 1029 q 145 868 145 939 l 87 868 q 73 983 87 936 q 58 1042 58 1031 q 75 1082 58 1065 q 115 1100 92 1100 z "},"#":{"ha":983,"x_min":58,"x_max":868,"o":"m 297 694 l 115 694 l 115 753 l 317 753 l 435 1100 l 498 1100 l 377 753 l 629 753 l 747 1100 l 810 1100 l 690 753 l 868 753 l 868 694 l 670 694 l 590 463 l 810 463 l 810 406 l 570 406 l 430 0 l 370 0 l 509 406 l 258 406 l 117 0 l 58 0 l 197 406 l 58 406 l 58 463 l 217 463 l 297 694 m 357 694 l 278 463 l 529 463 l 609 694 l 357 694 z "},"$":{"ha":925,"x_min":64,"x_max":810,"o":"m 810 343 l 810 342 q 719 144 810 222 q 463 60 628 66 l 463 -115 l 406 -115 l 406 58 q 176 113 259 62 q 64 260 94 163 l 171 260 q 236 158 171 195 q 406 115 301 121 l 406 528 q 290 563 327 551 q 208 593 254 575 q 145 627 163 612 q 115 665 127 643 q 102 715 102 686 q 119 798 102 755 q 170 882 136 841 q 265 950 203 922 q 406 982 327 978 l 406 1100 l 463 1099 l 463 983 q 682 928 605 978 q 787 781 758 879 l 680 781 q 621 882 680 845 q 463 926 562 920 l 463 570 q 739 464 669 507 q 810 343 810 420 m 406 587 l 406 925 q 266 866 315 917 q 217 738 217 815 q 224 682 217 704 q 259 644 232 661 q 303 620 286 627 q 376 597 320 613 q 406 587 395 590 m 463 509 l 463 117 q 627 179 563 125 q 692 319 692 233 q 643 433 692 399 q 463 509 594 468 z "},"%":{"ha":1157,"x_min":58,"x_max":1070,"o":"m 58 126 l 1024 956 l 1070 894 l 102 69 l 58 126 m 873 130 l 873 202 q 842 253 873 231 q 758 275 810 275 q 676 254 709 275 q 643 202 643 232 l 643 130 q 674 68 643 94 q 758 43 705 43 q 842 68 811 43 q 873 130 873 94 m 932 145 q 888 41 932 81 q 758 0 844 0 q 628 41 671 0 q 585 145 585 81 l 585 189 q 631 281 585 243 q 758 319 677 319 q 885 279 838 319 q 932 189 932 240 l 932 145 m 439 853 l 439 926 q 408 976 439 954 q 324 998 376 998 q 242 977 275 998 q 209 926 209 955 l 209 853 q 240 791 209 817 q 324 766 271 766 q 408 791 377 766 q 439 853 439 817 m 498 868 q 454 764 498 804 q 324 723 410 723 q 194 764 237 723 q 151 868 151 804 l 151 911 q 197 1004 151 966 q 324 1042 243 1042 q 451 1002 404 1042 q 498 911 498 963 l 498 868 z "},"&":{"ha":925,"x_min":58,"x_max":811,"o":"m 384 712 q 428 735 395 719 q 481 764 461 751 q 518 804 500 776 q 536 868 536 831 q 503 949 536 914 q 434 983 471 983 q 355 956 389 983 q 321 868 321 929 q 326 822 321 844 q 340 782 331 800 q 355 753 349 764 q 372 727 361 743 l 384 712 m 728 130 l 811 0 l 739 0 l 686 88 q 434 0 582 0 q 159 82 260 0 q 58 289 58 164 l 58 319 q 68 409 58 363 q 104 510 79 454 q 186 614 130 566 q 323 692 243 662 q 304 714 315 700 q 274 774 293 728 q 255 868 255 819 q 310 998 255 954 q 434 1042 365 1042 q 544 990 495 1042 q 593 868 593 939 q 410 666 593 738 l 674 227 q 697 347 694 264 l 810 347 q 728 130 810 228 m 637 170 l 351 647 q 226 555 278 617 q 174 434 174 492 l 174 232 q 250 109 174 160 q 434 58 326 58 q 637 170 556 58 z "},"'":{"ha":289,"x_min":58,"x_max":174,"o":"m 115 1100 q 157 1082 140 1100 q 174 1042 174 1065 q 159 984 174 1029 q 145 868 145 939 l 87 868 q 73 983 87 936 q 58 1042 58 1031 q 75 1082 58 1065 q 115 1100 92 1100 z "},"(":{"ha":463,"x_min":58,"x_max":347,"o":"m 347 1100 q 347 1042 347 1100 q 209 1008 244 1042 q 174 897 174 974 l 174 115 q 211 -12 174 34 q 347 -58 248 -58 l 347 -115 q 200 -94 259 -115 q 111 -30 141 -72 q 70 60 81 12 q 58 174 58 109 l 58 840 q 119 1036 58 972 q 347 1100 179 1100 z "},")":{"ha":463,"x_min":58,"x_max":347,"o":"m 58 1100 q 287 1036 227 1100 q 347 840 347 972 l 347 174 q 336 60 347 109 q 294 -30 324 12 q 205 -94 264 -72 q 58 -115 146 -115 l 58 -58 q 195 -12 157 -58 q 232 115 232 34 l 232 897 q 196 1008 232 974 q 58 1042 160 1042 l 58 1100 z "},"*":{"ha":404,"x_min":46,"x_max":301,"o":"m 144 694 l 174 742 l 203 694 l 275 712 l 260 644 l 301 608 l 260 571 l 275 506 l 203 521 l 174 473 l 144 521 l 71 506 l 87 571 l 46 608 l 87 644 l 71 712 l 144 694 z "},"+":{"ha":868,"x_min":58,"x_max":753,"o":"m 463 983 l 463 636 l 753 636 l 753 579 l 463 579 l 463 232 l 347 232 l 347 579 l 58 579 l 58 636 l 347 636 l 347 983 l 463 983 z "},",":{"ha":347,"x_min":58,"x_max":232,"o":"m 232 28 q 163 -103 232 -47 q 58 -159 94 -159 l 58 -96 q 82 -87 71 -96 q 104 -48 94 -79 q 115 28 115 -18 q 133 70 115 53 q 174 87 151 87 q 214 70 197 87 q 232 28 232 53 z "},"-":{"ha":925,"x_min":58,"x_max":810,"o":"m 810 636 l 810 579 l 58 579 l 58 636 l 810 636 z "},".":{"ha":289,"x_min":58,"x_max":174,"o":"m 115 87 q 157 70 140 87 q 174 28 174 53 q 157 -12 174 5 q 115 -28 140 -28 q 75 -12 92 -28 q 58 28 58 5 q 75 70 58 53 q 115 87 92 87 z "},"/":{"ha":868,"x_min":58,"x_max":753,"o":"m 753 1100 l 140 -174 l 58 -174 l 667 1100 l 753 1100 z "},":":{"ha":289,"x_min":58,"x_max":174,"o":"m 115 636 q 157 619 140 636 q 174 579 174 602 q 157 538 174 555 q 115 521 140 521 q 75 538 92 521 q 58 579 58 555 q 75 619 58 602 q 115 636 92 636 m 115 87 q 157 70 140 87 q 174 28 174 53 q 157 -12 174 5 q 115 -28 140 -28 q 75 -12 92 -28 q 58 28 58 5 q 75 70 58 53 q 115 87 92 87 z "},";":{"ha":347,"x_min":58,"x_max":232,"o":"m 133 619 q 142 628 133 619 q 174 636 151 636 q 214 619 197 636 q 232 579 232 602 q 214 538 232 555 q 174 521 197 521 q 133 538 151 521 q 115 579 115 555 q 133 619 115 602 m 232 28 q 163 -103 232 -47 q 58 -159 94 -159 l 58 -96 q 82 -87 71 -96 q 104 -48 94 -79 q 115 28 115 -18 q 133 70 115 53 q 174 87 151 87 q 214 70 197 87 q 232 28 232 53 z "},"<":{"ha":578,"x_min":58,"x_max":434,"o":"m 58 492 q 272 810 224 751 q 376 868 320 868 q 417 851 400 868 q 434 810 434 834 q 417 770 434 787 q 376 753 400 753 q 309 739 330 753 q 262 692 288 724 q 153 538 237 659 q 121 492 133 509 q 254 301 224 342 q 309 244 285 260 q 376 232 330 232 q 417 214 400 232 q 434 174 434 197 q 417 133 434 151 q 376 115 400 115 q 271 174 319 115 q 58 492 224 233 z "},"=":{"ha":925,"x_min":58,"x_max":810,"o":"m 58 521 l 810 521 l 810 463 l 58 463 l 58 521 m 58 753 l 810 753 l 810 694 l 58 694 l 58 753 z "},">":{"ha":578,"x_min":58,"x_max":434,"o":"m 434 492 q 219 173 266 231 q 115 115 172 115 q 75 133 92 115 q 58 174 58 151 q 75 214 58 197 q 115 232 92 232 q 182 244 163 232 q 229 291 205 259 q 336 442 254 323 q 372 492 359 475 q 333 547 354 517 q 300 594 312 578 q 274 631 289 610 q 252 663 259 652 q 234 686 244 673 q 218 705 224 699 q 205 720 213 712 q 193 731 198 727 q 182 739 187 735 q 115 753 163 753 q 75 770 92 753 q 58 810 58 787 q 75 851 58 834 q 115 868 92 868 q 219 810 172 868 q 434 492 266 753 z "},"?":{"ha":868,"x_min":58,"x_max":753,"o":"m 376 87 q 417 70 400 87 q 434 28 434 53 q 417 -12 434 5 q 376 -28 400 -28 q 336 -12 353 -28 q 319 28 319 5 q 336 70 319 53 q 376 87 353 87 m 434 289 l 319 289 l 319 290 l 319 403 q 366 491 321 450 q 509 585 410 532 q 604 685 571 617 q 636 811 636 753 q 572 970 636 899 q 406 1042 507 1042 q 230 1004 294 1042 q 165 897 165 967 l 58 897 q 170 1049 88 998 q 406 1100 251 1100 q 560 1072 491 1100 q 669 1002 629 1044 q 731 913 709 959 q 753 825 753 867 q 751 764 753 785 q 737 706 749 742 q 703 644 726 670 q 634 585 680 617 q 524 524 589 553 q 456 469 475 502 q 434 384 437 437 l 434 289 z "},"@":{"ha":1591,"x_min":58,"x_max":1476,"o":"m 1072 56 l 1093 0 q 753 -58 921 -58 q 443 -14 578 -58 q 225 111 308 31 q 100 295 142 191 q 58 521 58 399 q 100 747 58 643 q 225 930 142 850 q 443 1055 308 1010 q 753 1100 578 1100 q 1287 937 1099 1100 q 1476 521 1476 773 q 1386 270 1476 366 q 1128 174 1297 174 q 1070 178 1090 174 q 1045 189 1050 183 q 1039 202 1040 195 q 1033 214 1038 209 q 1013 218 1028 218 q 928 196 1010 218 q 753 174 845 174 q 476 256 576 174 q 376 463 376 338 l 376 608 q 475 799 376 730 q 753 868 575 868 q 1030 798 932 868 q 1128 608 1128 728 l 1128 327 q 1150 232 1128 232 q 1327 312 1265 232 q 1389 521 1389 392 q 1225 895 1389 749 q 753 1042 1062 1042 q 477 1001 595 1042 q 287 888 358 960 q 180 724 216 817 q 145 521 145 632 q 180 317 145 410 q 287 153 216 225 q 477 41 358 81 q 753 0 595 0 q 1072 56 909 0 m 1013 406 l 1013 666 q 939 772 1013 734 q 753 810 865 810 q 566 772 640 810 q 492 666 492 735 l 492 406 q 568 283 492 334 q 753 232 644 232 q 937 283 860 232 q 1013 406 1013 334 z "},"A":{"ha":925,"x_min":58,"x_max":810,"o":"m 810 0 l 694 0 l 694 579 l 174 579 l 174 0 l 58 0 l 58 781 q 157 972 58 903 q 434 1042 256 1042 q 711 972 613 1042 q 810 781 810 902 l 810 0 m 174 636 l 694 636 l 694 840 q 621 946 694 909 q 434 983 547 983 q 248 946 321 983 q 174 840 174 909 l 174 636 z "},"B":{"ha":925,"x_min":58,"x_max":810,"o":"m 636 796 l 636 840 q 376 983 636 983 q 321 983 339 983 q 274 980 302 982 q 231 972 245 978 q 201 956 217 966 q 180 928 186 945 q 174 888 174 911 l 174 734 q 192 678 174 699 q 253 649 210 658 q 330 638 296 640 q 434 636 365 636 q 590 671 544 636 q 636 796 636 705 m 174 153 q 182 113 174 130 q 210 86 190 96 q 249 70 231 76 q 304 62 267 64 q 363 59 340 60 q 434 58 387 58 q 616 122 538 58 q 694 260 694 186 l 694 406 q 618 528 694 477 q 434 579 541 579 l 174 579 l 174 153 m 406 1042 q 662 979 571 1042 q 753 806 753 916 l 753 804 q 633 610 753 659 q 773 495 736 556 q 810 319 810 434 q 707 95 810 190 q 434 0 605 0 l 58 0 l 58 1042 l 406 1042 m 58 1042 z "},"C":{"ha":925,"x_min":58,"x_max":810,"o":"m 810 840 l 723 840 q 637 945 723 907 q 434 983 551 983 q 248 946 321 983 q 174 840 174 909 l 174 232 q 250 109 174 160 q 434 58 326 58 q 634 110 545 58 q 723 232 723 161 l 810 232 q 694 70 802 140 q 434 0 587 0 q 158 82 258 0 q 58 289 58 164 l 58 781 q 157 972 58 903 q 434 1042 256 1042 q 701 986 595 1042 q 810 840 806 930 z "},"D":{"ha":925,"x_min":58,"x_max":810,"o":"m 810 289 q 709 82 810 164 q 434 0 608 0 l 58 0 l 58 1042 q 434 1042 58 1042 q 711 972 613 1042 q 810 781 810 902 l 810 289 m 694 232 l 694 840 q 621 946 694 909 q 434 983 547 983 q 363 983 387 983 q 304 980 340 982 q 249 972 267 978 q 210 956 231 966 q 182 928 190 945 q 174 888 174 911 l 174 153 q 182 113 174 130 q 210 86 190 96 q 249 70 231 76 q 304 62 267 64 q 363 59 340 60 q 434 58 387 58 q 618 109 543 58 q 694 232 694 160 z "},"E":{"ha":925,"x_min":58,"x_max":810,"o":"m 810 1042 l 810 983 l 347 983 q 279 981 301 983 q 227 971 256 979 q 186 943 198 963 q 174 888 174 922 l 174 636 l 636 636 l 636 579 l 174 579 l 174 153 q 186 99 174 119 q 227 71 198 79 q 279 60 256 62 q 347 58 301 58 l 810 58 l 810 0 l 58 0 l 58 1042 l 810 1042 z "},"F":{"ha":925,"x_min":58,"x_max":810,"o":"m 810 1042 l 810 983 l 347 983 q 279 981 301 983 q 227 971 256 979 q 186 943 198 963 q 174 888 174 922 l 174 636 l 636 636 l 636 579 l 174 579 l 174 0 l 58 0 l 58 1042 l 810 1042 z "},"G":{"ha":925,"x_min":58,"x_max":810,"o":"m 810 636 l 810 289 q 709 82 810 164 q 434 0 608 0 q 158 82 258 0 q 58 289 58 164 l 58 781 q 157 972 58 903 q 434 1042 256 1042 q 802 840 741 1042 l 694 840 q 621 946 694 909 q 434 983 547 983 q 248 946 321 983 q 174 840 174 909 l 174 232 q 250 109 174 160 q 434 58 326 58 q 618 109 543 58 q 694 232 694 160 l 694 579 l 463 579 l 463 636 l 810 636 z "},"H":{"ha":925,"x_min":58,"x_max":810,"o":"m 810 1042 l 810 0 l 694 0 l 694 579 l 174 579 l 174 0 l 58 0 l 58 1042 l 174 1042 l 174 636 l 694 636 l 694 1042 l 810 1042 z "},"I":{"ha":289,"x_min":58,"x_max":174,"o":"m 174 1042 l 174 0 l 58 0 l 58 1042 l 174 1042 z "},"J":{"ha":404,"x_min":58,"x_max":289,"o":"m 289 1042 l 289 -146 q 174 -289 289 -289 q 58 -277 92 -289 q 58 -214 58 -277 q 152 -232 92 -232 q 174 -136 174 -232 l 174 983 l 58 983 l 58 1042 l 289 1042 z "},"K":{"ha":925,"x_min":58,"x_max":810,"o":"m 810 0 l 694 0 l 694 608 q 608 747 694 694 q 361 799 522 799 l 174 724 l 174 0 l 58 0 l 58 1042 l 174 1042 l 174 791 l 766 1042 l 810 993 l 484 846 q 810 549 810 814 l 810 0 z "},"L":{"ha":751,"x_min":58,"x_max":636,"o":"m 174 1042 l 174 58 l 636 58 l 636 0 l 174 0 l 58 0 l 58 58 l 58 1042 l 174 1042 z "},"M":{"ha":1331,"x_min":58,"x_max":1215,"o":"m 1215 0 q 1100 0 1215 0 l 1100 810 q 1050 935 1100 887 q 897 983 1000 983 q 745 935 795 983 q 694 810 694 887 l 694 406 l 579 406 l 579 810 q 529 935 579 887 q 376 983 479 983 q 224 935 274 983 q 174 810 174 887 l 174 0 l 58 0 l 58 753 q 137 961 58 880 q 376 1042 216 1042 q 485 1027 439 1042 q 554 996 530 1013 q 621 940 578 979 q 636 926 631 930 q 742 1010 711 993 q 897 1042 800 1042 q 1146 966 1077 1042 q 1215 753 1215 890 l 1215 0 z "},"N":{"ha":925,"x_min":58,"x_max":810,"o":"m 810 0 l 694 0 l 694 840 q 621 946 694 909 q 434 983 547 983 q 248 946 321 983 q 174 840 174 909 l 174 0 l 58 0 l 58 1042 l 434 1042 q 711 972 613 1042 q 810 781 810 902 l 810 0 z "},"O":{"ha":925,"x_min":58,"x_max":810,"o":"m 694 232 l 694 840 q 621 946 694 909 q 434 983 547 983 q 248 946 321 983 q 174 840 174 909 l 174 232 q 250 109 174 160 q 434 58 326 58 q 618 109 543 58 q 694 232 694 160 m 810 289 q 709 82 810 164 q 434 0 608 0 q 158 82 258 0 q 58 289 58 164 l 58 781 q 157 972 58 903 q 434 1042 256 1042 q 711 972 613 1042 q 810 781 810 902 l 810 289 z "},"P":{"ha":925,"x_min":58,"x_max":810,"o":"m 58 1042 q 434 1042 58 1042 q 711 972 613 1042 q 810 781 810 902 l 810 636 q 709 429 810 511 q 434 347 608 347 q 174 406 288 347 l 174 0 l 58 0 l 58 1042 m 694 579 l 694 840 q 621 946 694 909 q 434 983 547 983 q 248 946 321 983 q 174 840 174 909 l 174 579 q 250 456 174 507 q 434 406 326 406 q 618 456 543 406 q 694 579 694 507 z "},"Q":{"ha":925,"x_min":58,"x_max":810,"o":"m 694 232 l 694 840 q 621 946 694 909 q 434 983 547 983 q 248 946 321 983 q 174 840 174 909 l 174 232 q 250 109 174 160 q 434 58 326 58 q 618 109 543 58 q 694 232 694 160 m 366 3 q 136 97 214 19 q 58 289 58 175 l 58 781 q 157 972 58 903 q 434 1042 256 1042 q 711 972 613 1042 q 810 781 810 902 l 810 289 q 624 28 810 88 q 538 1 582 18 q 450 -41 495 -16 q 376 -101 404 -66 q 347 -174 347 -136 l 694 -174 l 694 -232 l 232 -232 q 238 -148 232 -180 q 275 -74 244 -115 q 366 3 307 -33 z "},"R":{"ha":925,"x_min":58,"x_max":810,"o":"m 636 780 l 636 840 q 562 946 636 909 q 376 983 488 983 q 308 983 330 983 q 255 978 286 982 q 210 965 224 974 q 184 939 195 956 q 174 897 174 922 l 174 734 q 192 678 174 699 q 253 649 210 658 q 330 638 296 640 q 434 636 365 636 q 585 680 533 636 q 636 780 636 723 m 694 0 l 694 434 q 621 541 694 503 q 434 579 547 579 l 174 579 l 174 0 l 58 0 l 58 1042 l 406 1042 q 661 984 568 1042 q 753 810 753 926 l 753 808 q 633 610 753 671 q 769 518 728 575 q 810 376 810 461 l 810 0 l 694 0 z "},"S":{"ha":925,"x_min":64,"x_max":810,"o":"m 810 290 l 810 289 q 708 82 810 164 q 431 0 606 0 q 64 202 126 0 l 171 202 q 245 96 171 134 q 431 58 319 58 q 617 117 543 58 q 692 267 692 175 q 628 418 692 358 q 431 519 564 477 q 102 777 102 621 q 121 863 102 819 q 178 949 140 907 q 282 1016 216 990 q 434 1042 349 1042 q 673 991 590 1042 q 787 840 757 941 l 680 840 q 612 946 680 909 q 434 983 545 983 q 273 932 330 983 q 217 796 217 880 q 269 665 217 716 q 431 581 320 614 q 722 448 635 517 q 810 290 810 378 z "},"T":{"ha":925,"x_min":58,"x_max":810,"o":"m 810 1042 l 810 983 l 492 983 l 492 0 l 376 0 l 376 983 l 58 983 l 58 1042 l 810 1042 z "},"U":{"ha":925,"x_min":58,"x_max":810,"o":"m 810 0 q 745 22 769 0 q 694 45 720 45 q 609 22 692 45 q 434 0 526 0 q 158 82 258 0 q 58 289 58 164 l 58 1042 l 174 1042 l 174 232 q 250 109 174 160 q 434 58 326 58 q 618 109 543 58 q 694 232 694 160 l 694 1042 l 810 1042 l 810 0 z "},"V":{"ha":925,"x_min":58,"x_max":810,"o":"m 810 1042 q 810 521 810 1042 q 784 371 810 457 q 713 201 758 285 q 593 58 667 117 q 434 0 518 0 q 274 58 349 0 q 155 201 199 117 q 84 372 110 286 q 58 521 58 457 l 58 1042 l 174 1042 l 174 332 q 208 220 174 283 q 304 108 241 157 q 434 58 366 58 q 564 108 502 58 q 661 220 627 157 q 694 332 694 283 l 694 1042 l 810 1042 z "},"W":{"ha":1389,"x_min":58,"x_max":1274,"o":"m 1274 1042 q 1274 289 1274 1042 q 1259 175 1274 224 q 1211 85 1245 126 q 1113 22 1177 43 q 955 0 1048 0 q 793 28 854 0 q 666 115 731 56 q 536 28 598 56 q 376 0 475 0 q 136 80 213 0 q 58 289 58 160 l 58 1042 l 174 1042 l 174 232 q 224 106 174 155 q 376 58 274 58 q 545 108 481 58 q 608 232 608 157 l 608 636 l 723 636 l 723 232 q 786 108 723 157 q 955 58 849 58 q 1107 106 1057 58 q 1157 232 1157 155 l 1157 1042 l 1274 1042 z "},"X":{"ha":925,"x_min":58,"x_max":810,"o":"m 810 1042 l 810 868 q 633 610 810 670 q 771 525 732 583 q 810 376 810 467 l 810 0 l 694 0 l 694 434 q 621 541 694 503 q 434 579 547 579 q 248 541 321 579 q 174 434 174 503 l 174 0 l 58 0 l 58 376 q 97 525 58 468 q 235 610 136 582 q 97 709 136 643 q 58 868 58 774 l 58 1042 l 174 1042 l 174 810 q 250 687 174 738 q 434 636 327 636 q 618 687 541 636 q 694 810 694 738 l 694 1042 l 810 1042 z "},"Y":{"ha":925,"x_min":58,"x_max":810,"o":"m 694 -58 l 694 58 q 434 0 581 0 q 158 83 258 0 q 58 290 58 165 l 58 1042 l 174 1042 l 174 233 q 250 109 174 160 q 434 58 326 58 q 618 109 543 58 q 694 233 694 160 l 694 1042 l 810 1042 l 810 0 q 711 -214 810 -138 q 434 -289 613 -289 q 210 -242 304 -289 q 65 -115 117 -195 l 164 -115 q 273 -199 197 -165 q 434 -232 350 -232 q 618 -181 541 -232 q 694 -58 694 -130 z "},"Z":{"ha":983,"x_min":58,"x_max":868,"o":"m 860 1042 l 822 983 l 232 58 l 868 58 l 868 0 l 58 0 l 94 58 l 627 892 q 647 952 647 930 q 608 983 647 983 l 115 983 l 115 1042 l 860 1042 m 94 58 m 822 983 z "},"[":{"ha":347,"x_min":58,"x_max":289,"o":"m 289 1100 l 289 1042 l 174 1042 l 174 -232 l 289 -232 l 289 -289 l 58 -289 l 58 1100 l 289 1100 z "},"\\":{"ha":868,"x_min":58,"x_max":753,"o":"m 58 1099 l 144 1100 l 753 -174 l 670 -174 l 58 1099 z "},"]":{"ha":347,"x_min":58,"x_max":289,"o":"m 289 1100 l 289 -289 l 58 -289 l 58 -232 l 174 -232 l 174 1042 l 58 1042 l 58 1100 l 289 1100 z "},"^":{"ha":868,"x_min":115,"x_max":753,"o":"m 753 868 q 727 804 753 827 q 666 781 701 781 q 606 804 632 781 q 579 868 579 827 q 572 924 579 901 q 542 970 566 947 q 507 1000 518 993 q 450 1035 495 1008 q 435 1044 441 1042 q 326 968 347 991 q 289 868 289 930 q 262 804 289 827 q 202 781 236 781 q 141 804 167 781 q 115 868 115 827 q 177 945 115 902 q 376 1067 239 989 q 434 1100 414 1089 q 692 945 650 975 q 753 868 753 899 z "},"_":{"ha":1042,"x_min":58,"x_max":983,"o":"m 58 -232 l 983 -232 l 983 -289 l 58 -289 l 58 -232 z "},"`":{"ha":347,"x_min":115,"x_max":289,"o":"m 115 983 q 133 1025 115 1008 q 174 1042 151 1042 q 214 1025 197 1042 q 232 983 232 1008 q 243 907 232 937 q 265 867 254 876 q 289 859 277 859 q 270 796 289 796 q 176 852 236 796 q 115 983 115 907 z "},"a":{"ha":925,"x_min":58,"x_max":810,"o":"m 810 0 q 745 22 770 0 q 694 45 720 45 q 609 22 692 45 q 434 0 526 0 q 159 82 260 0 q 58 275 58 164 q 151 388 58 362 q 434 406 214 406 l 694 406 l 694 492 q 621 599 694 562 q 434 636 547 636 q 210 571 277 636 l 146 635 q 433 694 262 694 q 711 625 613 694 q 810 434 810 555 l 810 0 m 694 347 l 434 347 q 332 342 376 347 q 251 326 289 338 q 193 290 213 313 q 174 232 174 266 q 250 109 174 160 q 434 58 326 58 q 618 109 543 58 q 694 232 694 160 l 694 347 z "},"b":{"ha":925,"x_min":58,"x_max":810,"o":"m 174 1042 l 174 636 q 434 694 288 694 q 711 625 613 694 q 810 434 810 555 l 810 289 q 709 82 810 164 q 434 0 608 0 q 158 82 258 0 q 58 289 58 164 l 58 1042 l 174 1042 m 694 232 l 694 492 q 621 599 694 562 q 434 636 547 636 q 248 599 321 636 q 174 492 174 562 l 174 232 q 250 109 174 160 q 434 58 326 58 q 618 109 543 58 q 694 232 694 160 z "},"c":{"ha":925,"x_min":58,"x_max":810,"o":"m 810 492 l 694 492 q 621 599 694 562 q 434 636 547 636 q 248 599 321 636 q 174 492 174 562 l 174 232 q 250 109 174 160 q 434 58 326 58 q 618 109 543 58 q 694 232 694 160 l 810 232 q 682 64 777 127 q 434 0 586 0 q 158 82 258 0 q 58 289 58 164 l 58 434 q 157 625 58 556 q 434 694 256 694 q 810 492 751 694 z "},"d":{"ha":925,"x_min":58,"x_max":810,"o":"m 810 1042 l 810 0 q 750 22 773 0 q 694 45 727 45 q 584 22 650 45 q 434 0 518 0 q 158 82 258 0 q 58 289 58 164 l 58 434 q 157 625 58 556 q 434 694 256 694 q 694 636 581 694 l 694 1042 l 810 1042 m 694 232 l 694 492 q 621 599 694 562 q 434 636 547 636 q 248 599 321 636 q 174 492 174 562 l 174 232 q 250 109 174 160 q 434 58 326 58 q 618 109 543 58 q 694 232 694 160 z "},"e":{"ha":925,"x_min":58,"x_max":810,"o":"m 810 347 l 174 347 l 174 232 q 250 109 174 160 q 434 58 326 58 q 602 92 519 58 q 718 174 685 125 l 796 174 q 434 0 682 0 q 158 82 258 0 q 58 289 58 164 l 58 434 q 157 625 58 556 q 434 694 256 694 q 710 612 610 694 q 810 406 810 530 l 810 347 m 174 406 l 694 406 l 694 492 q 621 599 694 562 q 434 636 547 636 q 248 599 321 636 q 174 492 174 562 l 174 406 z "},"f":{"ha":578,"x_min":58,"x_max":521,"o":"m 521 1042 q 521 983 521 1042 q 318 945 404 983 q 232 840 232 907 l 232 694 l 463 694 l 463 636 l 232 636 l 232 -289 l 115 -289 l 115 636 l 58 636 l 58 694 l 115 694 l 115 781 q 219 973 115 905 q 521 1042 323 1042 z "},"g":{"ha":925,"x_min":58,"x_max":810,"o":"m 694 -58 l 694 58 q 434 0 581 0 q 158 82 258 0 q 58 289 58 164 l 58 434 q 157 625 58 556 q 434 694 256 694 q 711 625 613 694 q 810 434 810 555 l 810 0 q 709 -207 810 -125 q 434 -289 608 -289 q 210 -242 304 -289 q 65 -115 117 -195 l 164 -115 q 273 -199 197 -165 q 434 -232 350 -232 q 618 -181 541 -232 q 694 -58 694 -130 m 694 232 l 694 492 q 621 599 694 562 q 434 636 547 636 q 248 599 321 636 q 174 492 174 562 l 174 232 q 250 109 174 160 q 434 58 326 58 q 618 109 543 58 q 694 232 694 160 z "},"h":{"ha":925,"x_min":58,"x_max":810,"o":"m 174 1042 l 174 648 q 434 694 285 694 q 711 625 613 694 q 810 434 810 555 l 810 0 l 694 0 l 694 492 q 621 599 694 562 q 434 636 547 636 q 248 599 321 636 q 174 492 174 562 l 174 0 l 58 0 l 58 1042 l 174 1042 z "},"i":{"ha":404,"x_min":58,"x_max":347,"o":"m 115 1042 q 157 1025 140 1042 q 174 983 174 1008 q 157 943 174 960 q 115 926 140 926 q 75 943 92 926 q 58 983 58 960 q 75 1025 58 1008 q 115 1042 92 1042 m 174 694 l 174 153 q 195 58 174 58 q 347 118 247 58 l 347 57 q 174 0 255 0 q 58 144 58 0 l 58 694 l 174 694 z "},"j":{"ha":347,"x_min":28,"x_max":232,"o":"m 133 1025 q 142 1033 133 1025 q 174 1042 151 1042 q 214 1025 197 1042 q 232 983 232 1008 q 214 943 232 960 q 174 926 197 926 q 133 943 151 926 q 115 983 115 960 q 133 1025 115 1008 m 232 694 l 232 -146 q 115 -289 232 -289 q 28 -277 62 -289 l 28 -214 q 94 -232 62 -232 q 115 -136 115 -232 l 115 694 l 232 694 z "},"k":{"ha":925,"x_min":58,"x_max":810,"o":"m 174 1042 l 174 444 l 766 694 l 810 646 l 507 517 q 728 433 647 496 q 810 275 810 370 l 810 0 l 694 0 l 694 304 q 595 420 694 372 q 384 469 496 469 l 174 377 l 174 0 l 58 0 l 58 1042 l 174 1042 z "},"l":{"ha":404,"x_min":58,"x_max":347,"o":"m 174 1042 l 174 153 q 195 58 174 58 q 347 118 247 58 q 347 57 347 118 q 174 0 255 0 q 58 144 58 0 l 58 1042 l 174 1042 z "},"m":{"ha":1331,"x_min":58,"x_max":1215,"o":"m 174 694 l 174 648 q 239 675 221 669 q 294 688 258 681 q 376 694 330 694 q 493 681 445 694 q 564 652 541 667 q 636 598 586 637 q 711 653 689 639 q 781 681 732 667 q 897 694 829 694 q 1056 677 991 694 q 1154 623 1120 659 q 1202 543 1188 587 q 1215 434 1215 498 l 1215 0 l 1100 0 l 1100 492 q 1051 600 1100 564 q 897 636 1002 636 q 743 600 791 636 q 694 492 694 564 l 694 0 l 579 0 l 579 492 q 530 600 579 564 q 376 636 481 636 q 222 600 270 636 q 174 492 174 564 l 174 0 l 58 0 l 58 694 l 174 694 z "},"n":{"ha":925,"x_min":58,"x_max":810,"o":"m 174 694 l 174 648 q 434 694 285 694 q 711 625 613 694 q 810 434 810 555 l 810 0 l 694 0 l 694 492 q 621 599 694 562 q 434 636 547 636 q 248 599 321 636 q 174 492 174 562 l 174 0 l 58 0 l 58 694 l 174 694 z "},"o":{"ha":925,"x_min":58,"x_max":810,"o":"m 694 232 l 694 492 q 621 599 694 562 q 434 636 547 636 q 248 599 321 636 q 174 492 174 562 l 174 232 q 250 109 174 160 q 434 58 326 58 q 618 109 543 58 q 694 232 694 160 m 810 289 q 709 82 810 164 q 434 0 608 0 q 158 82 258 0 q 58 289 58 164 l 58 434 q 157 625 58 556 q 434 694 256 694 q 711 625 613 694 q 810 434 810 555 l 810 289 z "},"p":{"ha":925,"x_min":58,"x_max":810,"o":"m 174 694 l 174 648 q 434 694 285 694 q 711 625 613 694 q 810 434 810 555 l 810 289 q 709 82 810 164 q 434 0 608 0 q 174 58 288 0 l 174 -289 l 58 -289 l 58 694 l 174 694 m 694 232 l 694 492 q 621 599 694 562 q 434 636 547 636 q 248 599 321 636 q 174 492 174 562 l 174 232 q 250 109 174 160 q 434 58 326 58 q 618 109 543 58 q 694 232 694 160 z "},"q":{"ha":925,"x_min":58,"x_max":810,"o":"m 810 694 l 810 -289 l 694 -289 l 694 58 q 434 0 581 0 q 159 82 260 0 q 58 289 58 164 l 58 434 q 157 625 58 555 q 434 694 255 694 q 694 648 583 694 l 694 694 l 810 694 m 694 232 l 694 492 q 621 599 694 562 q 434 636 547 636 q 248 599 321 636 q 174 492 174 562 l 174 232 q 250 109 174 160 q 434 58 326 58 q 618 109 543 58 q 694 232 694 160 z "},"r":{"ha":521,"x_min":58,"x_max":406,"o":"m 406 694 l 406 636 q 235 600 296 636 q 174 492 174 563 l 174 0 l 58 0 l 58 694 l 174 694 l 174 648 q 406 694 285 694 z "},"s":{"ha":925,"x_min":64,"x_max":810,"o":"m 449 694 q 683 665 609 694 q 802 549 757 635 l 666 549 q 592 620 637 604 q 449 636 547 636 q 276 606 335 636 q 217 506 217 576 q 253 446 217 469 q 335 414 289 422 q 434 406 381 406 q 719 343 628 406 q 810 203 810 281 l 810 202 q 717 43 810 87 q 431 0 624 0 q 64 202 126 0 l 174 202 q 246 96 174 133 q 431 58 319 58 q 566 68 511 58 q 657 113 620 79 q 694 203 694 146 q 434 347 694 347 q 194 390 286 347 q 102 506 102 433 q 190 642 102 590 q 449 694 278 694 z "},"t":{"ha":463,"x_min":58,"x_max":406,"o":"m 232 1042 l 232 694 l 406 694 l 406 636 l 232 636 l 232 153 q 254 58 232 58 q 406 118 305 58 q 406 57 406 118 q 232 0 313 0 q 115 144 115 0 l 115 636 l 58 636 l 58 694 l 115 694 l 115 1042 l 232 1042 z "},"u":{"ha":925,"x_min":58,"x_max":810,"o":"m 810 694 q 810 0 810 694 q 745 22 770 0 q 694 45 720 45 q 609 22 692 45 q 434 0 526 0 q 158 82 258 0 q 58 289 58 164 l 58 694 l 174 694 l 174 232 q 250 109 174 160 q 434 58 326 58 q 618 109 543 58 q 694 232 694 160 l 694 694 l 810 694 z "},"v":{"ha":925,"x_min":58,"x_max":810,"o":"m 810 694 q 810 492 810 694 q 784 347 810 429 q 713 186 758 264 q 593 54 667 107 q 434 0 518 0 q 274 54 349 0 q 155 186 199 107 q 84 347 110 266 q 58 492 58 429 l 58 694 l 174 694 l 174 347 q 254 161 174 264 q 434 58 335 58 q 614 161 533 58 q 694 347 694 264 l 694 694 l 810 694 z "},"w":{"ha":1331,"x_min":58,"x_max":1215,"o":"m 1215 694 q 1215 289 1215 694 q 1201 175 1215 224 q 1153 85 1187 126 q 1055 22 1119 43 q 897 0 990 0 q 787 14 833 0 q 718 45 742 28 q 651 102 694 62 q 636 115 642 111 q 530 31 562 49 q 376 0 472 0 q 136 80 213 0 q 58 289 58 160 l 58 694 l 174 694 l 174 232 q 224 106 174 155 q 376 58 274 58 q 529 106 479 58 q 579 232 579 155 l 579 521 l 694 521 l 694 232 q 745 106 694 155 q 897 58 795 58 q 1050 106 1000 58 q 1100 232 1100 155 l 1100 694 l 1215 694 z "},"x":{"ha":925,"x_min":58,"x_max":810,"o":"m 810 694 l 810 636 q 633 378 810 439 q 771 294 732 351 q 810 145 810 236 l 810 0 l 694 0 l 694 232 q 675 290 694 266 q 617 326 655 313 q 536 342 579 338 q 434 347 492 347 q 332 342 376 347 q 251 326 289 338 q 193 290 213 313 q 174 232 174 266 l 174 0 l 58 0 l 58 145 q 97 294 58 236 q 235 378 136 351 q 97 477 136 412 q 58 636 58 543 l 58 694 l 174 694 l 174 536 q 434 406 174 406 q 694 536 694 406 l 694 694 l 810 694 z "},"y":{"ha":925,"x_min":58,"x_max":810,"o":"m 810 694 l 810 0 q 709 -207 810 -125 q 434 -289 608 -289 q 210 -242 304 -289 q 65 -115 117 -195 l 164 -115 q 273 -199 197 -165 q 434 -232 350 -232 q 618 -181 541 -232 q 694 -58 694 -130 l 694 58 q 434 0 581 0 q 158 83 258 0 q 58 290 58 165 l 58 694 l 174 694 l 174 233 q 250 109 174 160 q 434 58 326 58 q 618 109 543 58 q 694 233 694 160 l 694 694 l 810 694 z "},"z":{"ha":925,"x_min":58,"x_max":810,"o":"m 810 58 l 810 0 l 58 0 l 514 541 q 548 606 548 582 q 491 636 548 636 l 87 636 l 87 694 l 796 694 l 258 58 l 810 58 z "},"{":{"ha":521,"x_min":58,"x_max":463,"o":"m 58 369 m 463 1100 l 463 1042 q 325 1008 361 1042 q 289 897 289 974 l 289 666 q 256 519 289 602 q 174 391 224 437 l 174 362 q 256 233 224 316 q 289 87 289 151 l 289 -145 q 325 -255 289 -221 q 463 -289 361 -289 l 463 -347 q 234 -283 294 -347 q 174 -87 174 -220 l 174 180 q 136 294 174 239 q 58 369 98 349 l 58 384 q 136 458 98 404 q 174 571 174 513 l 174 840 q 234 1036 174 972 q 463 1100 294 1100 m 174 180 m 58 384 m 174 571 z "},"|":{"ha":231,"x_min":58,"x_max":115,"o":"m 115 1099 l 115 -289 l 58 -289 l 58 1100 l 115 1099 z "},"}":{"ha":521,"x_min":58,"x_max":463,"o":"m 463 369 m 58 1100 q 287 1036 227 1100 q 347 840 347 972 l 347 571 q 385 458 347 513 q 463 384 423 404 l 463 369 q 385 294 423 349 q 347 180 347 239 l 347 -87 q 287 -283 347 -220 q 58 -347 227 -347 l 58 -289 q 196 -255 160 -289 q 232 -145 232 -221 l 232 87 q 264 233 232 151 q 347 362 297 316 l 347 391 q 264 519 297 437 q 232 666 232 602 l 232 897 q 196 1008 232 974 q 58 1042 160 1042 l 58 1100 m 347 180 m 463 384 m 347 571 z "},"~":{"ha":925,"x_min":115,"x_max":753,"o":"m 753 694 q 741 613 753 656 q 694 531 728 570 q 610 492 659 492 q 495 528 545 492 q 419 608 445 564 q 359 687 393 651 q 286 723 324 723 q 232 579 232 723 l 115 579 q 127 661 115 617 q 174 743 140 704 q 258 781 209 781 q 360 758 316 781 q 430 699 404 734 q 477 631 456 665 q 524 573 498 597 q 582 549 549 549 q 636 694 636 549 l 753 694 z "},"":{"ha":751,"x_min":0,"x_max":0,"o":""},"":{"ha":751,"x_min":0,"x_max":0,"o":""},"":{"ha":751,"x_min":0,"x_max":0,"o":""},"":{"ha":751,"x_min":0,"x_max":0,"o":""},"":{"ha":751,"x_min":0,"x_max":0,"o":""},"":{"ha":751,"x_min":0,"x_max":0,"o":""},"":{"ha":751,"x_min":0,"x_max":0,"o":""},"":{"ha":751,"x_min":0,"x_max":0,"o":""},"":{"ha":751,"x_min":0,"x_max":0,"o":""},"":{"ha":751,"x_min":0,"x_max":0,"o":""},"":{"ha":751,"x_min":0,"x_max":0,"o":""},"":{"ha":751,"x_min":0,"x_max":0,"o":""},"":{"ha":751,"x_min":0,"x_max":0,"o":""},"":{"ha":751,"x_min":0,"x_max":0,"o":""},"":{"ha":751,"x_min":0,"x_max":0,"o":""},"":{"ha":751,"x_min":0,"x_max":0,"o":""},"":{"ha":751,"x_min":0,"x_max":0,"o":""},"":{"ha":751,"x_min":0,"x_max":0,"o":""},"":{"ha":751,"x_min":0,"x_max":0,"o":""},"":{"ha":751,"x_min":0,"x_max":0,"o":""},"":{"ha":751,"x_min":0,"x_max":0,"o":""},"":{"ha":751,"x_min":0,"x_max":0,"o":""},"":{"ha":751,"x_min":0,"x_max":0,"o":""},"":{"ha":751,"x_min":0,"x_max":0,"o":""},"":{"ha":751,"x_min":0,"x_max":0,"o":""},"":{"ha":751,"x_min":0,"x_max":0,"o":""},"":{"ha":751,"x_min":0,"x_max":0,"o":""},"":{"ha":751,"x_min":0,"x_max":0,"o":""},"":{"ha":751,"x_min":0,"x_max":0,"o":""},"":{"ha":751,"x_min":0,"x_max":0,"o":""},"¡":{"ha":289,"x_min":58,"x_max":174,"o":"m 115 983 q 75 1001 92 983 q 58 1042 58 1019 q 75 1082 58 1065 q 115 1100 92 1100 q 157 1082 140 1100 q 174 1042 174 1065 q 157 1001 174 1019 q 115 983 140 983 m 174 -28 l 58 -28 l 58 781 l 174 781 l 174 -28 z "},"¢":{"ha":925,"x_min":58,"x_max":825,"o":"m 174 347 q 241 231 174 281 q 406 174 308 180 l 406 753 q 238 709 302 746 q 174 608 174 671 l 174 347 m 825 608 l 723 608 q 647 709 723 671 q 463 753 571 746 l 463 175 q 644 232 566 182 q 723 347 723 282 l 825 347 q 700 185 793 248 q 463 115 606 122 l 463 -58 l 406 -58 l 406 115 q 149 204 240 123 q 58 406 58 285 l 58 549 q 148 736 58 667 q 406 810 237 804 l 406 983 l 463 983 l 463 810 q 825 608 766 799 z "},"£":{"ha":694,"x_min":28,"x_max":579,"o":"m 492 1042 l 492 983 q 306 946 380 983 q 232 840 232 909 l 232 636 l 434 636 l 434 579 l 232 579 l 232 58 l 579 58 l 579 0 l 232 0 q 174 58 174 0 q 115 0 174 0 l 28 0 l 28 58 l 115 58 l 115 579 l 28 579 l 28 636 l 115 636 l 115 781 q 492 1042 115 1042 z "},"¤":{"ha":665,"x_min":58,"x_max":549,"o":"m 243 669 q 230 656 243 669 q 217 608 217 643 q 243 547 217 572 q 304 521 269 521 q 365 547 339 521 q 391 608 391 572 q 365 669 391 643 q 304 694 339 694 q 243 669 269 694 m 183 528 q 159 608 159 566 q 183 688 159 650 l 58 811 l 100 853 l 224 728 q 304 753 262 753 q 384 728 346 753 l 507 853 l 549 811 l 425 688 q 449 608 449 650 q 425 528 449 566 l 549 404 l 507 362 l 384 487 q 304 463 346 463 q 224 487 262 463 l 100 362 l 58 404 l 183 528 z "},"¥":{"ha":925,"x_min":58,"x_max":810,"o":"m 810 1042 q 810 810 810 1042 q 773 656 810 736 q 661 507 736 576 q 492 415 586 438 l 492 347 l 666 347 l 666 289 l 492 289 l 492 0 l 376 0 l 376 289 l 202 289 l 202 347 l 376 347 l 376 415 q 147 572 236 449 q 58 810 58 694 l 58 1042 l 174 1042 l 174 753 q 254 566 174 670 q 434 463 335 463 q 614 566 533 463 q 694 753 694 670 l 694 1042 l 810 1042 z "},"¦":{"ha":289,"x_min":58,"x_max":174,"o":"m 174 1100 l 174 636 l 58 636 l 58 1100 l 174 1100 m 174 174 l 174 -289 l 58 -289 l 58 174 l 174 174 z "},"§":{"ha":983,"x_min":64,"x_max":868,"o":"m 677 -57 q 616 80 677 31 q 416 172 556 129 q 167 285 247 225 q 87 419 87 345 q 159 566 87 492 q 363 677 231 640 q 204 769 250 719 q 159 883 159 819 q 235 1037 159 974 q 477 1100 312 1100 q 716 1049 632 1100 q 830 897 800 998 l 694 897 q 477 1042 694 1042 q 323 1003 372 1042 q 275 883 275 964 q 323 770 275 807 q 490 696 370 732 q 781 563 693 632 q 868 407 868 494 l 868 406 q 802 256 868 309 q 590 172 735 203 q 810 -71 810 85 l 810 -72 q 706 -222 810 -156 q 431 -289 602 -289 q 64 -87 126 -289 l 199 -87 q 261 -195 199 -157 q 431 -232 323 -232 q 610 -189 544 -232 q 677 -57 677 -146 m 476 639 q 285 567 368 635 q 202 419 202 499 q 250 307 202 343 q 416 233 297 270 l 468 217 q 666 269 582 220 q 750 407 750 319 q 689 543 750 494 q 490 635 628 593 l 476 639 z "},"¨":{"ha":1042,"x_min":202,"x_max":781,"o":"m 723 1042 q 764 1025 747 1042 q 781 983 781 1008 q 764 943 781 960 q 723 926 747 926 q 683 943 700 926 q 666 983 666 960 q 683 1025 666 1008 q 723 1042 700 1042 m 220 1025 q 229 1033 220 1025 q 260 1042 237 1042 q 301 1025 283 1042 q 319 983 319 1008 q 301 943 319 960 q 260 926 283 926 q 220 943 237 926 q 202 983 202 960 q 220 1025 202 1008 z "},"©":{"ha":1331,"x_min":58,"x_max":1215,"o":"m 270 887 q 193 810 270 887 q 115 521 115 732 q 270 155 115 309 q 636 0 425 0 q 1002 155 848 0 q 1157 521 1157 309 q 1002 887 1157 732 q 636 1042 848 1042 q 270 887 425 1042 m 228 112 q 143 197 228 112 q 58 521 58 282 q 228 930 58 760 q 636 1100 397 1100 q 1045 930 875 1100 q 1215 521 1215 760 q 1045 112 1215 282 q 636 -58 875 -58 q 228 112 397 -58 m 434 406 q 484 280 434 328 q 636 232 534 232 q 805 281 742 232 q 868 406 868 331 l 975 406 q 863 235 941 296 q 636 174 784 174 q 319 463 319 174 l 319 608 q 392 802 319 735 q 636 868 465 868 q 867 819 789 868 q 975 666 944 769 l 868 666 q 807 773 868 736 q 636 810 746 810 q 482 774 530 810 q 434 666 434 738 l 434 406 z "},"ª":{"ha":705,"x_min":58,"x_max":590,"o":"m 590 682 q 542 696 563 682 q 503 711 521 711 q 444 696 502 711 q 321 682 387 682 q 129 731 199 682 q 58 848 58 780 q 74 894 58 876 q 129 919 90 911 q 208 928 168 926 q 321 930 247 930 l 503 930 l 503 968 q 451 1033 503 1009 q 321 1057 399 1057 q 165 1021 208 1057 l 121 1063 q 320 1100 205 1100 q 519 1058 448 1100 q 590 943 590 1016 l 590 682 m 503 887 l 321 887 q 250 885 278 887 q 197 877 222 883 q 158 857 171 871 q 145 822 145 844 q 196 748 145 779 q 321 718 247 718 q 450 748 396 718 q 503 822 503 779 l 503 887 z "},"«":{"ha":983,"x_min":58,"x_max":840,"o":"m 464 492 q 677 810 629 751 q 781 868 726 868 q 823 851 806 868 q 840 810 840 834 q 823 770 840 787 q 781 753 806 753 q 715 739 735 753 q 668 692 693 724 q 559 538 643 659 q 526 492 538 509 q 660 301 629 342 q 715 244 690 260 q 781 232 735 232 q 823 214 806 232 q 840 174 840 197 q 823 133 840 151 q 781 115 806 115 q 677 174 724 115 q 464 492 629 233 m 58 492 q 272 810 224 751 q 376 868 320 868 q 417 851 400 868 q 434 810 434 834 q 417 770 434 787 q 376 753 400 753 q 309 739 330 753 q 262 692 288 724 q 153 538 237 659 q 121 492 133 509 q 254 301 224 342 q 309 244 285 260 q 376 232 330 232 q 417 214 400 232 q 434 174 434 197 q 417 133 434 151 q 376 115 400 115 q 271 174 319 115 q 58 492 224 233 z "},"­":{"ha":751,"x_min":0,"x_max":0,"o":""},"®":{"ha":1331,"x_min":58,"x_max":1215,"o":"m 270 887 q 193 810 270 887 q 115 521 115 732 q 270 155 115 309 q 636 0 425 0 q 1002 155 848 0 q 1157 521 1157 309 q 1002 887 1157 732 q 636 1042 848 1042 q 270 887 425 1042 m 228 112 q 143 197 228 112 q 58 521 58 282 q 228 930 58 760 q 636 1100 397 1100 q 1045 930 875 1100 q 1215 521 1215 760 q 1045 112 1215 282 q 636 -58 875 -58 q 228 112 397 -58 m 796 678 l 796 694 q 593 840 796 840 q 449 723 449 840 l 449 637 q 475 575 449 586 q 593 564 502 564 q 728 598 659 564 q 796 678 796 632 m 853 189 l 853 347 q 762 459 853 412 q 593 506 671 506 l 449 506 l 449 189 l 362 189 l 362 897 l 623 897 q 828 848 773 897 q 883 694 883 800 l 883 693 q 840 595 883 633 q 735 538 798 556 q 940 304 940 498 l 940 189 l 853 189 z "},"¯":{"ha":1042,"x_min":115,"x_max":868,"o":"m 868 1100 l 868 1042 l 115 1042 l 115 1100 l 868 1100 z "},"°":{"ha":404,"x_min":58,"x_max":347,"o":"m 115 897 q 141 836 115 861 q 202 810 167 810 q 264 836 239 810 q 289 897 289 861 q 264 958 289 933 q 202 983 239 983 q 141 958 167 983 q 115 897 115 933 m 58 897 q 100 999 58 956 q 202 1042 142 1042 q 304 999 262 1042 q 347 897 347 956 q 304 795 347 837 q 202 753 262 753 q 101 795 144 753 q 58 897 58 838 z "},"±":{"ha":868,"x_min":58,"x_max":753,"o":"m 753 58 l 753 0 l 58 0 l 58 58 l 753 58 m 463 983 l 463 636 l 753 636 l 753 579 l 463 579 l 463 232 l 347 232 l 347 579 l 58 579 l 58 636 l 347 636 l 347 983 l 463 983 z "},"²":{"ha":675,"x_min":50,"x_max":617,"o":"m 354 1100 q 587 952 587 1100 q 193 509 587 865 l 617 509 l 617 475 l 50 475 q 506 978 505 891 q 354 1065 506 1065 q 203 996 220 1065 q 107 996 203 996 q 354 1100 141 1100 z "},"³":{"ha":642,"x_min":58,"x_max":585,"o":"m 321 1100 q 492 1065 439 1100 q 544 978 544 1031 q 526 910 544 932 q 464 875 507 888 q 585 718 585 841 l 585 648 q 514 524 585 572 q 321 475 444 475 q 128 524 198 475 q 58 648 58 574 l 138 648 l 138 613 q 193 539 138 570 q 321 509 247 509 q 452 532 400 509 q 503 595 503 555 l 503 769 q 362 856 503 856 l 362 891 q 445 907 427 891 q 463 963 463 924 l 463 1010 q 321 1065 463 1065 q 159 996 174 1065 l 79 996 q 155 1075 98 1050 q 321 1100 213 1100 z "},"´":{"ha":347,"x_min":87,"x_max":260,"o":"m 260 983 q 200 852 260 907 q 106 796 140 796 q 87 859 87 796 q 111 867 99 859 q 134 907 122 876 q 145 983 145 937 q 162 1025 145 1008 q 202 1042 179 1042 q 243 1025 227 1042 q 260 983 260 1008 z "},"µ":{"ha":925,"x_min":58,"x_max":897,"o":"m 810 694 l 810 168 q 831 58 810 58 q 897 77 864 58 q 897 15 897 77 q 810 0 860 0 q 751 5 772 0 q 726 16 731 9 q 721 28 722 22 q 715 40 720 35 q 694 45 709 45 q 609 22 692 45 q 434 0 526 0 q 174 58 288 0 l 174 -232 l 58 -232 l 58 694 l 174 694 l 174 232 q 250 109 174 160 q 434 58 326 58 q 618 109 543 58 q 694 232 694 160 l 694 694 l 810 694 z "},"¶":{"ha":810,"x_min":58,"x_max":694,"o":"m 694 1042 l 694 -289 l 579 -289 l 579 983 l 347 983 l 347 -289 l 232 -289 l 232 723 q 115 773 171 723 q 58 883 58 823 q 115 991 58 941 q 232 1042 171 1042 l 694 1042 z "},"·":{"ha":347,"x_min":87,"x_max":202,"o":"m 145 636 q 185 619 168 636 q 202 579 202 602 q 185 538 202 555 q 145 521 168 521 q 104 538 121 521 q 87 579 87 555 q 104 619 87 602 q 145 636 121 636 z "},"¸":{"ha":1099,"x_min":753,"x_max":926,"o":"m 781 -172 q 803 -121 781 -151 q 825 -73 825 -91 q 796 -20 825 -41 q 753 0 768 0 l 753 61 q 813 31 769 61 q 884 -41 857 1 q 919 -108 911 -85 q 926 -172 926 -130 q 903 -218 926 -205 q 853 -232 879 -232 q 824 -228 838 -232 q 795 -210 810 -224 q 781 -172 781 -195 z "},"¹":{"ha":254,"x_min":28,"x_max":197,"o":"m 197 1100 l 197 475 l 110 475 l 110 1050 l 28 997 l 28 1047 l 110 1100 l 197 1100 z "},"º":{"ha":700,"x_min":58,"x_max":585,"o":"m 498 830 l 498 970 q 448 1034 498 1010 q 321 1057 399 1057 q 194 1034 243 1057 q 145 970 145 1012 l 145 830 q 196 756 145 787 q 321 726 247 726 q 446 756 395 726 q 498 830 498 787 m 585 856 q 514 732 585 781 q 321 682 444 682 q 128 732 198 682 q 58 856 58 781 l 58 943 q 127 1058 58 1016 q 321 1100 197 1100 q 516 1058 448 1100 q 585 943 585 1016 l 585 856 z "},"»":{"ha":983,"x_min":58,"x_max":840,"o":"m 840 492 q 625 173 671 231 q 521 115 578 115 q 481 133 498 115 q 464 174 464 151 q 481 214 464 197 q 521 232 498 232 q 587 244 568 232 q 635 291 610 259 q 742 442 659 323 q 777 492 765 475 q 739 547 760 517 q 706 594 718 578 q 680 631 694 610 q 657 663 665 652 q 640 686 650 673 q 624 705 629 699 q 611 720 618 712 q 598 731 604 727 q 587 739 593 735 q 521 753 568 753 q 481 770 498 753 q 464 810 464 787 q 481 851 464 834 q 521 868 498 868 q 625 810 578 868 q 840 492 671 753 m 434 492 q 219 173 266 231 q 115 115 172 115 q 75 133 92 115 q 58 174 58 151 q 75 214 58 197 q 115 232 92 232 q 182 244 163 232 q 229 291 205 259 q 336 442 254 323 q 372 492 359 475 q 333 547 354 517 q 300 594 312 578 q 274 631 289 610 q 252 663 259 652 q 234 686 244 673 q 218 705 224 699 q 205 720 213 712 q 193 731 198 727 q 182 739 187 735 q 115 753 163 753 q 75 770 92 753 q 58 810 58 787 q 75 851 58 834 q 115 868 92 868 q 219 810 172 868 q 434 492 266 753 z "},"¼":{"ha":1196,"x_min":62,"x_max":1095,"o":"m 125 179 l 1046 1059 l 1095 1000 l 171 126 l 125 179 m 926 452 l 582 127 l 926 127 l 926 452 m 1013 509 l 1013 127 l 1054 127 l 1054 92 l 1013 92 l 1013 -115 l 926 -115 l 926 92 l 521 92 l 521 127 l 926 509 l 1013 509 m 231 1100 l 231 475 l 144 475 l 144 1050 l 62 997 l 62 1047 l 144 1100 l 231 1100 z "},"½":{"ha":1326,"x_min":62,"x_max":1225,"o":"m 962 507 q 1195 361 1195 507 q 800 -83 1195 274 l 1225 -83 l 1225 -117 l 658 -117 q 1114 387 1112 300 q 962 473 1114 473 q 811 404 827 473 q 715 404 811 404 q 962 507 747 507 m 231 1100 l 231 475 l 144 475 l 144 1050 l 62 997 l 62 1047 l 144 1100 l 231 1100 m 125 179 l 1046 1059 l 1095 1000 l 171 126 l 125 179 z "},"¾":{"ha":1427,"x_min":58,"x_max":1326,"o":"m 355 179 l 1278 1059 l 1326 1000 l 403 126 l 355 179 m 1157 452 l 812 127 l 1157 127 l 1157 452 m 1244 509 l 1244 127 l 1284 127 l 1284 92 l 1244 92 l 1244 -115 l 1157 -115 l 1157 92 l 753 92 l 753 127 l 1157 509 l 1244 509 m 321 1100 q 492 1065 439 1100 q 544 978 544 1031 q 526 910 544 932 q 464 875 507 888 q 585 718 585 841 l 585 648 q 514 524 585 572 q 321 475 444 475 q 128 524 198 475 q 58 648 58 574 l 138 648 l 138 613 q 193 539 138 570 q 321 509 247 509 q 452 532 400 509 q 503 595 503 555 l 503 769 q 362 856 503 856 l 362 891 q 445 907 427 891 q 463 963 463 924 l 463 1010 q 321 1065 463 1065 q 159 996 174 1065 l 79 996 q 155 1075 98 1050 q 321 1100 213 1100 z "},"¿":{"ha":868,"x_min":58,"x_max":753,"o":"m 475 1001 q 466 992 475 1001 q 434 983 457 983 q 393 1001 411 983 q 376 1042 376 1019 q 393 1082 376 1065 q 434 1100 411 1100 q 475 1082 457 1100 q 492 1042 492 1065 q 475 1001 492 1019 m 376 781 l 492 781 l 492 780 q 492 669 492 780 q 444 580 488 621 q 301 486 400 538 q 206 385 239 453 q 174 259 174 317 q 239 100 174 171 q 406 28 304 28 q 581 66 515 28 q 646 174 646 104 l 753 174 q 641 22 722 72 q 406 -28 560 -28 q 251 -1 320 -28 q 142 69 182 27 q 80 157 102 111 q 58 245 58 203 q 60 307 58 285 q 74 365 62 328 q 109 427 85 401 q 176 486 132 453 q 286 547 221 518 q 354 602 335 568 q 376 688 373 635 l 376 781 z "},"À":{"ha":925,"x_min":58,"x_max":810,"o":"m 289 1359 q 307 1400 289 1383 q 347 1417 324 1417 q 388 1400 370 1417 q 406 1359 406 1383 q 416 1282 406 1313 q 439 1243 427 1252 q 463 1234 450 1234 q 444 1172 463 1172 q 349 1227 410 1172 q 289 1359 289 1283 m 810 0 l 694 0 l 694 579 l 174 579 l 174 0 l 58 0 l 58 781 q 157 972 58 903 q 434 1042 256 1042 q 711 972 613 1042 q 810 781 810 902 l 810 0 m 174 636 l 694 636 l 694 840 q 621 946 694 909 q 434 983 547 983 q 248 946 321 983 q 174 840 174 909 l 174 636 z "},"Á":{"ha":925,"x_min":58,"x_max":810,"o":"m 579 1359 q 519 1227 579 1283 q 425 1172 458 1172 q 406 1234 406 1172 q 429 1243 418 1234 q 452 1282 441 1252 q 464 1359 464 1313 q 481 1400 464 1383 q 521 1417 498 1417 q 562 1400 545 1417 q 579 1359 579 1383 m 810 0 l 694 0 l 694 579 l 174 579 l 174 0 l 58 0 l 58 781 q 157 972 58 903 q 434 1042 256 1042 q 711 972 613 1042 q 810 781 810 902 l 810 0 m 174 636 l 694 636 l 694 840 q 621 946 694 909 q 434 983 547 983 q 248 946 321 983 q 174 840 174 909 l 174 636 z "},"Â":{"ha":925,"x_min":58,"x_max":810,"o":"m 434 1419 q 511 1371 471 1396 q 574 1331 551 1345 q 625 1300 598 1317 q 666 1274 652 1283 q 696 1253 680 1264 q 719 1233 712 1241 q 733 1216 726 1225 q 743 1198 741 1207 q 747 1180 746 1190 q 749 1158 749 1171 q 732 1117 749 1134 q 692 1100 715 1100 q 650 1117 667 1100 q 633 1158 633 1134 q 624 1225 633 1208 q 616 1234 620 1230 q 610 1242 613 1238 q 600 1251 606 1246 q 589 1259 594 1256 q 575 1270 585 1263 q 558 1280 566 1276 q 536 1294 551 1284 q 509 1311 521 1303 q 475 1332 498 1318 q 434 1356 452 1345 q 378 1323 408 1341 q 335 1297 349 1305 q 304 1278 321 1289 q 281 1262 288 1267 q 267 1250 275 1257 q 254 1238 258 1242 q 244 1225 250 1233 q 235 1158 235 1208 q 217 1117 235 1134 q 176 1100 199 1100 q 132 1117 152 1100 q 113 1158 113 1134 q 114 1182 113 1172 q 122 1203 115 1192 q 135 1222 129 1214 q 157 1243 141 1230 q 188 1265 174 1256 q 230 1293 202 1275 q 283 1326 258 1310 q 351 1368 308 1341 q 434 1419 395 1394 m 810 0 l 694 0 l 694 579 l 174 579 l 174 0 l 58 0 l 58 781 q 157 972 58 903 q 434 1042 256 1042 q 711 972 613 1042 q 810 781 810 902 l 810 0 m 174 636 l 694 636 l 694 840 q 621 946 694 909 q 434 983 547 983 q 248 946 321 983 q 174 840 174 909 l 174 636 z "},"Ã":{"ha":925,"x_min":58,"x_max":810,"o":"m 751 1302 q 739 1221 751 1264 q 693 1139 727 1177 q 610 1100 659 1100 q 514 1124 556 1100 q 445 1181 472 1147 q 395 1249 418 1215 q 345 1307 372 1283 q 286 1331 317 1331 q 231 1187 231 1331 l 115 1187 q 127 1268 115 1225 q 174 1350 140 1312 q 258 1389 209 1389 q 360 1365 316 1389 q 429 1307 404 1341 q 475 1238 454 1272 q 522 1181 496 1204 q 581 1157 548 1157 q 636 1302 636 1157 l 751 1302 m 810 0 l 694 0 l 694 579 l 174 579 l 174 0 l 58 0 l 58 781 q 157 972 58 903 q 434 1042 256 1042 q 711 972 613 1042 q 810 781 810 902 l 810 0 m 174 636 l 694 636 l 694 840 q 621 946 694 909 q 434 983 547 983 q 248 946 321 983 q 174 840 174 909 l 174 636 z "},"Ä":{"ha":925,"x_min":58,"x_max":810,"o":"m 665 1274 q 706 1257 689 1274 q 723 1215 723 1240 q 706 1175 723 1192 q 665 1158 689 1158 q 625 1175 642 1158 q 608 1215 608 1192 q 625 1257 608 1240 q 665 1274 642 1274 m 161 1257 q 170 1265 161 1257 q 202 1274 179 1274 q 243 1257 225 1274 q 260 1215 260 1240 q 243 1175 260 1192 q 202 1158 225 1158 q 161 1175 179 1158 q 144 1215 144 1192 q 161 1257 144 1240 m 810 0 l 694 0 l 694 579 l 174 579 l 174 0 l 58 0 l 58 781 q 157 972 58 903 q 434 1042 256 1042 q 711 972 613 1042 q 810 781 810 902 l 810 0 m 174 636 l 694 636 l 694 840 q 621 946 694 909 q 434 983 547 983 q 248 946 321 983 q 174 840 174 909 l 174 636 z "},"Å":{"ha":925,"x_min":58,"x_max":810,"o":"m 347 1219 q 373 1158 347 1184 q 434 1133 399 1133 q 496 1158 471 1133 q 521 1219 521 1184 q 496 1281 521 1256 q 434 1306 471 1306 q 373 1281 399 1306 q 347 1219 347 1256 m 290 1219 q 332 1322 290 1279 q 434 1364 374 1364 q 536 1322 494 1364 q 579 1219 579 1279 q 536 1118 579 1160 q 434 1076 494 1076 q 333 1118 376 1076 q 290 1219 290 1161 m 810 0 l 694 0 l 694 579 l 174 579 l 174 0 l 58 0 l 58 781 q 157 972 58 903 q 434 1042 256 1042 q 711 972 613 1042 q 810 781 810 902 l 810 0 m 174 636 l 694 636 l 694 840 q 621 946 694 909 q 434 983 547 983 q 248 946 321 983 q 174 840 174 909 l 174 636 z "},"Æ":{"ha":1563,"x_min":58,"x_max":1447,"o":"m 174 636 l 694 636 l 694 840 q 621 946 694 909 q 434 983 547 983 q 248 946 321 983 q 174 840 174 909 l 174 636 m 1447 1042 l 1447 983 l 983 983 q 915 981 937 983 q 863 971 892 979 q 822 943 834 963 q 810 888 810 922 l 810 636 l 1274 636 l 1274 579 l 810 579 l 810 153 q 822 99 810 119 q 863 71 834 79 q 915 60 892 62 q 983 58 937 58 l 1447 58 l 1447 0 l 694 0 l 694 579 l 174 579 l 174 0 l 58 0 l 58 781 q 157 972 58 903 q 434 1042 256 1042 q 694 981 553 1042 l 694 1042 l 1447 1042 z "},"Ç":{"ha":925,"x_min":58,"x_max":810,"o":"m 810 840 l 723 840 q 637 945 723 907 q 434 983 551 983 q 248 946 321 983 q 174 840 174 909 l 174 232 q 250 109 174 160 q 434 58 326 58 q 634 110 545 58 q 723 232 723 161 l 810 232 q 724 91 803 155 q 524 7 644 27 q 567 -41 552 -15 q 601 -106 594 -84 q 608 -172 608 -129 q 585 -218 608 -205 q 536 -232 562 -232 q 506 -228 521 -232 q 477 -210 491 -224 q 463 -172 463 -195 q 484 -121 463 -151 q 506 -73 506 -91 q 478 -20 506 -41 q 434 0 450 0 q 158 82 258 0 q 58 289 58 164 l 58 781 q 157 972 58 903 q 434 1042 256 1042 q 701 986 595 1042 q 810 840 806 930 z "},"È":{"ha":925,"x_min":58,"x_max":810,"o":"m 289 1359 q 307 1400 289 1383 q 347 1417 324 1417 q 388 1400 370 1417 q 406 1359 406 1383 q 416 1282 406 1313 q 439 1243 427 1252 q 463 1234 450 1234 q 444 1172 463 1172 q 349 1227 410 1172 q 289 1359 289 1283 m 810 1042 l 810 983 l 347 983 q 279 981 301 983 q 227 971 256 979 q 186 943 198 963 q 174 888 174 922 l 174 636 l 636 636 l 636 579 l 174 579 l 174 153 q 186 99 174 119 q 227 71 198 79 q 279 60 256 62 q 347 58 301 58 l 810 58 l 810 0 l 58 0 l 58 1042 l 810 1042 z "},"É":{"ha":925,"x_min":58,"x_max":810,"o":"m 579 1359 q 519 1227 579 1283 q 425 1172 458 1172 q 406 1234 406 1172 q 429 1243 418 1234 q 452 1282 441 1252 q 464 1359 464 1313 q 481 1400 464 1383 q 521 1417 498 1417 q 562 1400 545 1417 q 579 1359 579 1383 m 810 1042 l 810 983 l 347 983 q 279 981 301 983 q 227 971 256 979 q 186 943 198 963 q 174 888 174 922 l 174 636 l 636 636 l 636 579 l 174 579 l 174 153 q 186 99 174 119 q 227 71 198 79 q 279 60 256 62 q 347 58 301 58 l 810 58 l 810 0 l 58 0 l 58 1042 l 810 1042 z "},"Ê":{"ha":925,"x_min":58,"x_max":810,"o":"m 437 1419 q 513 1371 473 1396 q 577 1331 553 1345 q 628 1300 601 1317 q 669 1274 655 1283 q 699 1253 682 1264 q 722 1233 715 1241 q 736 1216 728 1225 q 746 1198 743 1207 q 750 1180 749 1190 q 751 1158 751 1171 q 734 1117 751 1134 q 694 1100 718 1100 q 653 1117 670 1100 q 636 1158 636 1134 q 627 1225 636 1208 q 619 1234 623 1230 q 612 1242 616 1238 q 603 1251 609 1246 q 592 1259 597 1256 q 578 1270 587 1263 q 561 1280 568 1276 q 538 1294 553 1284 q 512 1311 524 1303 q 477 1332 500 1318 q 437 1356 454 1345 q 381 1323 411 1341 q 338 1297 351 1305 q 307 1278 324 1289 q 284 1262 290 1267 q 269 1250 278 1257 q 256 1238 260 1242 q 247 1225 252 1233 q 237 1158 237 1208 q 220 1117 237 1134 q 179 1100 202 1100 q 135 1117 155 1100 q 115 1158 115 1134 q 117 1182 115 1172 q 125 1203 118 1192 q 138 1222 132 1214 q 160 1243 144 1230 q 191 1265 176 1256 q 233 1293 205 1275 q 286 1326 260 1310 q 354 1368 311 1341 q 437 1419 397 1394 m 810 1042 l 810 983 l 347 983 q 279 981 301 983 q 227 971 256 979 q 186 943 198 963 q 174 888 174 922 l 174 636 l 636 636 l 636 579 l 174 579 l 174 153 q 186 99 174 119 q 227 71 198 79 q 279 60 256 62 q 347 58 301 58 l 810 58 l 810 0 l 58 0 l 58 1042 l 810 1042 z "},"Ë":{"ha":925,"x_min":58,"x_max":810,"o":"m 636 1274 q 677 1257 661 1274 q 694 1215 694 1240 q 677 1175 694 1192 q 636 1158 661 1158 q 596 1175 613 1158 q 579 1215 579 1192 q 596 1257 579 1240 q 636 1274 613 1274 m 133 1257 q 142 1265 133 1257 q 174 1274 151 1274 q 214 1257 197 1274 q 232 1215 232 1240 q 214 1175 232 1192 q 174 1158 197 1158 q 133 1175 151 1158 q 115 1215 115 1192 q 133 1257 115 1240 m 810 1042 l 810 983 l 347 983 q 279 981 301 983 q 227 971 256 979 q 186 943 198 963 q 174 888 174 922 l 174 636 l 636 636 l 636 579 l 174 579 l 174 153 q 186 99 174 119 q 227 71 198 79 q 279 60 256 62 q 347 58 301 58 l 810 58 l 810 0 l 58 0 l 58 1042 l 810 1042 z "},"Ì":{"ha":289,"x_min":0,"x_max":174,"o":"m 0 1359 q 18 1400 0 1383 q 58 1417 35 1417 q 99 1400 81 1417 q 117 1359 117 1383 q 127 1282 117 1313 q 150 1243 138 1252 q 174 1234 161 1234 q 155 1172 174 1172 q 60 1227 121 1172 q 0 1359 0 1283 m 174 1042 l 174 0 l 58 0 l 58 1042 l 174 1042 z "},"Í":{"ha":289,"x_min":58,"x_max":289,"o":"m 289 1359 q 229 1227 289 1283 q 134 1172 168 1172 q 115 1234 115 1172 q 139 1243 127 1234 q 162 1282 151 1252 q 174 1359 174 1313 q 191 1400 174 1383 q 231 1417 208 1417 q 272 1400 255 1417 q 289 1359 289 1383 m 174 1042 l 174 0 l 58 0 l 58 1042 l 174 1042 z "},"Î":{"ha":289,"x_min":-87,"x_max":313,"o":"m 174 1042 l 174 0 l 58 0 l 58 1042 l 174 1042 m 115 1364 q 255 1257 217 1290 q 303 1206 293 1225 q 313 1154 313 1188 q 304 1119 313 1133 q 288 1103 296 1105 q 273 1100 279 1100 q 243 1114 255 1100 q 231 1147 231 1128 q 210 1229 231 1199 q 115 1312 190 1259 q 21 1229 41 1259 q 1 1147 1 1199 q -11 1114 1 1128 q -41 1100 -23 1100 q -73 1114 -58 1100 q -87 1147 -87 1128 q -59 1228 -87 1198 q 115 1364 -31 1259 z "},"Ï":{"ha":289,"x_min":-58,"x_max":289,"o":"m 232 1274 q 272 1257 255 1274 q 289 1215 289 1240 q 272 1175 289 1192 q 232 1158 255 1158 q 191 1175 208 1158 q 174 1215 174 1192 q 191 1257 174 1240 q 232 1274 208 1274 m 0 1274 q 40 1257 23 1274 q 57 1215 57 1240 q 40 1175 57 1192 q 0 1158 23 1158 q -41 1175 -24 1158 q -58 1215 -58 1192 q -41 1257 -58 1240 q 0 1274 -24 1274 m 174 1042 l 174 0 l 58 0 l 58 1042 l 174 1042 z "},"Ð":{"ha":925,"x_min":0,"x_max":810,"o":"m 694 232 l 694 840 q 621 946 694 909 q 434 983 547 983 q 363 983 387 983 q 304 980 340 982 q 249 972 267 978 q 210 956 231 966 q 182 928 190 945 q 174 888 174 911 l 174 636 l 406 636 l 406 579 l 174 579 l 174 153 q 182 113 174 130 q 210 86 190 96 q 249 70 231 76 q 304 62 267 64 q 363 59 340 60 q 434 58 387 58 q 618 109 543 58 q 694 232 694 160 m 810 289 q 709 82 810 164 q 434 0 608 0 l 58 0 l 58 579 l 0 579 l 0 636 l 58 636 l 58 1042 l 434 1042 q 711 972 613 1042 q 810 781 810 902 l 810 289 z "},"Ñ":{"ha":925,"x_min":58,"x_max":810,"o":"m 751 1302 q 739 1221 751 1264 q 693 1139 727 1177 q 610 1100 659 1100 q 514 1124 556 1100 q 445 1181 472 1147 q 395 1249 418 1215 q 345 1307 372 1283 q 286 1331 317 1331 q 231 1187 231 1331 l 115 1187 q 127 1268 115 1225 q 174 1350 140 1312 q 258 1389 209 1389 q 360 1365 316 1389 q 429 1307 404 1341 q 475 1238 454 1272 q 522 1181 496 1204 q 581 1157 548 1157 q 636 1302 636 1157 l 751 1302 m 810 0 l 694 0 l 694 840 q 621 946 694 909 q 434 983 547 983 q 248 946 321 983 q 174 840 174 909 l 174 0 l 58 0 l 58 1042 l 434 1042 q 711 972 613 1042 q 810 781 810 902 l 810 0 z "},"Ò":{"ha":925,"x_min":58,"x_max":810,"o":"m 289 1359 q 307 1400 289 1383 q 347 1417 324 1417 q 388 1400 370 1417 q 406 1359 406 1383 q 416 1282 406 1313 q 439 1243 427 1252 q 463 1234 450 1234 q 444 1172 463 1172 q 349 1227 410 1172 q 289 1359 289 1283 m 694 232 l 694 840 q 621 946 694 909 q 434 983 547 983 q 248 946 321 983 q 174 840 174 909 l 174 232 q 250 109 174 160 q 434 58 326 58 q 618 109 543 58 q 694 232 694 160 m 810 289 q 709 82 810 164 q 434 0 608 0 q 158 82 258 0 q 58 289 58 164 l 58 781 q 157 972 58 903 q 434 1042 256 1042 q 711 972 613 1042 q 810 781 810 902 l 810 289 z "},"Ó":{"ha":925,"x_min":58,"x_max":810,"o":"m 579 1359 q 519 1227 579 1283 q 425 1172 458 1172 q 406 1234 406 1172 q 429 1243 418 1234 q 452 1282 441 1252 q 464 1359 464 1313 q 481 1400 464 1383 q 521 1417 498 1417 q 562 1400 545 1417 q 579 1359 579 1383 m 694 232 l 694 840 q 621 946 694 909 q 434 983 547 983 q 248 946 321 983 q 174 840 174 909 l 174 232 q 250 109 174 160 q 434 58 326 58 q 618 109 543 58 q 694 232 694 160 m 810 289 q 709 82 810 164 q 434 0 608 0 q 158 82 258 0 q 58 289 58 164 l 58 781 q 157 972 58 903 q 434 1042 256 1042 q 711 972 613 1042 q 810 781 810 902 l 810 289 z "},"Ô":{"ha":925,"x_min":58,"x_max":810,"o":"m 434 1419 q 511 1371 471 1396 q 574 1331 551 1345 q 625 1300 598 1317 q 666 1274 652 1283 q 696 1253 680 1264 q 719 1233 712 1241 q 733 1216 726 1225 q 743 1198 741 1207 q 747 1180 746 1190 q 749 1158 749 1171 q 732 1117 749 1134 q 692 1100 715 1100 q 650 1117 667 1100 q 633 1158 633 1134 q 624 1225 633 1208 q 616 1234 620 1230 q 610 1242 613 1238 q 600 1251 606 1246 q 589 1259 594 1256 q 575 1270 585 1263 q 558 1280 566 1276 q 536 1294 551 1284 q 509 1311 521 1303 q 475 1332 498 1318 q 434 1356 452 1345 q 378 1323 408 1341 q 335 1297 349 1305 q 304 1278 321 1289 q 281 1262 288 1267 q 267 1250 275 1257 q 254 1238 258 1242 q 244 1225 250 1233 q 235 1158 235 1208 q 217 1117 235 1134 q 176 1100 199 1100 q 132 1117 152 1100 q 113 1158 113 1134 q 114 1182 113 1172 q 122 1203 115 1192 q 135 1222 129 1214 q 157 1243 141 1230 q 188 1265 174 1256 q 230 1293 202 1275 q 283 1326 258 1310 q 351 1368 308 1341 q 434 1419 395 1394 m 694 232 l 694 840 q 621 946 694 909 q 434 983 547 983 q 248 946 321 983 q 174 840 174 909 l 174 232 q 250 109 174 160 q 434 58 326 58 q 618 109 543 58 q 694 232 694 160 m 810 289 q 709 82 810 164 q 434 0 608 0 q 158 82 258 0 q 58 289 58 164 l 58 781 q 157 972 58 903 q 434 1042 256 1042 q 711 972 613 1042 q 810 781 810 902 l 810 289 z "},"Õ":{"ha":925,"x_min":58,"x_max":810,"o":"m 766 1302 q 754 1221 766 1264 q 708 1139 742 1177 q 625 1100 674 1100 q 529 1124 571 1100 q 460 1181 487 1147 q 410 1249 433 1215 q 359 1307 387 1283 q 301 1331 332 1331 q 245 1187 245 1331 l 130 1187 q 142 1268 130 1225 q 189 1350 155 1312 q 273 1389 224 1389 q 375 1365 331 1389 q 444 1307 419 1341 q 490 1238 469 1272 q 537 1181 511 1204 q 595 1157 563 1157 q 651 1302 651 1157 l 766 1302 m 694 232 l 694 840 q 621 946 694 909 q 434 983 547 983 q 248 946 321 983 q 174 840 174 909 l 174 232 q 250 109 174 160 q 434 58 326 58 q 618 109 543 58 q 694 232 694 160 m 810 289 q 709 82 810 164 q 434 0 608 0 q 158 82 258 0 q 58 289 58 164 l 58 781 q 157 972 58 903 q 434 1042 256 1042 q 711 972 613 1042 q 810 781 810 902 l 810 289 z "},"Ö":{"ha":925,"x_min":58,"x_max":810,"o":"m 665 1274 q 706 1257 689 1274 q 723 1215 723 1240 q 706 1175 723 1192 q 665 1158 689 1158 q 625 1175 642 1158 q 608 1215 608 1192 q 625 1257 608 1240 q 665 1274 642 1274 m 161 1257 q 170 1265 161 1257 q 202 1274 179 1274 q 243 1257 225 1274 q 260 1215 260 1240 q 243 1175 260 1192 q 202 1158 225 1158 q 161 1175 179 1158 q 144 1215 144 1192 q 161 1257 144 1240 m 694 232 l 694 840 q 621 946 694 909 q 434 983 547 983 q 248 946 321 983 q 174 840 174 909 l 174 232 q 250 109 174 160 q 434 58 326 58 q 618 109 543 58 q 694 232 694 160 m 810 289 q 709 82 810 164 q 434 0 608 0 q 158 82 258 0 q 58 289 58 164 l 58 781 q 157 972 58 903 q 434 1042 256 1042 q 711 972 613 1042 q 810 781 810 902 l 810 289 z "},"×":{"ha":665,"x_min":58,"x_max":549,"o":"m 100 853 l 304 650 l 507 853 l 549 811 l 346 608 l 549 404 l 507 362 l 304 567 l 100 362 l 58 404 l 263 608 l 58 811 l 100 853 z "},"Ø":{"ha":925,"x_min":58,"x_max":810,"o":"m 810 289 q 709 82 810 164 q 434 0 608 0 q 172 58 286 0 l 140 0 l 65 0 l 115 91 q 58 289 58 138 l 58 781 q 157 972 58 903 q 434 1042 256 1042 q 627 1016 534 1042 l 674 1100 l 753 1100 l 693 994 q 785 901 761 948 q 810 781 810 854 l 810 289 m 694 232 l 694 840 q 654 924 694 890 l 217 136 q 434 58 294 58 q 618 109 543 58 q 694 232 694 160 m 178 202 l 595 958 q 434 983 530 983 q 248 946 321 983 q 174 840 174 909 l 174 232 q 178 202 174 217 z "},"Ù":{"ha":925,"x_min":58,"x_max":810,"o":"m 317 1359 q 335 1400 317 1383 q 376 1417 353 1417 q 416 1400 399 1417 q 434 1359 434 1383 q 445 1282 434 1313 q 467 1243 456 1252 q 491 1234 479 1234 q 472 1172 491 1172 q 378 1227 438 1172 q 317 1359 317 1283 m 810 0 q 745 22 769 0 q 694 45 720 45 q 609 22 692 45 q 434 0 526 0 q 158 82 258 0 q 58 289 58 164 l 58 1042 l 174 1042 l 174 232 q 250 109 174 160 q 434 58 326 58 q 618 109 543 58 q 694 232 694 160 l 694 1042 l 810 1042 l 810 0 z "},"Ú":{"ha":925,"x_min":58,"x_max":810,"o":"m 579 1359 q 519 1227 579 1283 q 425 1172 458 1172 q 406 1234 406 1172 q 429 1243 418 1234 q 452 1282 441 1252 q 464 1359 464 1313 q 481 1400 464 1383 q 521 1417 498 1417 q 562 1400 545 1417 q 579 1359 579 1383 m 810 0 q 745 22 769 0 q 694 45 720 45 q 609 22 692 45 q 434 0 526 0 q 158 82 258 0 q 58 289 58 164 l 58 1042 l 174 1042 l 174 232 q 250 109 174 160 q 434 58 326 58 q 618 109 543 58 q 694 232 694 160 l 694 1042 l 810 1042 l 810 0 z "},"Û":{"ha":925,"x_min":58,"x_max":810,"o":"m 434 1419 q 511 1371 471 1396 q 574 1331 551 1345 q 625 1300 598 1317 q 666 1274 652 1283 q 696 1253 680 1264 q 719 1233 712 1241 q 733 1216 726 1225 q 743 1198 741 1207 q 747 1180 746 1190 q 749 1158 749 1171 q 732 1117 749 1134 q 692 1100 715 1100 q 650 1117 667 1100 q 633 1158 633 1134 q 624 1225 633 1208 q 616 1234 620 1230 q 610 1242 613 1238 q 600 1251 606 1246 q 589 1259 594 1256 q 575 1270 585 1263 q 558 1280 566 1276 q 536 1294 551 1284 q 509 1311 521 1303 q 475 1332 498 1318 q 434 1356 452 1345 q 378 1323 408 1341 q 335 1297 349 1305 q 304 1278 321 1289 q 281 1262 288 1267 q 267 1250 275 1257 q 254 1238 258 1242 q 244 1225 250 1233 q 235 1158 235 1208 q 217 1117 235 1134 q 176 1100 199 1100 q 132 1117 152 1100 q 113 1158 113 1134 q 114 1182 113 1172 q 122 1203 115 1192 q 135 1222 129 1214 q 157 1243 141 1230 q 188 1265 174 1256 q 230 1293 202 1275 q 283 1326 258 1310 q 351 1368 308 1341 q 434 1419 395 1394 m 810 0 q 745 22 769 0 q 694 45 720 45 q 609 22 692 45 q 434 0 526 0 q 158 82 258 0 q 58 289 58 164 l 58 1042 l 174 1042 l 174 232 q 250 109 174 160 q 434 58 326 58 q 618 109 543 58 q 694 232 694 160 l 694 1042 l 810 1042 l 810 0 z "},"Ü":{"ha":925,"x_min":58,"x_max":810,"o":"m 665 1274 q 706 1257 689 1274 q 723 1215 723 1240 q 706 1175 723 1192 q 665 1158 689 1158 q 625 1175 642 1158 q 608 1215 608 1192 q 625 1257 608 1240 q 665 1274 642 1274 m 161 1257 q 170 1265 161 1257 q 202 1274 179 1274 q 243 1257 225 1274 q 260 1215 260 1240 q 243 1175 260 1192 q 202 1158 225 1158 q 161 1175 179 1158 q 144 1215 144 1192 q 161 1257 144 1240 m 810 0 q 745 22 769 0 q 694 45 720 45 q 609 22 692 45 q 434 0 526 0 q 158 82 258 0 q 58 289 58 164 l 58 1042 l 174 1042 l 174 232 q 250 109 174 160 q 434 58 326 58 q 618 109 543 58 q 694 232 694 160 l 694 1042 l 810 1042 l 810 0 z "},"Ý":{"ha":925,"x_min":58,"x_max":810,"o":"m 579 1359 q 519 1227 579 1283 q 425 1172 458 1172 q 406 1234 406 1172 q 429 1243 418 1234 q 452 1282 441 1252 q 464 1359 464 1313 q 481 1400 464 1383 q 521 1417 498 1417 q 562 1400 545 1417 q 579 1359 579 1383 m 694 -58 l 694 58 q 434 0 581 0 q 158 83 258 0 q 58 290 58 165 l 58 1042 l 174 1042 l 174 233 q 250 109 174 160 q 434 58 326 58 q 618 109 543 58 q 694 233 694 160 l 694 1042 l 810 1042 l 810 0 q 711 -214 810 -138 q 434 -289 613 -289 q 210 -242 304 -289 q 65 -115 117 -195 l 164 -115 q 273 -199 197 -165 q 434 -232 350 -232 q 618 -181 541 -232 q 694 -58 694 -130 z "},"Þ":{"ha":925,"x_min":58,"x_max":810,"o":"m 174 1215 l 174 1042 q 434 1042 174 1042 q 711 972 613 1042 q 810 781 810 902 l 810 636 q 709 429 810 511 q 434 347 608 347 q 174 406 288 347 l 174 0 l 58 0 l 58 1215 l 174 1215 m 694 579 l 694 840 q 621 946 694 909 q 434 983 547 983 q 248 946 321 983 q 174 840 174 909 l 174 579 q 250 456 174 507 q 434 406 326 406 q 618 456 543 406 q 694 579 694 507 z "},"ß":{"ha":925,"x_min":58,"x_max":810,"o":"m 376 983 q 234 932 294 983 q 174 810 174 882 l 174 0 l 58 0 l 58 753 q 137 961 58 880 q 376 1042 216 1042 q 478 1030 427 1042 q 580 992 529 1019 q 663 913 631 966 q 694 791 694 861 l 694 789 q 671 661 694 707 q 590 582 647 614 q 751 479 692 553 q 810 319 810 406 q 707 95 810 190 q 434 0 605 0 l 289 0 l 289 58 l 434 58 q 617 115 540 58 q 694 244 694 172 l 694 389 q 621 497 694 458 q 434 536 547 536 l 434 593 q 579 758 579 602 l 579 825 q 526 941 579 898 q 376 983 473 983 z "},"à":{"ha":925,"x_min":58,"x_max":810,"o":"m 317 1042 q 335 1083 317 1066 q 376 1100 353 1100 q 416 1083 399 1100 q 434 1042 434 1066 q 445 965 434 996 q 467 926 456 935 q 491 917 479 917 q 472 854 491 854 q 378 910 438 854 q 317 1042 317 966 m 810 0 q 745 22 770 0 q 694 45 720 45 q 609 22 692 45 q 434 0 526 0 q 159 82 260 0 q 58 275 58 164 q 151 388 58 362 q 434 406 214 406 l 694 406 l 694 492 q 621 599 694 562 q 434 636 547 636 q 210 571 277 636 l 146 635 q 433 694 262 694 q 711 625 613 694 q 810 434 810 555 l 810 0 m 694 347 l 434 347 q 332 342 376 347 q 251 326 289 338 q 193 290 213 313 q 174 232 174 266 q 250 109 174 160 q 434 58 326 58 q 618 109 543 58 q 694 232 694 160 l 694 347 z "},"á":{"ha":925,"x_min":58,"x_max":810,"o":"m 579 1042 q 519 910 579 966 q 425 854 458 854 q 406 917 406 854 q 429 926 418 917 q 452 965 441 935 q 464 1042 464 996 q 481 1083 464 1066 q 521 1100 498 1100 q 562 1083 545 1100 q 579 1042 579 1066 m 810 0 q 745 22 770 0 q 694 45 720 45 q 609 22 692 45 q 434 0 526 0 q 159 82 260 0 q 58 275 58 164 q 151 388 58 362 q 434 406 214 406 l 694 406 l 694 492 q 621 599 694 562 q 434 636 547 636 q 210 571 277 636 l 146 635 q 433 694 262 694 q 711 625 613 694 q 810 434 810 555 l 810 0 m 694 347 l 434 347 q 332 342 376 347 q 251 326 289 338 q 193 290 213 313 q 174 232 174 266 q 250 109 174 160 q 434 58 326 58 q 618 109 543 58 q 694 232 694 160 l 694 347 z "},"â":{"ha":925,"x_min":58,"x_max":810,"o":"m 464 1100 q 541 1052 500 1077 q 604 1013 581 1027 q 655 981 628 998 q 696 955 682 964 q 726 934 709 945 q 749 914 742 922 q 763 897 755 906 q 773 880 770 888 q 777 861 776 871 q 779 840 779 852 q 762 798 779 815 q 722 781 745 781 q 680 798 697 781 q 663 840 663 815 q 654 906 663 890 q 646 916 650 911 q 640 924 643 920 q 630 932 636 928 q 619 941 624 937 q 605 951 614 944 q 588 962 595 958 q 566 975 581 966 q 539 992 551 985 q 505 1013 528 1000 q 464 1038 481 1027 q 408 1004 438 1023 q 365 978 378 986 q 334 959 351 970 q 311 943 317 948 q 296 931 305 939 q 283 919 288 924 q 274 906 279 914 q 264 840 264 890 q 247 798 264 815 q 206 781 229 781 q 162 798 182 781 q 142 840 142 815 q 144 863 142 853 q 152 884 145 873 q 165 903 159 895 q 187 924 171 911 q 218 947 203 937 q 260 974 232 956 q 313 1007 288 991 q 381 1049 338 1023 q 464 1100 425 1076 m 810 0 q 745 22 770 0 q 694 45 720 45 q 609 22 692 45 q 434 0 526 0 q 159 82 260 0 q 58 275 58 164 q 151 388 58 362 q 434 406 214 406 l 694 406 l 694 492 q 621 599 694 562 q 434 636 547 636 q 210 571 277 636 l 146 635 q 433 694 262 694 q 711 625 613 694 q 810 434 810 555 l 810 0 m 694 347 l 434 347 q 332 342 376 347 q 251 326 289 338 q 193 290 213 313 q 174 232 174 266 q 250 109 174 160 q 434 58 326 58 q 618 109 543 58 q 694 232 694 160 l 694 347 z "},"ã":{"ha":925,"x_min":58,"x_max":810,"o":"m 781 1013 q 769 932 781 975 q 723 850 757 888 q 640 811 689 811 q 544 835 586 811 q 475 892 502 859 q 425 960 448 926 q 374 1018 401 994 q 316 1042 347 1042 q 260 898 260 1042 l 145 898 q 157 979 145 936 q 204 1061 170 1023 q 288 1100 239 1100 q 390 1076 346 1100 q 459 1018 434 1053 q 505 949 484 983 q 552 892 526 916 q 610 868 578 868 q 666 1013 666 868 l 781 1013 m 810 0 q 745 22 770 0 q 694 45 720 45 q 609 22 692 45 q 434 0 526 0 q 159 82 260 0 q 58 275 58 164 q 151 388 58 362 q 434 406 214 406 l 694 406 l 694 492 q 621 599 694 562 q 434 636 547 636 q 210 571 277 636 l 146 635 q 433 694 262 694 q 711 625 613 694 q 810 434 810 555 l 810 0 m 694 347 l 434 347 q 332 342 376 347 q 251 326 289 338 q 193 290 213 313 q 174 232 174 266 q 250 109 174 160 q 434 58 326 58 q 618 109 543 58 q 694 232 694 160 l 694 347 z "},"ä":{"ha":925,"x_min":58,"x_max":810,"o":"m 665 1042 q 706 1025 689 1042 q 723 983 723 1008 q 706 943 723 960 q 665 926 689 926 q 625 943 642 926 q 608 983 608 960 q 625 1025 608 1008 q 665 1042 642 1042 m 161 1025 q 170 1033 161 1025 q 202 1042 179 1042 q 243 1025 225 1042 q 260 983 260 1008 q 243 943 260 960 q 202 926 225 926 q 161 943 179 926 q 144 983 144 960 q 161 1025 144 1008 m 810 0 q 745 22 770 0 q 694 45 720 45 q 609 22 692 45 q 434 0 526 0 q 159 82 260 0 q 58 275 58 164 q 151 388 58 362 q 434 406 214 406 l 694 406 l 694 492 q 621 599 694 562 q 434 636 547 636 q 210 571 277 636 l 146 635 q 433 694 262 694 q 711 625 613 694 q 810 434 810 555 l 810 0 m 694 347 l 434 347 q 332 342 376 347 q 251 326 289 338 q 193 290 213 313 q 174 232 174 266 q 250 109 174 160 q 434 58 326 58 q 618 109 543 58 q 694 232 694 160 l 694 347 z "},"å":{"ha":925,"x_min":58,"x_max":810,"o":"m 340 897 q 366 836 340 861 q 427 810 392 810 q 489 836 464 810 q 514 897 514 861 q 489 958 514 933 q 427 983 464 983 q 366 958 392 983 q 340 897 340 933 m 283 897 q 326 999 283 956 q 427 1042 368 1042 q 530 999 487 1042 q 572 897 572 956 q 530 795 572 837 q 427 753 487 753 q 326 795 369 753 q 283 897 283 838 m 810 0 q 745 22 770 0 q 694 45 720 45 q 609 22 692 45 q 434 0 526 0 q 159 82 260 0 q 58 275 58 164 q 151 388 58 362 q 434 406 214 406 l 694 406 l 694 492 q 621 599 694 562 q 434 636 547 636 q 210 571 277 636 l 146 635 q 433 694 262 694 q 711 625 613 694 q 810 434 810 555 l 810 0 m 694 347 l 434 347 q 332 342 376 347 q 251 326 289 338 q 193 290 213 313 q 174 232 174 266 q 250 109 174 160 q 434 58 326 58 q 618 109 543 58 q 694 232 694 160 l 694 347 z "},"æ":{"ha":1563,"x_min":58,"x_max":1447,"o":"m 694 347 l 434 347 q 332 342 376 347 q 251 326 289 338 q 193 290 213 313 q 174 232 174 266 q 250 109 174 160 q 434 58 326 58 q 618 109 543 58 q 694 232 694 160 l 694 347 m 1331 406 l 1331 492 q 1257 599 1331 562 q 1070 636 1183 636 q 884 598 958 636 q 810 492 810 560 l 810 406 l 1331 406 m 1447 347 l 810 347 l 810 232 q 886 109 810 160 q 1070 58 963 58 q 1253 96 1181 58 q 1331 202 1325 134 l 1447 202 q 1320 55 1417 110 q 1070 0 1223 0 q 810 58 926 0 l 810 0 q 755 22 787 0 q 694 45 723 45 q 609 22 692 45 q 434 0 526 0 q 159 82 260 0 q 58 275 58 164 q 151 388 58 362 q 434 406 214 406 l 694 406 l 694 492 q 621 599 694 562 q 434 636 547 636 q 210 571 277 636 l 146 635 q 434 694 262 694 q 753 589 623 694 q 1070 694 873 694 q 1347 612 1246 694 q 1447 406 1447 530 l 1447 347 z "},"ç":{"ha":925,"x_min":58,"x_max":810,"o":"m 810 492 l 694 492 q 621 599 694 562 q 434 636 547 636 q 248 599 321 636 q 174 492 174 562 l 174 232 q 250 109 174 160 q 434 58 326 58 q 618 109 543 58 q 694 232 694 160 l 810 232 q 711 83 784 144 q 524 7 637 23 q 566 -41 549 -12 q 600 -107 593 -84 q 608 -172 608 -130 q 585 -218 608 -205 q 536 -232 562 -232 q 506 -228 521 -232 q 477 -210 491 -224 q 463 -172 463 -195 q 484 -121 463 -151 q 506 -73 506 -91 q 478 -20 506 -41 q 434 0 450 0 q 158 82 258 0 q 58 289 58 164 l 58 434 q 157 625 58 556 q 434 694 256 694 q 810 492 751 694 z "},"è":{"ha":925,"x_min":58,"x_max":810,"o":"m 317 1042 q 335 1083 317 1066 q 376 1100 353 1100 q 416 1083 399 1100 q 434 1042 434 1066 q 445 965 434 996 q 467 926 456 935 q 491 917 479 917 q 472 854 491 854 q 378 910 438 854 q 317 1042 317 966 m 810 347 l 174 347 l 174 232 q 250 109 174 160 q 434 58 326 58 q 602 92 519 58 q 718 174 685 125 l 796 174 q 434 0 682 0 q 158 82 258 0 q 58 289 58 164 l 58 434 q 157 625 58 556 q 434 694 256 694 q 710 612 610 694 q 810 406 810 530 l 810 347 m 174 406 l 694 406 l 694 492 q 621 599 694 562 q 434 636 547 636 q 248 599 321 636 q 174 492 174 562 l 174 406 z "},"é":{"ha":925,"x_min":58,"x_max":810,"o":"m 609 1042 q 549 910 609 966 q 454 854 488 854 q 435 917 435 854 q 459 926 448 917 q 482 965 471 935 q 494 1042 494 996 q 511 1083 494 1066 q 551 1100 528 1100 q 592 1083 575 1100 q 609 1042 609 1066 m 810 347 l 174 347 l 174 232 q 250 109 174 160 q 434 58 326 58 q 602 92 519 58 q 718 174 685 125 l 796 174 q 434 0 682 0 q 158 82 258 0 q 58 289 58 164 l 58 434 q 157 625 58 556 q 434 694 256 694 q 710 612 610 694 q 810 406 810 530 l 810 347 m 174 406 l 694 406 l 694 492 q 621 599 694 562 q 434 636 547 636 q 248 599 321 636 q 174 492 174 562 l 174 406 z "},"ê":{"ha":925,"x_min":58,"x_max":810,"o":"m 434 1100 q 511 1052 471 1077 q 574 1013 551 1027 q 625 981 598 998 q 666 955 652 964 q 696 934 680 945 q 719 914 712 922 q 733 897 726 906 q 743 880 741 888 q 747 861 746 871 q 749 840 749 852 q 732 798 749 815 q 692 781 715 781 q 650 798 667 781 q 633 840 633 815 q 624 906 633 890 q 616 916 620 911 q 610 924 613 920 q 600 932 606 928 q 589 941 594 937 q 575 951 585 944 q 558 962 566 958 q 536 975 551 966 q 509 992 521 985 q 475 1013 498 1000 q 434 1038 452 1027 q 378 1004 408 1023 q 335 978 349 986 q 304 959 321 970 q 281 943 288 948 q 267 931 275 939 q 254 919 258 924 q 244 906 250 914 q 235 840 235 890 q 217 798 235 815 q 176 781 199 781 q 132 798 152 781 q 113 840 113 815 q 114 863 113 853 q 122 884 115 873 q 135 903 129 895 q 157 924 141 911 q 188 947 174 937 q 230 974 202 956 q 283 1007 258 991 q 351 1049 308 1023 q 434 1100 395 1076 m 810 347 l 174 347 l 174 232 q 250 109 174 160 q 434 58 326 58 q 602 92 519 58 q 718 174 685 125 l 796 174 q 434 0 682 0 q 158 82 258 0 q 58 289 58 164 l 58 434 q 157 625 58 556 q 434 694 256 694 q 710 612 610 694 q 810 406 810 530 l 810 347 m 174 406 l 694 406 l 694 492 q 621 599 694 562 q 434 636 547 636 q 248 599 321 636 q 174 492 174 562 l 174 406 z "},"ë":{"ha":925,"x_min":58,"x_max":810,"o":"m 665 1040 q 706 1023 689 1040 q 723 982 723 1006 q 706 942 723 959 q 665 925 689 925 q 625 942 642 925 q 608 982 608 959 q 625 1023 608 1006 q 665 1040 642 1040 m 161 1023 q 170 1032 161 1023 q 202 1040 179 1040 q 243 1023 225 1040 q 260 982 260 1006 q 243 942 260 959 q 202 925 225 925 q 161 942 179 925 q 144 982 144 959 q 161 1023 144 1006 m 810 347 l 174 347 l 174 232 q 250 109 174 160 q 434 58 326 58 q 602 92 519 58 q 718 174 685 125 l 796 174 q 434 0 682 0 q 158 82 258 0 q 58 289 58 164 l 58 434 q 157 625 58 556 q 434 694 256 694 q 710 612 610 694 q 810 406 810 530 l 810 347 m 174 406 l 694 406 l 694 492 q 621 599 694 562 q 434 636 547 636 q 248 599 321 636 q 174 492 174 562 l 174 406 z "},"ì":{"ha":380,"x_min":0,"x_max":347,"o":"m 0 1040 q 18 1082 0 1065 q 58 1099 35 1099 q 99 1082 81 1099 q 117 1040 117 1065 q 127 964 117 994 q 150 924 138 933 q 174 916 161 916 q 155 853 174 853 q 60 909 121 853 q 0 1040 0 964 m 174 694 l 174 153 q 195 58 174 58 q 347 118 247 58 q 347 57 347 118 q 174 0 255 0 q 58 144 58 0 l 58 694 l 174 694 z "},"í":{"ha":380,"x_min":58,"x_max":347,"o":"m 260 1042 q 200 910 260 966 q 106 854 140 854 q 87 917 87 854 q 111 926 99 917 q 134 965 122 935 q 145 1042 145 996 q 162 1083 145 1066 q 202 1100 179 1100 q 243 1083 227 1100 q 260 1042 260 1066 m 174 694 l 174 153 q 195 58 174 58 q 347 118 247 58 q 347 57 347 118 q 174 0 255 0 q 58 144 58 0 l 58 694 l 174 694 z "},"î":{"ha":380,"x_min":-31,"x_max":463,"o":"m 218 1096 q 278 1048 247 1073 q 327 1008 309 1023 q 366 977 345 994 q 398 951 387 960 q 421 930 408 941 q 439 910 433 918 q 450 893 444 902 q 457 876 455 884 q 461 857 459 867 q 462 836 462 848 q 448 794 462 811 q 418 777 435 777 q 386 794 399 777 q 372 836 372 811 q 365 902 372 886 q 359 911 362 907 q 354 920 357 916 q 347 928 352 924 q 338 937 342 933 q 327 947 335 940 q 314 958 320 954 q 297 971 309 962 q 277 988 285 981 q 250 1009 268 996 q 218 1034 232 1023 q 175 1000 199 1019 q 142 974 152 982 q 118 955 131 966 q 101 939 105 944 q 89 927 96 935 q 79 915 82 920 q 72 902 76 910 q 64 836 64 886 q 51 794 64 811 q 19 777 37 777 q -15 794 0 777 q -30 836 -30 811 q -29 859 -30 849 q -23 880 -28 869 q -13 899 -17 891 q 5 920 -8 907 q 28 943 17 933 q 61 970 39 952 q 102 1003 82 987 q 154 1045 121 1019 q 218 1096 188 1072 m 174 694 l 174 153 q 195 58 174 58 q 347 118 247 58 q 347 57 347 118 q 174 0 255 0 q 58 144 58 0 l 58 694 l 174 694 z "},"ï":{"ha":404,"x_min":0,"x_max":406,"o":"m 174 694 l 174 153 q 195 58 174 58 q 347 118 247 58 q 347 57 347 118 q 174 0 255 0 q 58 144 58 0 l 58 694 l 174 694 m 58 1042 q 98 1025 81 1042 q 115 983 115 1008 q 98 943 115 960 q 58 926 81 926 q 17 943 34 926 q 0 983 0 960 q 17 1025 0 1008 q 58 1042 34 1042 m 307 1025 q 315 1033 307 1025 q 347 1042 324 1042 q 388 1025 370 1042 q 406 983 406 1008 q 388 943 406 960 q 347 926 370 926 q 307 943 324 926 q 289 983 289 960 q 307 1025 289 1008 z "},"ð":{"ha":925,"x_min":58,"x_max":810,"o":"m 694 232 l 694 492 q 621 599 694 562 q 434 636 547 636 q 248 599 321 636 q 174 492 174 562 l 174 232 q 250 109 174 160 q 434 58 326 58 q 618 109 543 58 q 694 232 694 160 m 810 289 q 709 82 810 164 q 434 0 608 0 q 158 82 258 0 q 58 289 58 164 l 58 434 q 157 625 58 556 q 434 694 256 694 q 537 684 499 694 q 632 650 575 674 q 647 643 642 646 l 376 914 l 288 825 l 245 867 l 335 955 l 245 1043 l 288 1085 l 376 997 l 464 1085 l 506 1043 l 418 955 l 739 632 q 787 553 765 605 q 810 434 810 500 l 810 289 z "},"ñ":{"ha":925,"x_min":58,"x_max":810,"o":"m 751 1013 q 739 932 751 975 q 693 850 727 888 q 610 811 659 811 q 514 835 556 811 q 445 892 472 859 q 395 960 418 926 q 345 1018 372 994 q 286 1042 317 1042 q 231 898 231 1042 l 115 898 q 127 979 115 936 q 174 1061 140 1023 q 258 1100 209 1100 q 360 1076 316 1100 q 429 1018 404 1053 q 475 949 454 983 q 522 892 496 916 q 581 868 548 868 q 636 1013 636 868 l 751 1013 m 174 694 l 174 648 q 434 694 285 694 q 711 625 613 694 q 810 434 810 555 l 810 0 l 694 0 l 694 492 q 621 599 694 562 q 434 636 547 636 q 248 599 321 636 q 174 492 174 562 l 174 0 l 58 0 l 58 694 l 174 694 z "},"ò":{"ha":925,"x_min":58,"x_max":810,"o":"m 347 1036 q 365 1078 347 1061 q 406 1095 382 1095 q 446 1078 429 1095 q 464 1036 464 1061 q 475 960 464 990 q 497 920 486 929 q 521 911 509 911 q 502 849 521 849 q 408 905 468 849 q 347 1036 347 960 m 694 232 l 694 492 q 621 599 694 562 q 434 636 547 636 q 248 599 321 636 q 174 492 174 562 l 174 232 q 250 109 174 160 q 434 58 326 58 q 618 109 543 58 q 694 232 694 160 m 810 289 q 709 82 810 164 q 434 0 608 0 q 158 82 258 0 q 58 289 58 164 l 58 434 q 157 625 58 556 q 434 694 256 694 q 711 625 613 694 q 810 434 810 555 l 810 289 z "},"ó":{"ha":925,"x_min":58,"x_max":810,"o":"m 549 1042 q 489 910 549 966 q 395 854 429 854 q 376 917 376 854 q 399 926 388 917 q 422 965 411 935 q 434 1042 434 996 q 451 1083 434 1066 q 491 1100 468 1100 q 532 1083 515 1100 q 549 1042 549 1066 m 694 232 l 694 492 q 621 599 694 562 q 434 636 547 636 q 248 599 321 636 q 174 492 174 562 l 174 232 q 250 109 174 160 q 434 58 326 58 q 618 109 543 58 q 694 232 694 160 m 810 289 q 709 82 810 164 q 434 0 608 0 q 158 82 258 0 q 58 289 58 164 l 58 434 q 157 625 58 556 q 434 694 256 694 q 711 625 613 694 q 810 434 810 555 l 810 289 z "},"ô":{"ha":925,"x_min":58,"x_max":810,"o":"m 434 1096 q 511 1048 471 1073 q 574 1008 551 1023 q 625 977 598 994 q 666 951 652 960 q 696 930 680 941 q 719 910 712 918 q 733 893 726 902 q 743 876 741 884 q 747 857 746 867 q 749 836 749 848 q 732 794 749 811 q 692 777 715 777 q 650 794 667 777 q 633 836 633 811 q 624 902 633 886 q 616 911 620 907 q 610 920 613 916 q 600 928 606 924 q 589 937 594 933 q 575 947 585 940 q 558 958 566 954 q 536 971 551 962 q 509 988 521 981 q 475 1009 498 996 q 434 1034 452 1023 q 378 1000 408 1019 q 335 974 349 982 q 304 955 321 966 q 281 939 288 944 q 267 927 275 935 q 254 915 258 920 q 244 902 250 910 q 235 836 235 886 q 217 794 235 811 q 176 777 199 777 q 132 794 152 777 q 113 836 113 811 q 114 859 113 849 q 122 880 115 869 q 135 899 129 891 q 157 920 141 907 q 188 943 174 933 q 230 970 202 952 q 283 1003 258 987 q 351 1045 308 1019 q 434 1096 395 1072 m 694 232 l 694 492 q 621 599 694 562 q 434 636 547 636 q 248 599 321 636 q 174 492 174 562 l 174 232 q 250 109 174 160 q 434 58 326 58 q 618 109 543 58 q 694 232 694 160 m 810 289 q 709 82 810 164 q 434 0 608 0 q 158 82 258 0 q 58 289 58 164 l 58 434 q 157 625 58 556 q 434 694 256 694 q 711 625 613 694 q 810 434 810 555 l 810 289 z "},"õ":{"ha":925,"x_min":58,"x_max":810,"o":"m 751 1013 q 739 932 751 975 q 693 850 727 888 q 610 811 659 811 q 514 835 556 811 q 445 892 472 859 q 395 960 418 926 q 345 1018 372 994 q 286 1042 317 1042 q 231 898 231 1042 l 115 898 q 127 979 115 936 q 174 1061 140 1023 q 258 1100 209 1100 q 360 1076 316 1100 q 429 1018 404 1053 q 475 949 454 983 q 522 892 496 916 q 581 868 548 868 q 636 1013 636 868 l 751 1013 m 694 232 l 694 492 q 621 599 694 562 q 434 636 547 636 q 248 599 321 636 q 174 492 174 562 l 174 232 q 250 109 174 160 q 434 58 326 58 q 618 109 543 58 q 694 232 694 160 m 810 289 q 709 82 810 164 q 434 0 608 0 q 158 82 258 0 q 58 289 58 164 l 58 434 q 157 625 58 556 q 434 694 256 694 q 711 625 613 694 q 810 434 810 555 l 810 289 z "},"ö":{"ha":925,"x_min":58,"x_max":810,"o":"m 665 1042 q 706 1025 689 1042 q 723 983 723 1008 q 706 943 723 960 q 665 926 689 926 q 625 943 642 926 q 608 983 608 960 q 625 1025 608 1008 q 665 1042 642 1042 m 161 1025 q 170 1033 161 1025 q 202 1042 179 1042 q 243 1025 225 1042 q 260 983 260 1008 q 243 943 260 960 q 202 926 225 926 q 161 943 179 926 q 144 983 144 960 q 161 1025 144 1008 m 694 232 l 694 492 q 621 599 694 562 q 434 636 547 636 q 248 599 321 636 q 174 492 174 562 l 174 232 q 250 109 174 160 q 434 58 326 58 q 618 109 543 58 q 694 232 694 160 m 810 289 q 709 82 810 164 q 434 0 608 0 q 158 82 258 0 q 58 289 58 164 l 58 434 q 157 625 58 556 q 434 694 256 694 q 711 625 613 694 q 810 434 810 555 l 810 289 z "},"÷":{"ha":925,"x_min":58,"x_max":810,"o":"m 373 894 q 360 907 373 894 q 347 955 347 920 q 373 1016 347 990 q 434 1042 399 1042 q 495 1016 469 1042 q 521 955 521 990 q 495 894 521 920 q 434 868 469 868 q 373 894 399 868 m 347 319 q 373 380 347 354 q 434 406 399 406 q 495 380 469 406 q 521 319 521 354 q 495 257 521 282 q 434 232 469 232 q 373 257 399 232 q 347 319 347 282 m 810 636 l 810 579 l 58 579 l 58 636 l 810 636 z "},"ø":{"ha":1042,"x_min":115,"x_max":868,"o":"m 868 289 q 767 82 868 164 q 492 0 666 0 q 347 16 415 0 l 307 -58 l 232 -58 l 282 37 q 115 289 115 123 l 115 434 q 215 625 115 556 q 492 694 315 694 q 635 681 571 694 l 674 753 l 753 753 l 704 666 q 828 568 788 623 q 868 434 868 514 l 868 289 m 753 232 l 753 492 q 670 604 753 563 l 378 75 q 492 58 431 58 q 676 109 600 58 q 753 232 753 160 m 319 103 l 605 625 q 492 636 548 636 q 306 599 380 636 q 232 492 232 562 l 232 232 q 319 103 232 153 z "},"ù":{"ha":925,"x_min":58,"x_max":810,"o":"m 317 1042 q 335 1083 317 1066 q 376 1100 353 1100 q 416 1083 399 1100 q 434 1042 434 1066 q 445 965 434 996 q 467 926 456 935 q 491 917 479 917 q 472 854 491 854 q 378 910 438 854 q 317 1042 317 966 m 810 694 q 810 0 810 694 q 745 22 770 0 q 694 45 720 45 q 609 22 692 45 q 434 0 526 0 q 158 82 258 0 q 58 289 58 164 l 58 694 l 174 694 l 174 232 q 250 109 174 160 q 434 58 326 58 q 618 109 543 58 q 694 232 694 160 l 694 694 l 810 694 z "},"ú":{"ha":925,"x_min":58,"x_max":810,"o":"m 549 1042 q 489 910 549 966 q 395 854 429 854 q 376 917 376 854 q 399 926 388 917 q 422 965 411 935 q 434 1042 434 996 q 451 1083 434 1066 q 491 1100 468 1100 q 532 1083 515 1100 q 549 1042 549 1066 m 810 694 q 810 0 810 694 q 745 22 770 0 q 694 45 720 45 q 609 22 692 45 q 434 0 526 0 q 158 82 258 0 q 58 289 58 164 l 58 694 l 174 694 l 174 232 q 250 109 174 160 q 434 58 326 58 q 618 109 543 58 q 694 232 694 160 l 694 694 l 810 694 z "},"û":{"ha":925,"x_min":58,"x_max":810,"o":"m 434 1100 q 511 1052 471 1077 q 574 1013 551 1027 q 625 981 598 998 q 666 955 652 964 q 696 934 680 945 q 719 914 712 922 q 733 897 726 906 q 743 880 741 888 q 747 861 746 871 q 749 840 749 852 q 732 798 749 815 q 692 781 715 781 q 650 798 667 781 q 633 840 633 815 q 624 906 633 890 q 616 916 620 911 q 610 924 613 920 q 600 932 606 928 q 589 941 594 937 q 575 951 585 944 q 558 962 566 958 q 536 975 551 966 q 509 992 521 985 q 475 1013 498 1000 q 434 1038 452 1027 q 378 1004 408 1023 q 335 978 349 986 q 304 959 321 970 q 281 943 288 948 q 267 931 275 939 q 254 919 258 924 q 244 906 250 914 q 235 840 235 890 q 217 798 235 815 q 176 781 199 781 q 132 798 152 781 q 113 840 113 815 q 114 863 113 853 q 122 884 115 873 q 135 903 129 895 q 157 924 141 911 q 188 947 174 937 q 230 974 202 956 q 283 1007 258 991 q 351 1049 308 1023 q 434 1100 395 1076 m 810 694 q 810 0 810 694 q 745 22 770 0 q 694 45 720 45 q 609 22 692 45 q 434 0 526 0 q 158 82 258 0 q 58 289 58 164 l 58 694 l 174 694 l 174 232 q 250 109 174 160 q 434 58 326 58 q 618 109 543 58 q 694 232 694 160 l 694 694 l 810 694 z "},"ü":{"ha":925,"x_min":58,"x_max":810,"o":"m 665 1042 q 706 1025 689 1042 q 723 983 723 1008 q 706 943 723 960 q 665 926 689 926 q 625 943 642 926 q 608 983 608 960 q 625 1025 608 1008 q 665 1042 642 1042 m 161 1025 q 170 1033 161 1025 q 202 1042 179 1042 q 243 1025 225 1042 q 260 983 260 1008 q 243 943 260 960 q 202 926 225 926 q 161 943 179 926 q 144 983 144 960 q 161 1025 144 1008 m 810 694 q 810 0 810 694 q 745 22 770 0 q 694 45 720 45 q 609 22 692 45 q 434 0 526 0 q 158 82 258 0 q 58 289 58 164 l 58 694 l 174 694 l 174 232 q 250 109 174 160 q 434 58 326 58 q 618 109 543 58 q 694 232 694 160 l 694 694 l 810 694 z "},"ý":{"ha":925,"x_min":58,"x_max":810,"o":"m 549 1042 q 489 910 549 966 q 395 854 429 854 q 376 917 376 854 q 399 926 388 917 q 422 965 411 935 q 434 1042 434 996 q 451 1083 434 1066 q 491 1100 468 1100 q 532 1083 515 1100 q 549 1042 549 1066 m 810 694 l 810 0 q 709 -207 810 -125 q 434 -289 608 -289 q 210 -242 304 -289 q 65 -115 117 -195 l 164 -115 q 273 -199 197 -165 q 434 -232 350 -232 q 618 -181 541 -232 q 694 -58 694 -130 l 694 58 q 434 0 581 0 q 158 83 258 0 q 58 290 58 165 l 58 694 l 174 694 l 174 233 q 250 109 174 160 q 434 58 326 58 q 618 109 543 58 q 694 233 694 160 l 694 694 l 810 694 z "},"þ":{"ha":925,"x_min":58,"x_max":810,"o":"m 174 1042 l 174 648 q 434 694 285 694 q 711 625 613 694 q 810 434 810 555 l 810 289 q 709 82 810 164 q 434 0 608 0 q 174 58 288 0 l 174 -289 l 58 -289 l 58 1042 l 174 1042 m 694 232 l 694 492 q 621 599 694 562 q 434 636 547 636 q 248 599 321 636 q 174 492 174 562 l 174 232 q 250 109 174 160 q 434 58 326 58 q 618 109 543 58 q 694 232 694 160 z "},"ÿ":{"ha":925,"x_min":58,"x_max":810,"o":"m 665 1042 q 706 1025 689 1042 q 723 983 723 1008 q 706 943 723 960 q 665 926 689 926 q 625 943 642 926 q 608 983 608 960 q 625 1025 608 1008 q 665 1042 642 1042 m 161 1025 q 170 1033 161 1025 q 202 1042 179 1042 q 243 1025 225 1042 q 260 983 260 1008 q 243 943 260 960 q 202 926 225 926 q 161 943 179 926 q 144 983 144 960 q 161 1025 144 1008 m 810 694 l 810 0 q 709 -207 810 -125 q 434 -289 608 -289 q 210 -242 304 -289 q 65 -115 117 -195 l 164 -115 q 273 -199 197 -165 q 434 -232 350 -232 q 618 -181 541 -232 q 694 -58 694 -130 l 694 58 q 434 0 581 0 q 158 83 258 0 q 58 290 58 165 l 58 694 l 174 694 l 174 233 q 250 109 174 160 q 434 58 326 58 q 618 109 543 58 q 694 233 694 160 l 694 694 l 810 694 z "},"Ā":{"ha":925,"x_min":57,"x_max":810,"o":"m 810 1215 l 810 1157 l 57 1157 l 57 1215 l 810 1215 m 810 0 l 694 0 l 694 579 l 174 579 l 174 0 l 58 0 l 58 781 q 157 972 58 903 q 434 1042 256 1042 q 711 972 613 1042 q 810 781 810 902 l 810 0 m 174 636 l 694 636 l 694 840 q 621 946 694 909 q 434 983 547 983 q 248 946 321 983 q 174 840 174 909 l 174 636 z "},"ā":{"ha":925,"x_min":58,"x_max":811,"o":"m 810 985 l 810 926 l 150 926 l 150 985 l 810 985 m 810 0 q 745 22 770 0 q 694 45 720 45 q 609 22 692 45 q 434 0 526 0 q 159 82 260 0 q 58 275 58 164 q 151 388 58 362 q 434 406 214 406 l 694 406 l 694 492 q 621 599 694 562 q 434 636 547 636 q 210 571 277 636 l 146 635 q 433 694 262 694 q 711 625 613 694 q 810 434 810 555 l 810 0 m 694 347 l 434 347 q 332 342 376 347 q 251 326 289 338 q 193 290 213 313 q 174 232 174 266 q 250 109 174 160 q 434 58 326 58 q 618 109 543 58 q 694 232 694 160 l 694 347 z "},"Ă":{"ha":925,"x_min":58,"x_max":810,"o":"m 437 1099 q 307 1128 369 1099 q 203 1199 244 1157 q 139 1284 163 1241 q 115 1359 115 1328 q 135 1400 115 1383 q 179 1417 155 1417 q 220 1400 202 1417 q 237 1359 237 1383 q 235 1326 237 1351 q 232 1293 232 1302 q 294 1200 232 1253 q 437 1147 355 1147 q 578 1201 517 1147 q 640 1293 640 1255 q 638 1326 640 1302 q 636 1359 636 1351 q 653 1400 636 1383 q 694 1417 670 1417 q 734 1400 718 1417 q 751 1359 751 1383 q 657 1193 751 1287 q 437 1099 563 1099 m 810 0 l 694 0 l 694 579 l 174 579 l 174 0 l 58 0 l 58 781 q 157 972 58 903 q 434 1042 256 1042 q 711 972 613 1042 q 810 781 810 902 l 810 0 m 174 636 l 694 636 l 694 840 q 621 946 694 909 q 434 983 547 983 q 248 946 321 983 q 174 840 174 909 l 174 636 z "},"ă":{"ha":925,"x_min":58,"x_max":810,"o":"m 467 781 q 336 810 399 781 q 233 882 274 840 q 169 967 193 924 q 145 1042 145 1010 q 165 1083 145 1066 q 209 1100 184 1100 q 250 1083 232 1100 q 267 1042 267 1066 q 264 1009 267 1034 q 262 975 262 985 q 323 883 262 936 q 467 830 385 830 q 608 884 547 830 q 670 975 670 937 q 668 1009 670 985 q 666 1042 666 1034 q 683 1083 666 1066 q 724 1100 700 1100 q 764 1083 747 1100 q 781 1042 781 1066 q 687 876 781 970 q 467 781 593 781 m 810 0 q 745 22 770 0 q 694 45 720 45 q 609 22 692 45 q 434 0 526 0 q 159 82 260 0 q 58 275 58 164 q 151 388 58 362 q 434 406 214 406 l 694 406 l 694 492 q 621 599 694 562 q 434 636 547 636 q 210 571 277 636 l 146 635 q 433 694 262 694 q 711 625 613 694 q 810 434 810 555 l 810 0 m 694 347 l 434 347 q 332 342 376 347 q 251 326 289 338 q 193 290 213 313 q 174 232 174 266 q 250 109 174 160 q 434 58 326 58 q 618 109 543 58 q 694 232 694 160 l 694 347 z "},"Ą":{"ha":925,"x_min":58,"x_max":810,"o":"m 666 -172 q 642 -218 666 -205 q 593 -232 618 -232 q 563 -228 578 -232 q 534 -210 548 -224 q 521 -172 521 -195 q 528 -107 521 -130 q 563 -41 536 -84 q 634 30 590 1 q 694 58 678 58 l 694 579 l 174 579 l 174 0 l 58 0 l 58 781 q 157 972 58 903 q 434 1042 256 1042 q 711 972 613 1042 q 810 781 810 902 l 810 0 l 694 0 q 650 -20 678 0 q 623 -73 623 -41 q 644 -121 623 -91 q 666 -172 666 -151 m 174 636 l 694 636 l 694 840 q 621 946 694 909 q 434 983 547 983 q 248 946 321 983 q 174 840 174 909 l 174 636 z "},"ą":{"ha":925,"x_min":58,"x_max":810,"o":"m 753 -172 q 729 -218 753 -205 q 680 -232 705 -232 q 650 -228 665 -232 q 621 -210 635 -224 q 608 -172 608 -195 q 650 -41 608 -102 q 728 37 684 8 q 694 45 712 45 q 609 22 692 45 q 434 0 526 0 q 159 82 260 0 q 58 275 58 164 q 151 388 58 362 q 434 406 214 406 l 694 406 l 694 492 q 621 599 694 562 q 434 636 547 636 q 210 571 277 636 l 146 635 q 433 694 262 694 q 711 625 613 694 q 810 434 810 555 l 810 0 l 781 0 q 737 -20 765 0 q 709 -73 709 -41 q 731 -121 709 -91 q 753 -172 753 -151 m 694 347 l 434 347 q 332 342 376 347 q 251 326 289 338 q 193 290 213 313 q 174 232 174 266 q 250 109 174 160 q 434 58 326 58 q 618 109 543 58 q 694 232 694 160 l 694 347 z "},"Ć":{"ha":925,"x_min":58,"x_max":810,"o":"m 559 1389 q 498 1257 559 1313 q 404 1202 438 1202 q 385 1264 385 1202 q 409 1273 397 1264 q 432 1312 420 1282 q 444 1389 444 1343 q 460 1430 444 1413 q 500 1447 477 1447 q 542 1430 525 1447 q 559 1389 559 1413 m 810 840 l 723 840 q 637 945 723 907 q 434 983 551 983 q 248 946 321 983 q 174 840 174 909 l 174 232 q 250 109 174 160 q 434 58 326 58 q 634 110 545 58 q 723 232 723 161 l 810 232 q 694 70 802 140 q 434 0 587 0 q 158 82 258 0 q 58 289 58 164 l 58 781 q 157 972 58 903 q 434 1042 256 1042 q 701 986 595 1042 q 810 840 806 930 z "},"ć":{"ha":925,"x_min":58,"x_max":810,"o":"m 579 1042 q 519 910 579 966 q 425 854 458 854 q 406 917 406 854 q 429 926 418 917 q 452 965 441 935 q 464 1042 464 996 q 481 1083 464 1066 q 521 1100 498 1100 q 562 1083 545 1100 q 579 1042 579 1066 m 810 492 l 694 492 q 621 599 694 562 q 434 636 547 636 q 248 599 321 636 q 174 492 174 562 l 174 232 q 250 109 174 160 q 434 58 326 58 q 618 109 543 58 q 694 232 694 160 l 810 232 q 682 64 777 127 q 434 0 586 0 q 158 82 258 0 q 58 289 58 164 l 58 434 q 157 625 58 556 q 434 694 256 694 q 810 492 751 694 z "},"Ĉ":{"ha":925,"x_min":58,"x_max":810,"o":"m 434 1419 q 511 1371 471 1396 q 574 1331 551 1345 q 625 1300 598 1317 q 666 1274 652 1283 q 696 1253 680 1264 q 719 1233 712 1241 q 733 1216 726 1225 q 743 1198 741 1207 q 747 1180 746 1190 q 749 1158 749 1171 q 732 1117 749 1134 q 692 1100 715 1100 q 650 1117 667 1100 q 633 1158 633 1134 q 624 1225 633 1208 q 616 1234 620 1230 q 610 1242 613 1238 q 600 1251 606 1246 q 589 1259 594 1256 q 575 1270 585 1263 q 558 1280 566 1276 q 536 1294 551 1284 q 509 1311 521 1303 q 475 1332 498 1318 q 434 1356 452 1345 q 378 1323 408 1341 q 335 1297 349 1305 q 304 1278 321 1289 q 281 1262 288 1267 q 267 1250 275 1257 q 254 1238 258 1242 q 244 1225 250 1233 q 235 1158 235 1208 q 217 1117 235 1134 q 176 1100 199 1100 q 132 1117 152 1100 q 113 1158 113 1134 q 114 1182 113 1172 q 122 1203 115 1192 q 135 1222 129 1214 q 157 1243 141 1230 q 188 1265 174 1256 q 230 1293 202 1275 q 283 1326 258 1310 q 351 1368 308 1341 q 434 1419 395 1394 m 810 840 l 723 840 q 637 945 723 907 q 434 983 551 983 q 248 946 321 983 q 174 840 174 909 l 174 232 q 250 109 174 160 q 434 58 326 58 q 634 110 545 58 q 723 232 723 161 l 810 232 q 694 70 802 140 q 434 0 587 0 q 158 82 258 0 q 58 289 58 164 l 58 781 q 157 972 58 903 q 434 1042 256 1042 q 701 986 595 1042 q 810 840 806 930 z "},"ĉ":{"ha":925,"x_min":58,"x_max":810,"o":"m 429 1096 q 505 1048 465 1073 q 569 1008 545 1023 q 620 977 593 994 q 661 951 647 960 q 690 930 674 941 q 713 910 707 918 q 728 893 720 902 q 738 876 735 884 q 742 857 741 867 q 743 836 743 848 q 726 794 743 811 q 686 777 709 777 q 645 794 662 777 q 628 836 628 811 q 618 902 628 886 q 611 911 614 907 q 604 920 608 916 q 595 928 601 924 q 584 937 589 933 q 570 947 579 940 q 553 958 560 954 q 530 971 545 962 q 504 988 515 981 q 469 1009 492 996 q 429 1034 446 1023 q 373 1000 403 1019 q 330 974 343 982 q 299 955 316 966 q 276 939 282 944 q 261 927 270 935 q 248 915 252 920 q 239 902 244 910 q 229 836 229 886 q 212 794 229 811 q 171 777 194 777 q 127 794 146 777 q 107 836 107 811 q 109 859 107 849 q 117 880 110 869 q 130 899 123 891 q 152 920 136 907 q 182 943 168 933 q 224 970 197 952 q 277 1003 252 987 q 346 1045 302 1019 q 429 1096 389 1072 m 810 492 l 694 492 q 621 599 694 562 q 434 636 547 636 q 248 599 321 636 q 174 492 174 562 l 174 232 q 250 109 174 160 q 434 58 326 58 q 618 109 543 58 q 694 232 694 160 l 810 232 q 682 64 777 127 q 434 0 586 0 q 158 82 258 0 q 58 289 58 164 l 58 434 q 157 625 58 556 q 434 694 256 694 q 810 492 751 694 z "},"Ċ":{"ha":925,"x_min":58,"x_max":810,"o":"m 434 1298 q 474 1281 457 1298 q 491 1240 491 1264 q 474 1200 491 1217 q 434 1183 457 1183 q 393 1200 410 1183 q 376 1240 376 1217 q 393 1281 376 1264 q 434 1298 410 1298 m 810 840 l 723 840 q 637 945 723 907 q 434 983 551 983 q 248 946 321 983 q 174 840 174 909 l 174 232 q 250 109 174 160 q 434 58 326 58 q 634 110 545 58 q 723 232 723 161 l 810 232 q 694 70 802 140 q 434 0 587 0 q 158 82 258 0 q 58 289 58 164 l 58 781 q 157 972 58 903 q 434 1042 256 1042 q 701 986 595 1042 q 810 840 806 930 z "},"ċ":{"ha":925,"x_min":58,"x_max":810,"o":"m 434 1042 q 474 1025 457 1042 q 491 983 491 1008 q 474 943 491 960 q 434 926 457 926 q 393 943 410 926 q 376 983 376 960 q 393 1025 376 1008 q 434 1042 410 1042 m 810 492 l 694 492 q 621 599 694 562 q 434 636 547 636 q 248 599 321 636 q 174 492 174 562 l 174 232 q 250 109 174 160 q 434 58 326 58 q 618 109 543 58 q 694 232 694 160 l 810 232 q 682 64 777 127 q 434 0 586 0 q 158 82 258 0 q 58 289 58 164 l 58 434 q 157 625 58 556 q 434 694 256 694 q 810 492 751 694 z "},"Č":{"ha":925,"x_min":58,"x_max":810,"o":"m 434 1099 q 351 1149 395 1123 q 283 1192 308 1176 q 230 1225 258 1207 q 188 1252 202 1242 q 157 1274 174 1261 q 135 1295 141 1287 q 122 1314 129 1303 q 114 1335 115 1325 q 113 1359 113 1345 q 132 1400 113 1383 q 176 1417 152 1417 q 217 1400 199 1417 q 235 1359 235 1383 q 244 1293 235 1309 q 254 1280 250 1284 q 267 1267 258 1275 q 281 1255 275 1260 q 304 1240 288 1251 q 335 1221 321 1229 q 378 1194 349 1213 q 434 1161 408 1176 q 475 1185 452 1172 q 509 1206 498 1199 q 536 1223 521 1214 q 558 1237 551 1233 q 575 1248 566 1241 q 589 1258 585 1255 q 600 1266 594 1261 q 610 1275 606 1271 q 616 1283 613 1279 q 624 1293 620 1287 q 633 1359 633 1309 q 650 1400 633 1383 q 692 1417 667 1417 q 732 1400 715 1417 q 749 1359 749 1383 q 747 1337 749 1347 q 743 1319 746 1328 q 733 1301 741 1310 q 719 1284 726 1293 q 696 1265 712 1276 q 666 1244 680 1253 q 625 1217 652 1234 q 574 1186 598 1200 q 511 1147 551 1172 q 434 1099 471 1122 m 810 840 l 723 840 q 637 945 723 907 q 434 983 551 983 q 248 946 321 983 q 174 840 174 909 l 174 232 q 250 109 174 160 q 434 58 326 58 q 634 110 545 58 q 723 232 723 161 l 810 232 q 694 70 802 140 q 434 0 587 0 q 158 82 258 0 q 58 289 58 164 l 58 781 q 157 972 58 903 q 434 1042 256 1042 q 701 986 595 1042 q 810 840 806 930 z "},"č":{"ha":925,"x_min":58,"x_max":810,"o":"m 429 781 q 346 832 389 806 q 277 874 302 859 q 224 907 252 890 q 182 935 197 925 q 152 957 168 944 q 130 978 136 970 q 117 997 123 986 q 109 1018 110 1008 q 107 1042 107 1028 q 127 1083 107 1066 q 171 1100 146 1100 q 212 1083 194 1100 q 229 1042 229 1066 q 239 975 229 991 q 248 962 244 967 q 261 950 252 958 q 276 938 270 943 q 299 922 282 933 q 330 903 316 911 q 373 877 343 895 q 429 844 403 859 q 469 868 446 854 q 504 889 492 882 q 530 906 515 897 q 553 920 545 916 q 570 930 560 924 q 584 941 579 937 q 595 949 589 944 q 604 958 601 954 q 611 966 608 962 q 618 975 614 970 q 628 1042 628 991 q 645 1083 628 1066 q 686 1100 662 1100 q 726 1083 709 1100 q 743 1042 743 1066 q 742 1020 743 1029 q 738 1002 741 1010 q 728 984 735 993 q 713 967 720 975 q 690 947 707 959 q 661 926 674 936 q 620 900 647 917 q 569 869 593 883 q 505 829 545 854 q 429 781 465 804 m 810 492 l 694 492 q 621 599 694 562 q 434 636 547 636 q 248 599 321 636 q 174 492 174 562 l 174 232 q 250 109 174 160 q 434 58 326 58 q 618 109 543 58 q 694 232 694 160 l 810 232 q 682 64 777 127 q 434 0 586 0 q 158 82 258 0 q 58 289 58 164 l 58 434 q 157 625 58 556 q 434 694 256 694 q 810 492 751 694 z "},"Ď":{"ha":925,"x_min":58,"x_max":810,"o":"m 434 1099 q 351 1149 395 1123 q 283 1192 308 1176 q 230 1225 258 1207 q 188 1252 202 1242 q 157 1274 174 1261 q 135 1295 141 1287 q 122 1314 129 1303 q 114 1335 115 1325 q 113 1359 113 1345 q 132 1400 113 1383 q 176 1417 152 1417 q 217 1400 199 1417 q 235 1359 235 1383 q 244 1293 235 1309 q 254 1280 250 1284 q 267 1267 258 1275 q 281 1255 275 1260 q 304 1240 288 1251 q 335 1221 321 1229 q 378 1194 349 1213 q 434 1161 408 1176 q 475 1185 452 1172 q 509 1206 498 1199 q 536 1223 521 1214 q 558 1237 551 1233 q 575 1248 566 1241 q 589 1258 585 1255 q 600 1266 594 1261 q 610 1275 606 1271 q 616 1283 613 1279 q 624 1293 620 1287 q 633 1359 633 1309 q 650 1400 633 1383 q 692 1417 667 1417 q 732 1400 715 1417 q 749 1359 749 1383 q 747 1337 749 1347 q 743 1319 746 1328 q 733 1301 741 1310 q 719 1284 726 1293 q 696 1265 712 1276 q 666 1244 680 1253 q 625 1217 652 1234 q 574 1186 598 1200 q 511 1147 551 1172 q 434 1099 471 1122 m 810 289 q 709 82 810 164 q 434 0 608 0 l 58 0 l 58 1042 q 434 1042 58 1042 q 711 972 613 1042 q 810 781 810 902 l 810 289 m 694 232 l 694 840 q 621 946 694 909 q 434 983 547 983 q 363 983 387 983 q 304 980 340 982 q 249 972 267 978 q 210 956 231 966 q 182 928 190 945 q 174 888 174 911 l 174 153 q 182 113 174 130 q 210 86 190 96 q 249 70 231 76 q 304 62 267 64 q 363 59 340 60 q 434 58 387 58 q 618 109 543 58 q 694 232 694 160 z "},"ď":{"ha":1128,"x_min":58,"x_max":1072,"o":"m 1072 983 q 1002 852 1072 907 q 898 796 933 796 l 898 859 q 922 867 910 859 q 944 907 933 876 q 955 983 955 937 q 972 1025 955 1008 q 1013 1042 990 1042 q 1054 1025 1036 1042 q 1072 983 1072 1008 m 810 1042 l 810 0 q 750 22 773 0 q 694 45 727 45 q 584 22 650 45 q 434 0 518 0 q 158 82 258 0 q 58 289 58 164 l 58 434 q 157 625 58 556 q 434 694 256 694 q 694 636 581 694 l 694 1042 l 810 1042 m 694 232 l 694 492 q 621 599 694 562 q 434 636 547 636 q 248 599 321 636 q 174 492 174 562 l 174 232 q 250 109 174 160 q 434 58 326 58 q 618 109 543 58 q 694 232 694 160 z "},"Đ":{"ha":925,"x_min":0,"x_max":810,"o":"m 694 232 l 694 840 q 621 946 694 909 q 434 983 547 983 q 363 983 387 983 q 304 980 340 982 q 249 972 267 978 q 210 956 231 966 q 182 928 190 945 q 174 888 174 911 l 174 636 l 406 636 l 406 579 l 174 579 l 174 153 q 182 113 174 130 q 210 86 190 96 q 249 70 231 76 q 304 62 267 64 q 363 59 340 60 q 434 58 387 58 q 618 109 543 58 q 694 232 694 160 m 810 289 q 709 82 810 164 q 434 0 608 0 l 58 0 l 58 579 l 0 579 l 0 636 l 58 636 l 58 1042 l 434 1042 q 711 972 613 1042 q 810 781 810 902 l 810 289 z "},"đ":{"ha":983,"x_min":58,"x_max":868,"o":"m 694 232 l 694 492 q 621 599 694 562 q 434 636 547 636 q 248 599 321 636 q 174 492 174 562 l 174 232 q 250 109 174 160 q 434 58 326 58 q 618 109 543 58 q 694 232 694 160 m 810 0 q 753 5 773 0 q 730 16 734 9 q 725 28 726 22 q 718 40 724 35 q 694 45 712 45 q 584 22 650 45 q 434 0 518 0 q 158 82 258 0 q 58 289 58 164 l 58 434 q 157 625 58 556 q 434 694 256 694 q 694 636 581 694 l 694 810 l 347 810 l 347 868 l 694 868 l 694 1042 l 810 1042 l 810 868 l 868 868 l 868 810 l 810 810 l 810 0 z "},"Ē":{"ha":925,"x_min":57,"x_max":810,"o":"m 810 1215 l 810 1157 l 57 1157 l 57 1215 l 810 1215 m 810 1042 l 810 983 l 347 983 q 279 981 301 983 q 227 971 256 979 q 186 943 198 963 q 174 888 174 922 l 174 636 l 636 636 l 636 579 l 174 579 l 174 153 q 186 99 174 119 q 227 71 198 79 q 279 60 256 62 q 347 58 301 58 l 810 58 l 810 0 l 58 0 l 58 1042 l 810 1042 z "},"ē":{"ha":925,"x_min":57,"x_max":810,"o":"m 810 985 l 810 926 l 57 926 l 57 985 l 810 985 m 810 347 l 174 347 l 174 232 q 250 109 174 160 q 434 58 326 58 q 602 92 519 58 q 718 174 685 125 l 796 174 q 434 0 682 0 q 158 82 258 0 q 58 289 58 164 l 58 434 q 157 625 58 556 q 434 694 256 694 q 710 612 610 694 q 810 406 810 530 l 810 347 m 174 406 l 694 406 l 694 492 q 621 599 694 562 q 434 636 547 636 q 248 599 321 636 q 174 492 174 562 l 174 406 z "},"Ĕ":{"ha":925,"x_min":58,"x_max":810,"o":"m 495 1099 q 365 1128 427 1099 q 262 1199 302 1157 q 197 1284 221 1241 q 174 1359 174 1328 q 193 1400 174 1383 q 237 1417 213 1417 q 278 1400 260 1417 q 296 1359 296 1383 q 293 1326 296 1351 q 290 1293 290 1302 q 352 1200 290 1253 q 495 1147 414 1147 q 637 1201 575 1147 q 699 1293 699 1255 q 696 1326 699 1302 q 694 1359 694 1351 q 711 1400 694 1383 q 753 1417 728 1417 q 793 1400 776 1417 q 810 1359 810 1383 q 715 1193 810 1287 q 495 1099 621 1099 m 810 1042 l 810 983 l 347 983 q 279 981 301 983 q 227 971 256 979 q 186 943 198 963 q 174 888 174 922 l 174 636 l 636 636 l 636 579 l 174 579 l 174 153 q 186 99 174 119 q 227 71 198 79 q 279 60 256 62 q 347 58 301 58 l 810 58 l 810 0 l 58 0 l 58 1042 l 810 1042 z "},"ĕ":{"ha":925,"x_min":58,"x_max":810,"o":"m 437 781 q 307 810 369 781 q 203 882 244 840 q 139 967 163 924 q 115 1042 115 1010 q 135 1083 115 1066 q 179 1100 155 1100 q 220 1083 202 1100 q 237 1042 237 1066 q 235 1009 237 1034 q 232 975 232 985 q 294 883 232 936 q 437 830 355 830 q 578 884 517 830 q 640 975 640 937 q 638 1009 640 985 q 636 1042 636 1034 q 653 1083 636 1066 q 694 1100 670 1100 q 734 1083 718 1100 q 751 1042 751 1066 q 657 876 751 970 q 437 781 563 781 m 810 347 l 174 347 l 174 232 q 250 109 174 160 q 434 58 326 58 q 602 92 519 58 q 718 174 685 125 l 796 174 q 434 0 682 0 q 158 82 258 0 q 58 289 58 164 l 58 434 q 157 625 58 556 q 434 694 256 694 q 710 612 610 694 q 810 406 810 530 l 810 347 m 174 406 l 694 406 l 694 492 q 621 599 694 562 q 434 636 547 636 q 248 599 321 636 q 174 492 174 562 l 174 406 z "},"Ė":{"ha":925,"x_min":58,"x_max":810,"o":"m 492 1298 q 532 1281 515 1298 q 549 1240 549 1264 q 532 1200 549 1217 q 492 1183 515 1183 q 451 1200 468 1183 q 434 1240 434 1217 q 451 1281 434 1264 q 492 1298 468 1298 m 810 1042 l 810 983 l 347 983 q 279 981 301 983 q 227 971 256 979 q 186 943 198 963 q 174 888 174 922 l 174 636 l 636 636 l 636 579 l 174 579 l 174 153 q 186 99 174 119 q 227 71 198 79 q 279 60 256 62 q 347 58 301 58 l 810 58 l 810 0 l 58 0 l 58 1042 l 810 1042 z "},"ė":{"ha":925,"x_min":58,"x_max":810,"o":"m 434 1042 q 474 1025 457 1042 q 491 983 491 1008 q 474 943 491 960 q 434 926 457 926 q 393 943 410 926 q 376 983 376 960 q 393 1025 376 1008 q 434 1042 410 1042 m 810 347 l 174 347 l 174 232 q 250 109 174 160 q 434 58 326 58 q 602 92 519 58 q 718 174 685 125 l 796 174 q 434 0 682 0 q 158 82 258 0 q 58 289 58 164 l 58 434 q 157 625 58 556 q 434 694 256 694 q 710 612 610 694 q 810 406 810 530 l 810 347 m 174 406 l 694 406 l 694 492 q 621 599 694 562 q 434 636 547 636 q 248 599 321 636 q 174 492 174 562 l 174 406 z "},"Ę":{"ha":925,"x_min":58,"x_max":810,"o":"m 709 -179 q 686 -226 709 -213 q 636 -239 662 -239 q 564 -179 564 -239 q 572 -114 564 -137 q 606 -47 579 -91 q 647 0 617 -30 l 58 0 l 58 1042 l 810 1042 l 810 983 l 347 983 q 279 981 301 983 q 227 971 256 979 q 186 943 198 963 q 174 888 174 922 l 174 636 l 636 636 l 636 579 l 174 579 l 174 153 q 186 99 174 119 q 227 71 198 79 q 279 60 256 62 q 347 58 301 58 l 810 58 l 810 0 l 732 0 q 690 -28 713 -5 q 666 -81 666 -52 q 688 -127 666 -98 q 709 -179 709 -157 z "},"ę":{"ha":925,"x_min":58,"x_max":810,"o":"m 796 174 q 610 28 728 71 q 570 -22 590 11 q 549 -81 549 -54 q 571 -127 549 -98 q 593 -179 593 -157 q 570 -226 593 -213 q 521 -239 547 -239 q 449 -179 449 -239 q 456 -117 449 -140 q 491 -47 464 -95 q 528 7 507 -19 q 434 0 480 0 q 158 82 258 0 q 58 289 58 164 l 58 434 q 157 625 58 556 q 434 694 256 694 q 710 612 610 694 q 810 406 810 530 l 810 347 l 174 347 l 174 232 q 250 109 174 160 q 434 58 326 58 q 602 92 519 58 q 718 174 685 125 l 796 174 m 174 406 l 694 406 l 694 492 q 621 599 694 562 q 434 636 547 636 q 248 599 321 636 q 174 492 174 562 l 174 406 z "},"Ě":{"ha":925,"x_min":58,"x_max":810,"o":"m 434 1099 q 351 1149 395 1123 q 283 1192 308 1176 q 230 1225 258 1207 q 188 1252 202 1242 q 157 1274 174 1261 q 135 1295 141 1287 q 122 1314 129 1303 q 114 1335 115 1325 q 113 1359 113 1345 q 132 1400 113 1383 q 176 1417 152 1417 q 217 1400 199 1417 q 235 1359 235 1383 q 244 1293 235 1309 q 254 1280 250 1284 q 267 1267 258 1275 q 281 1255 275 1260 q 304 1240 288 1251 q 335 1221 321 1229 q 378 1194 349 1213 q 434 1161 408 1176 q 475 1185 452 1172 q 509 1206 498 1199 q 536 1223 521 1214 q 558 1237 551 1233 q 575 1248 566 1241 q 589 1258 585 1255 q 600 1266 594 1261 q 610 1275 606 1271 q 616 1283 613 1279 q 624 1293 620 1287 q 633 1359 633 1309 q 650 1400 633 1383 q 692 1417 667 1417 q 732 1400 715 1417 q 749 1359 749 1383 q 747 1337 749 1347 q 743 1319 746 1328 q 733 1301 741 1310 q 719 1284 726 1293 q 696 1265 712 1276 q 666 1244 680 1253 q 625 1217 652 1234 q 574 1186 598 1200 q 511 1147 551 1172 q 434 1099 471 1122 m 810 1042 l 810 983 l 347 983 q 279 981 301 983 q 227 971 256 979 q 186 943 198 963 q 174 888 174 922 l 174 636 l 636 636 l 636 579 l 174 579 l 174 153 q 186 99 174 119 q 227 71 198 79 q 279 60 256 62 q 347 58 301 58 l 810 58 l 810 0 l 58 0 l 58 1042 l 810 1042 z "},"ě":{"ha":925,"x_min":58,"x_max":810,"o":"m 431 781 q 349 832 392 806 q 280 874 305 859 q 227 907 255 890 q 185 935 199 925 q 155 957 171 944 q 132 978 138 970 q 119 997 126 986 q 111 1018 113 1008 q 110 1042 110 1028 q 130 1083 110 1066 q 174 1100 149 1100 q 214 1083 197 1100 q 232 1042 232 1066 q 241 975 232 991 q 251 962 247 967 q 264 950 255 958 q 279 938 273 943 q 302 922 285 933 q 332 903 319 911 q 376 877 346 895 q 431 844 406 859 q 472 868 449 854 q 507 889 495 882 q 533 906 518 897 q 555 920 548 916 q 572 930 563 924 q 587 941 582 937 q 597 949 591 944 q 607 958 604 954 q 614 966 610 962 q 621 975 617 970 q 631 1042 631 991 q 648 1083 631 1066 q 689 1100 665 1100 q 729 1083 712 1100 q 746 1042 746 1066 q 745 1020 746 1029 q 741 1002 743 1010 q 730 984 738 993 q 716 967 723 975 q 693 947 709 959 q 663 926 677 936 q 623 900 650 917 q 572 869 595 883 q 508 829 548 854 q 431 781 468 804 m 810 347 l 174 347 l 174 232 q 250 109 174 160 q 434 58 326 58 q 602 92 519 58 q 718 174 685 125 l 796 174 q 434 0 682 0 q 158 82 258 0 q 58 289 58 164 l 58 434 q 157 625 58 556 q 434 694 256 694 q 710 612 610 694 q 810 406 810 530 l 810 347 m 174 406 l 694 406 l 694 492 q 621 599 694 562 q 434 636 547 636 q 248 599 321 636 q 174 492 174 562 l 174 406 z "},"Ĝ":{"ha":925,"x_min":58,"x_max":810,"o":"m 434 1419 q 511 1371 471 1396 q 574 1331 551 1345 q 625 1300 598 1317 q 666 1274 652 1283 q 696 1253 680 1264 q 719 1233 712 1241 q 733 1216 726 1225 q 743 1198 741 1207 q 747 1180 746 1190 q 749 1158 749 1171 q 732 1117 749 1134 q 692 1100 715 1100 q 650 1117 667 1100 q 633 1158 633 1134 q 624 1225 633 1208 q 616 1234 620 1230 q 610 1242 613 1238 q 600 1251 606 1246 q 589 1259 594 1256 q 575 1270 585 1263 q 558 1280 566 1276 q 536 1294 551 1284 q 509 1311 521 1303 q 475 1332 498 1318 q 434 1356 452 1345 q 378 1323 408 1341 q 335 1297 349 1305 q 304 1278 321 1289 q 281 1262 288 1267 q 267 1250 275 1257 q 254 1238 258 1242 q 244 1225 250 1233 q 235 1158 235 1208 q 217 1117 235 1134 q 176 1100 199 1100 q 132 1117 152 1100 q 113 1158 113 1134 q 114 1182 113 1172 q 122 1203 115 1192 q 135 1222 129 1214 q 157 1243 141 1230 q 188 1265 174 1256 q 230 1293 202 1275 q 283 1326 258 1310 q 351 1368 308 1341 q 434 1419 395 1394 m 810 636 l 810 289 q 709 82 810 164 q 434 0 608 0 q 158 82 258 0 q 58 289 58 164 l 58 781 q 157 972 58 903 q 434 1042 256 1042 q 802 840 741 1042 l 694 840 q 621 946 694 909 q 434 983 547 983 q 248 946 321 983 q 174 840 174 909 l 174 232 q 250 109 174 160 q 434 58 326 58 q 618 109 543 58 q 694 232 694 160 l 694 579 l 463 579 l 463 636 l 810 636 z "},"ĝ":{"ha":925,"x_min":58,"x_max":810,"o":"m 434 1100 q 511 1052 471 1077 q 574 1013 551 1027 q 625 981 598 998 q 666 955 652 964 q 696 934 680 945 q 719 914 712 922 q 733 897 726 906 q 743 880 741 888 q 747 861 746 871 q 749 840 749 852 q 732 798 749 815 q 692 781 715 781 q 650 798 667 781 q 633 840 633 815 q 624 906 633 890 q 616 916 620 911 q 610 924 613 920 q 600 932 606 928 q 589 941 594 937 q 575 951 585 944 q 558 962 566 958 q 536 975 551 966 q 509 992 521 985 q 475 1013 498 1000 q 434 1038 452 1027 q 378 1004 408 1023 q 335 978 349 986 q 304 959 321 970 q 281 943 288 948 q 267 931 275 939 q 254 919 258 924 q 244 906 250 914 q 235 840 235 890 q 217 798 235 815 q 176 781 199 781 q 132 798 152 781 q 113 840 113 815 q 114 863 113 853 q 122 884 115 873 q 135 903 129 895 q 157 924 141 911 q 188 947 174 937 q 230 974 202 956 q 283 1007 258 991 q 351 1049 308 1023 q 434 1100 395 1076 m 694 -58 l 694 58 q 434 0 581 0 q 158 82 258 0 q 58 289 58 164 l 58 434 q 157 625 58 556 q 434 694 256 694 q 711 625 613 694 q 810 434 810 555 l 810 0 q 709 -207 810 -125 q 434 -289 608 -289 q 210 -242 304 -289 q 65 -115 117 -195 l 164 -115 q 273 -199 197 -165 q 434 -232 350 -232 q 618 -181 541 -232 q 694 -58 694 -130 m 694 232 l 694 492 q 621 599 694 562 q 434 636 547 636 q 248 599 321 636 q 174 492 174 562 l 174 232 q 250 109 174 160 q 434 58 326 58 q 618 109 543 58 q 694 232 694 160 z "},"Ğ":{"ha":925,"x_min":58,"x_max":810,"o":"m 437 1099 q 307 1128 369 1099 q 203 1199 244 1157 q 139 1284 163 1241 q 115 1359 115 1328 q 135 1400 115 1383 q 179 1417 155 1417 q 220 1400 202 1417 q 237 1359 237 1383 q 235 1326 237 1351 q 232 1293 232 1302 q 294 1200 232 1253 q 437 1147 355 1147 q 578 1201 517 1147 q 640 1293 640 1255 q 638 1326 640 1302 q 636 1359 636 1351 q 653 1400 636 1383 q 694 1417 670 1417 q 734 1400 718 1417 q 751 1359 751 1383 q 657 1193 751 1287 q 437 1099 563 1099 m 810 636 l 810 289 q 709 82 810 164 q 434 0 608 0 q 158 82 258 0 q 58 289 58 164 l 58 781 q 157 972 58 903 q 434 1042 256 1042 q 802 840 741 1042 l 694 840 q 621 946 694 909 q 434 983 547 983 q 248 946 321 983 q 174 840 174 909 l 174 232 q 250 109 174 160 q 434 58 326 58 q 618 109 543 58 q 694 232 694 160 l 694 579 l 463 579 l 463 636 l 810 636 z "},"ğ":{"ha":925,"x_min":58,"x_max":810,"o":"m 437 781 q 307 810 369 781 q 203 882 244 840 q 139 967 163 924 q 115 1042 115 1010 q 135 1083 115 1066 q 179 1100 155 1100 q 220 1083 202 1100 q 237 1042 237 1066 q 235 1009 237 1034 q 232 975 232 985 q 294 883 232 936 q 437 830 355 830 q 578 884 517 830 q 640 975 640 937 q 638 1009 640 985 q 636 1042 636 1034 q 653 1083 636 1066 q 694 1100 670 1100 q 734 1083 718 1100 q 751 1042 751 1066 q 657 876 751 970 q 437 781 563 781 m 694 -58 l 694 58 q 434 0 581 0 q 158 82 258 0 q 58 289 58 164 l 58 434 q 157 625 58 556 q 434 694 256 694 q 711 625 613 694 q 810 434 810 555 l 810 0 q 709 -207 810 -125 q 434 -289 608 -289 q 210 -242 304 -289 q 65 -115 117 -195 l 164 -115 q 273 -199 197 -165 q 434 -232 350 -232 q 618 -181 541 -232 q 694 -58 694 -130 m 694 232 l 694 492 q 621 599 694 562 q 434 636 547 636 q 248 599 321 636 q 174 492 174 562 l 174 232 q 250 109 174 160 q 434 58 326 58 q 618 109 543 58 q 694 232 694 160 z "},"Ġ":{"ha":925,"x_min":58,"x_max":810,"o":"m 434 1274 q 474 1257 457 1274 q 491 1215 491 1240 q 474 1175 491 1192 q 434 1158 457 1158 q 393 1175 410 1158 q 376 1215 376 1192 q 393 1257 376 1240 q 434 1274 410 1274 m 810 636 l 810 289 q 709 82 810 164 q 434 0 608 0 q 158 82 258 0 q 58 289 58 164 l 58 781 q 157 972 58 903 q 434 1042 256 1042 q 802 840 741 1042 l 694 840 q 621 946 694 909 q 434 983 547 983 q 248 946 321 983 q 174 840 174 909 l 174 232 q 250 109 174 160 q 434 58 326 58 q 618 109 543 58 q 694 232 694 160 l 694 579 l 463 579 l 463 636 l 810 636 z "},"ġ":{"ha":925,"x_min":58,"x_max":810,"o":"m 434 1042 q 474 1025 457 1042 q 491 983 491 1008 q 474 943 491 960 q 434 926 457 926 q 393 943 410 926 q 376 983 376 960 q 393 1025 376 1008 q 434 1042 410 1042 m 694 -58 l 694 58 q 434 0 581 0 q 158 82 258 0 q 58 289 58 164 l 58 434 q 157 625 58 556 q 434 694 256 694 q 711 625 613 694 q 810 434 810 555 l 810 0 q 709 -207 810 -125 q 434 -289 608 -289 q 210 -242 304 -289 q 65 -115 117 -195 l 164 -115 q 273 -199 197 -165 q 434 -232 350 -232 q 618 -181 541 -232 q 694 -58 694 -130 m 694 232 l 694 492 q 621 599 694 562 q 434 636 547 636 q 248 599 321 636 q 174 492 174 562 l 174 232 q 250 109 174 160 q 434 58 326 58 q 618 109 543 58 q 694 232 694 160 z "},"Ģ":{"ha":925,"x_min":58,"x_max":810,"o":"m 521 -102 q 452 -233 521 -178 q 347 -289 382 -289 l 347 -227 q 371 -218 359 -227 q 393 -178 382 -209 q 404 -102 404 -148 q 422 -60 404 -77 q 463 -43 439 -43 q 503 -60 486 -43 q 521 -102 521 -77 m 810 636 l 810 289 q 709 82 810 164 q 434 0 608 0 q 158 82 258 0 q 58 289 58 164 l 58 781 q 157 972 58 903 q 434 1042 256 1042 q 802 840 741 1042 l 694 840 q 621 946 694 909 q 434 983 547 983 q 248 946 321 983 q 174 840 174 909 l 174 232 q 250 109 174 160 q 434 58 326 58 q 618 109 543 58 q 694 232 694 160 l 694 579 l 463 579 l 463 636 l 810 636 z "},"ģ":{"ha":925,"x_min":58,"x_max":810,"o":"m 551 1040 q 481 909 551 964 q 377 853 412 853 l 377 916 q 401 924 389 916 q 423 964 412 933 q 434 1040 434 994 q 452 1082 434 1065 q 492 1099 469 1099 q 533 1082 515 1099 q 551 1040 551 1065 m 694 -58 l 694 58 q 434 0 581 0 q 158 82 258 0 q 58 289 58 164 l 58 434 q 157 625 58 556 q 434 694 256 694 q 711 625 613 694 q 810 434 810 555 l 810 0 q 709 -207 810 -125 q 434 -289 608 -289 q 210 -242 304 -289 q 65 -115 117 -195 l 164 -115 q 273 -199 197 -165 q 434 -232 350 -232 q 618 -181 541 -232 q 694 -58 694 -130 m 694 232 l 694 492 q 621 599 694 562 q 434 636 547 636 q 248 599 321 636 q 174 492 174 562 l 174 232 q 250 109 174 160 q 434 58 326 58 q 618 109 543 58 q 694 232 694 160 z "},"Ĥ":{"ha":925,"x_min":58,"x_max":810,"o":"m 434 1419 q 511 1371 471 1396 q 574 1331 551 1345 q 625 1300 598 1317 q 666 1274 652 1283 q 696 1253 680 1264 q 719 1233 712 1241 q 733 1216 726 1225 q 743 1198 741 1207 q 747 1180 746 1190 q 749 1158 749 1171 q 732 1117 749 1134 q 692 1100 715 1100 q 650 1117 667 1100 q 633 1158 633 1134 q 624 1225 633 1208 q 616 1234 620 1230 q 610 1242 613 1238 q 600 1251 606 1246 q 589 1259 594 1256 q 575 1270 585 1263 q 558 1280 566 1276 q 536 1294 551 1284 q 509 1311 521 1303 q 475 1332 498 1318 q 434 1356 452 1345 q 378 1323 408 1341 q 335 1297 349 1305 q 304 1278 321 1289 q 281 1262 288 1267 q 267 1250 275 1257 q 254 1238 258 1242 q 244 1225 250 1233 q 235 1158 235 1208 q 217 1117 235 1134 q 176 1100 199 1100 q 132 1117 152 1100 q 113 1158 113 1134 q 114 1182 113 1172 q 122 1203 115 1192 q 135 1222 129 1214 q 157 1243 141 1230 q 188 1265 174 1256 q 230 1293 202 1275 q 283 1326 258 1310 q 351 1368 308 1341 q 434 1419 395 1394 m 810 1042 l 810 0 l 694 0 l 694 579 l 174 579 l 174 0 l 58 0 l 58 1042 l 174 1042 l 174 636 l 694 636 l 694 1042 l 810 1042 z "},"ĥ":{"ha":925,"x_min":58,"x_max":810,"o":"m 434 1419 q 511 1371 471 1396 q 574 1331 551 1345 q 625 1300 598 1317 q 666 1274 652 1283 q 696 1253 680 1264 q 719 1233 712 1241 q 733 1216 726 1225 q 743 1198 741 1207 q 747 1180 746 1190 q 749 1158 749 1171 q 732 1117 749 1134 q 692 1100 715 1100 q 650 1117 667 1100 q 633 1158 633 1134 q 624 1225 633 1208 q 616 1234 620 1230 q 610 1242 613 1238 q 600 1251 606 1246 q 589 1259 594 1256 q 575 1270 585 1263 q 558 1280 566 1276 q 536 1294 551 1284 q 509 1311 521 1303 q 475 1332 498 1318 q 434 1356 452 1345 q 378 1323 408 1341 q 335 1297 349 1305 q 304 1278 321 1289 q 281 1262 288 1267 q 267 1250 275 1257 q 254 1238 258 1242 q 244 1225 250 1233 q 235 1158 235 1208 q 217 1117 235 1134 q 176 1100 199 1100 q 132 1117 152 1100 q 113 1158 113 1134 q 114 1182 113 1172 q 122 1203 115 1192 q 135 1222 129 1214 q 157 1243 141 1230 q 188 1265 174 1256 q 230 1293 202 1275 q 283 1326 258 1310 q 351 1368 308 1341 q 434 1419 395 1394 m 174 1042 l 174 648 q 434 694 285 694 q 711 625 613 694 q 810 434 810 555 l 810 0 l 694 0 l 694 492 q 621 599 694 562 q 434 636 547 636 q 248 599 321 636 q 174 492 174 562 l 174 0 l 58 0 l 58 1042 l 174 1042 z "},"Ħ":{"ha":1042,"x_min":58,"x_max":926,"o":"m 868 1042 l 868 868 l 926 868 l 926 810 l 868 810 l 868 0 l 753 0 l 753 579 l 232 579 l 232 0 l 115 0 l 115 810 l 58 810 l 58 868 l 115 868 l 115 1042 l 232 1042 l 232 868 l 753 868 l 753 1042 l 868 1042 m 753 810 l 232 810 l 232 636 l 753 636 l 753 810 z "},"ħ":{"ha":925,"x_min":0,"x_max":810,"o":"m 810 0 l 694 0 l 694 492 q 621 599 694 562 q 434 636 547 636 q 248 599 321 636 q 174 492 174 562 l 174 0 l 58 0 l 58 810 l 0 810 l 0 868 l 58 868 l 58 1042 l 174 1042 l 174 868 l 579 868 l 579 810 l 174 810 l 174 648 q 434 694 285 694 q 711 625 613 694 q 810 434 810 555 l 810 0 z "},"Ĩ":{"ha":289,"x_min":0,"x_max":289,"o":"m 174 1042 l 174 0 l 58 0 l 58 1042 l 174 1042 m 289 1302 q 273 1168 289 1236 q 224 1100 258 1100 q 172 1136 194 1100 q 138 1215 149 1172 q 113 1295 127 1259 q 80 1331 98 1331 q 53 1187 53 1331 l 0 1187 q 17 1320 0 1252 q 66 1389 34 1389 q 122 1353 99 1389 q 155 1273 145 1317 q 179 1193 164 1229 q 212 1157 194 1157 q 237 1302 237 1157 l 289 1302 z "},"ĩ":{"ha":404,"x_min":0,"x_max":391,"o":"m 174 694 l 174 153 q 195 58 174 58 q 347 118 247 58 q 347 57 347 118 q 174 0 255 0 q 58 144 58 0 l 58 694 l 174 694 m 391 1013 q 368 879 391 948 q 302 810 346 810 q 231 846 262 810 q 186 926 201 882 q 149 1006 171 970 q 104 1042 127 1042 q 71 897 71 1042 l 0 897 q 22 1031 0 962 q 87 1100 43 1100 q 162 1064 130 1100 q 208 984 194 1028 q 242 904 222 940 q 285 868 262 868 q 319 1013 319 868 l 391 1013 z "},"Ī":{"ha":289,"x_min":28,"x_max":260,"o":"m 174 1042 l 174 0 l 58 0 l 58 1042 l 174 1042 m 260 1215 l 260 1157 l 28 1157 l 28 1215 l 260 1215 z "},"ī":{"ha":404,"x_min":28,"x_max":347,"o":"m 174 694 l 174 153 q 195 58 174 58 q 347 118 247 58 q 347 57 347 118 q 174 0 255 0 q 58 144 58 0 l 58 694 l 174 694 m 347 983 l 347 926 l 28 926 l 28 983 l 347 983 z "},"Ĭ":{"ha":289,"x_min":-58,"x_max":290,"o":"m 118 1100 q 47 1121 81 1100 q -9 1174 13 1143 q -44 1238 -31 1205 q -57 1293 -57 1270 q -47 1323 -57 1311 q -23 1336 -36 1336 q 0 1323 -10 1336 q 9 1293 9 1311 q 8 1269 9 1287 q 6 1244 6 1251 q 40 1175 6 1214 q 118 1136 73 1136 q 195 1176 161 1136 q 229 1244 229 1215 q 228 1269 229 1251 q 226 1293 226 1287 q 236 1323 226 1311 q 258 1336 245 1336 q 280 1323 271 1336 q 289 1293 289 1311 q 238 1170 289 1240 q 118 1100 187 1100 m 174 1042 l 174 0 l 58 0 l 58 1042 l 174 1042 z "},"ĭ":{"ha":380,"x_min":-28,"x_max":435,"o":"m 205 864 q 111 885 156 864 q 36 938 65 907 q -11 1002 6 969 q -28 1057 -28 1034 q -14 1087 -28 1075 q 18 1100 0 1100 q 48 1087 35 1100 q 60 1057 60 1075 q 58 1033 60 1051 q 56 1008 56 1015 q 101 939 56 978 q 205 900 146 900 q 308 940 264 900 q 353 1008 353 979 q 352 1033 353 1015 q 350 1057 350 1051 q 363 1087 350 1075 q 393 1100 375 1100 q 422 1087 410 1100 q 434 1057 434 1075 q 366 934 434 1004 q 205 864 297 864 m 174 694 l 174 153 q 195 58 174 58 q 347 118 247 58 q 347 57 347 118 q 174 0 255 0 q 58 144 58 0 l 58 694 l 174 694 z "},"Į":{"ha":289,"x_min":0,"x_max":174,"o":"m 145 -172 q 121 -218 145 -205 q 72 -232 98 -232 q 42 -228 57 -232 q 14 -210 27 -224 q 0 -172 0 -195 q 7 -107 0 -130 q 42 -41 15 -84 q 75 0 52 -26 l 58 0 l 58 1042 l 174 1042 l 174 0 q 130 -20 157 0 q 102 -73 102 -41 q 123 -121 102 -91 q 145 -172 145 -151 z "},"į":{"ha":404,"x_min":28,"x_max":347,"o":"m 115 1042 q 157 1025 140 1042 q 174 983 174 1008 q 157 943 174 960 q 115 926 140 926 q 75 943 92 926 q 58 983 58 960 q 75 1025 58 1008 q 115 1042 92 1042 m 174 -172 q 151 -218 174 -205 q 102 -232 127 -232 q 72 -228 87 -232 q 43 -210 57 -224 q 28 -172 28 -195 q 36 -108 28 -130 q 71 -41 43 -85 q 118 12 87 -16 q 58 144 58 41 l 58 694 l 174 694 l 174 153 q 195 58 174 58 q 347 118 247 58 l 347 57 q 195 0 267 8 q 152 -25 174 -5 q 130 -73 130 -45 q 152 -121 130 -91 q 174 -172 174 -151 z "},"İ":{"ha":289,"x_min":58,"x_max":174,"o":"m 117 1274 q 157 1257 140 1274 q 174 1215 174 1240 q 157 1175 174 1192 q 117 1158 140 1158 q 75 1175 92 1158 q 58 1215 58 1192 q 75 1257 58 1240 q 117 1274 92 1274 m 174 1042 l 174 0 l 58 0 l 58 1042 l 174 1042 z "},"ı":{"ha":404,"x_min":58,"x_max":347,"o":"m 174 694 l 174 153 q 195 58 174 58 q 347 118 247 58 q 347 57 347 118 q 174 0 255 0 q 58 144 58 0 l 58 694 l 174 694 z "},"Ĳ":{"ha":636,"x_min":58,"x_max":521,"o":"m 174 1042 l 174 0 l 58 0 l 58 1042 l 174 1042 m 521 1042 l 521 -146 q 406 -289 521 -289 q 289 -277 323 -289 q 289 -214 289 -277 q 384 -232 323 -232 q 406 -136 406 -232 l 406 983 l 289 983 l 289 1042 l 521 1042 z "},"ĳ":{"ha":694,"x_min":58,"x_max":579,"o":"m 115 1042 q 157 1025 140 1042 q 174 983 174 1008 q 157 943 174 960 q 115 926 140 926 q 75 943 92 926 q 58 983 58 960 q 75 1025 58 1008 q 115 1042 92 1042 m 174 694 l 174 153 q 195 58 174 58 q 347 118 247 58 l 347 57 q 174 0 255 0 q 58 144 58 0 l 58 694 l 174 694 m 480 1025 q 489 1033 480 1025 q 521 1042 498 1042 q 562 1025 544 1042 q 579 983 579 1008 q 562 943 579 960 q 521 926 544 926 q 480 943 498 926 q 463 983 463 960 q 480 1025 463 1008 m 579 694 l 579 -146 q 463 -289 579 -289 q 376 -277 410 -289 l 376 -214 q 441 -232 410 -232 q 463 -136 463 -232 l 463 694 l 579 694 z "},"Ĵ":{"ha":404,"x_min":-56,"x_max":404,"o":"m 288 1042 l 288 -146 q 172 -289 288 -289 q 57 -277 92 -289 q 57 -214 57 -277 q 151 -232 91 -232 q 172 -136 172 -232 l 172 983 l 57 983 l 57 1042 l 288 1042 m 176 1416 q 251 1351 210 1386 q 310 1301 292 1316 q 350 1265 328 1286 q 378 1236 372 1245 q 393 1212 385 1226 q 403 1185 401 1198 q 404 1156 404 1173 q 392 1116 404 1133 q 362 1099 380 1099 q 332 1116 345 1099 q 320 1156 320 1133 q 312 1222 320 1207 q 303 1238 308 1232 q 294 1251 298 1245 q 278 1267 290 1257 q 256 1286 266 1278 q 222 1315 247 1294 q 176 1354 197 1336 q 132 1316 156 1336 q 97 1286 107 1295 q 75 1267 87 1278 q 59 1251 64 1257 q 50 1238 54 1245 q 41 1222 45 1232 q 34 1156 34 1207 q 22 1116 34 1133 q -8 1099 9 1099 q -41 1116 -26 1099 q -56 1156 -56 1133 q -51 1192 -56 1176 q -40 1219 -46 1207 q -12 1253 -34 1232 q 28 1289 9 1274 q 92 1343 46 1305 q 176 1416 138 1382 z "},"ĵ":{"ha":347,"x_min":-28,"x_max":369,"o":"m 174 1100 q 312 971 274 1012 q 359 908 350 930 q 369 842 369 886 q 356 796 369 811 q 327 781 343 781 q 297 798 309 781 q 285 840 285 815 q 264 943 285 909 q 174 1038 243 978 q 90 954 106 979 q 58 840 58 909 q 47 798 58 815 q 18 781 35 781 q -14 798 0 781 q -28 840 -28 815 q 0 936 -28 899 q 174 1100 28 972 m 202 694 l 202 -146 q 87 -289 202 -289 q 0 -277 35 -289 l 0 -214 q 65 -232 34 -232 q 87 -136 87 -232 l 87 694 l 202 694 z "},"Ķ":{"ha":925,"x_min":58,"x_max":810,"o":"m 536 -58 q 467 -190 536 -134 q 362 -245 397 -245 l 362 -183 q 386 -174 374 -183 q 408 -135 397 -165 q 419 -58 419 -104 q 437 -17 419 -34 q 477 0 454 0 q 518 -17 500 0 q 536 -58 536 -34 m 810 0 l 694 0 l 694 608 q 608 747 694 694 q 361 799 522 799 l 174 724 l 174 0 l 58 0 l 58 1042 l 174 1042 l 174 791 l 766 1042 l 810 993 l 484 846 q 810 549 810 814 l 810 0 z "},"ķ":{"ha":925,"x_min":58,"x_max":810,"o":"m 536 -58 q 467 -190 536 -134 q 362 -245 397 -245 l 362 -183 q 386 -174 374 -183 q 408 -135 397 -165 q 419 -58 419 -104 q 437 -17 419 -34 q 477 0 454 0 q 518 -17 500 0 q 536 -58 536 -34 m 174 1042 l 174 444 l 766 694 l 810 646 l 507 517 q 728 433 647 496 q 810 275 810 370 l 810 0 l 694 0 l 694 304 q 595 420 694 372 q 384 469 496 469 l 174 377 l 174 0 l 58 0 l 58 1042 l 174 1042 z "},"ĸ":{"ha":925,"x_min":58,"x_max":810,"o":"m 810 0 l 694 0 l 694 304 q 595 420 694 372 q 384 469 496 469 l 174 377 l 174 0 l 58 0 l 58 694 l 174 694 l 174 444 l 766 694 l 810 646 l 507 517 q 728 433 647 496 q 810 275 810 370 l 810 0 z "},"Ĺ":{"ha":751,"x_min":58,"x_max":636,"o":"m 339 1359 q 279 1227 339 1283 q 184 1172 218 1172 q 165 1234 165 1172 q 189 1243 178 1234 q 212 1282 201 1252 q 224 1359 224 1313 q 241 1400 224 1383 q 281 1417 258 1417 q 322 1400 305 1417 q 339 1359 339 1383 m 174 1042 l 174 58 l 636 58 l 636 0 l 174 0 l 58 0 l 58 58 l 58 1042 l 174 1042 z "},"ĺ":{"ha":404,"x_min":58,"x_max":347,"o":"m 319 1359 q 258 1227 319 1283 q 164 1172 198 1172 q 145 1234 145 1172 q 169 1243 157 1234 q 192 1282 180 1252 q 203 1359 203 1313 q 220 1400 203 1383 q 260 1417 237 1417 q 302 1400 285 1417 q 319 1359 319 1383 m 174 1042 l 174 153 q 195 58 174 58 q 347 118 247 58 q 347 57 347 118 q 174 0 255 0 q 58 144 58 0 l 58 1042 l 174 1042 z "},"Ļ":{"ha":751,"x_min":58,"x_max":636,"o":"m 406 -131 q 336 -241 406 -195 q 232 -288 267 -288 l 232 -236 q 256 -228 244 -236 q 278 -195 267 -221 q 289 -131 289 -169 q 307 -96 289 -110 q 347 -82 324 -82 q 388 -96 370 -82 q 406 -131 406 -110 m 174 1042 l 174 58 l 636 58 l 636 0 l 174 0 l 58 0 l 58 58 l 58 1042 l 174 1042 z "},"ļ":{"ha":404,"x_min":58,"x_max":347,"o":"m 290 -131 q 221 -241 290 -195 q 117 -288 152 -288 l 117 -236 q 140 -228 129 -236 q 163 -195 152 -221 q 174 -131 174 -169 q 191 -96 174 -110 q 232 -82 209 -82 q 273 -96 255 -82 q 290 -131 290 -110 m 174 1042 l 174 153 q 195 58 174 58 q 347 118 247 58 q 347 57 347 118 q 174 0 255 0 q 58 144 58 0 l 58 1042 l 174 1042 z "},"Ľ":{"ha":751,"x_min":58,"x_max":636,"o":"m 579 983 q 510 852 579 907 q 406 796 441 796 l 406 859 q 429 867 418 859 q 452 907 441 876 q 463 983 463 937 q 480 1025 463 1008 q 521 1042 498 1042 q 562 1025 544 1042 q 579 983 579 1008 m 174 1042 l 174 58 l 636 58 l 636 0 l 174 0 l 58 0 l 58 58 l 58 1042 l 174 1042 z "},"ľ":{"ha":521,"x_min":58,"x_max":464,"o":"m 464 983 q 395 852 464 907 q 290 796 326 796 l 290 859 q 314 867 302 859 q 336 907 326 876 q 347 983 347 937 q 365 1025 347 1008 q 406 1042 382 1042 q 446 1025 429 1042 q 464 983 464 1008 m 174 1042 l 174 153 q 195 58 174 58 q 347 118 247 58 q 347 57 347 118 q 174 0 255 0 q 58 144 58 0 l 58 1042 l 174 1042 z "},"Ŀ":{"ha":751,"x_min":58,"x_max":636,"o":"m 434 608 q 474 591 457 608 q 491 551 491 574 q 474 509 491 526 q 434 492 457 492 q 393 509 410 492 q 376 551 376 526 q 393 591 376 574 q 434 608 410 608 m 174 1042 l 174 58 l 636 58 l 636 0 l 174 0 l 58 0 l 58 58 l 58 1042 l 174 1042 z "},"ŀ":{"ha":404,"x_min":58,"x_max":404,"o":"m 347 636 q 387 619 370 636 q 404 579 404 602 q 387 538 404 555 q 347 521 370 521 q 306 538 323 521 q 289 579 289 555 q 306 619 289 602 q 347 636 323 636 m 174 1042 l 174 153 q 195 58 174 58 q 347 118 247 58 q 347 57 347 118 q 174 0 255 0 q 58 144 58 0 l 58 1042 l 174 1042 z "},"Ł":{"ha":694,"x_min":58,"x_max":579,"o":"m 174 1042 l 174 570 l 439 734 l 471 685 l 174 502 l 174 58 l 579 58 l 579 0 l 174 0 l 58 0 l 58 58 l 58 1042 l 174 1042 z "},"ł":{"ha":404,"x_min":0,"x_max":347,"o":"m 347 1042 l 347 983 l 174 983 l 174 153 q 195 58 174 58 q 347 118 247 58 q 347 57 347 118 q 174 0 255 0 q 58 144 58 0 l 58 983 l 0 983 l 0 1042 l 347 1042 z "},"Ń":{"ha":925,"x_min":58,"x_max":810,"o":"m 579 1359 q 519 1227 579 1283 q 425 1172 458 1172 q 406 1234 406 1172 q 429 1243 418 1234 q 452 1282 441 1252 q 464 1359 464 1313 q 481 1400 464 1383 q 521 1417 498 1417 q 562 1400 545 1417 q 579 1359 579 1383 m 810 0 l 694 0 l 694 840 q 621 946 694 909 q 434 983 547 983 q 248 946 321 983 q 174 840 174 909 l 174 0 l 58 0 l 58 1042 l 434 1042 q 711 972 613 1042 q 810 781 810 902 l 810 0 z "},"ń":{"ha":925,"x_min":58,"x_max":810,"o":"m 579 1042 q 519 910 579 966 q 425 854 458 854 q 406 917 406 854 q 429 926 418 917 q 452 965 441 935 q 464 1042 464 996 q 481 1083 464 1066 q 521 1100 498 1100 q 562 1083 545 1100 q 579 1042 579 1066 m 174 694 l 174 648 q 434 694 285 694 q 711 625 613 694 q 810 434 810 555 l 810 0 l 694 0 l 694 492 q 621 599 694 562 q 434 636 547 636 q 248 599 321 636 q 174 492 174 562 l 174 0 l 58 0 l 58 694 l 174 694 z "},"Ņ":{"ha":925,"x_min":58,"x_max":810,"o":"m 536 -58 q 467 -190 536 -134 q 362 -245 397 -245 l 362 -183 q 386 -174 374 -183 q 408 -135 397 -165 q 419 -58 419 -104 q 437 -17 419 -34 q 477 0 454 0 q 518 -17 500 0 q 536 -58 536 -34 m 810 0 l 694 0 l 694 840 q 621 946 694 909 q 434 983 547 983 q 248 946 321 983 q 174 840 174 909 l 174 0 l 58 0 l 58 1042 l 434 1042 q 711 972 613 1042 q 810 781 810 902 l 810 0 z "},"ņ":{"ha":925,"x_min":58,"x_max":810,"o":"m 536 -58 q 467 -190 536 -134 q 362 -245 397 -245 l 362 -183 q 386 -174 374 -183 q 408 -135 397 -165 q 419 -58 419 -104 q 437 -17 419 -34 q 477 0 454 0 q 518 -17 500 0 q 536 -58 536 -34 m 174 694 l 174 648 q 434 694 285 694 q 711 625 613 694 q 810 434 810 555 l 810 0 l 694 0 l 694 492 q 621 599 694 562 q 434 636 547 636 q 248 599 321 636 q 174 492 174 562 l 174 0 l 58 0 l 58 694 l 174 694 z "},"Ň":{"ha":925,"x_min":58,"x_max":810,"o":"m 431 1099 q 349 1149 392 1123 q 280 1192 305 1176 q 227 1225 255 1207 q 185 1252 199 1242 q 155 1274 171 1261 q 132 1295 138 1287 q 119 1314 126 1303 q 111 1335 113 1325 q 110 1359 110 1345 q 130 1400 110 1383 q 174 1417 149 1417 q 214 1400 197 1417 q 232 1359 232 1383 q 241 1293 232 1309 q 251 1280 247 1284 q 264 1267 255 1275 q 279 1255 273 1260 q 302 1240 285 1251 q 332 1221 319 1229 q 376 1194 346 1213 q 431 1161 406 1176 q 472 1185 449 1172 q 507 1206 495 1199 q 533 1223 518 1214 q 555 1237 548 1233 q 572 1248 563 1241 q 587 1258 582 1255 q 597 1266 591 1261 q 607 1275 604 1271 q 614 1283 610 1279 q 621 1293 617 1287 q 631 1359 631 1309 q 648 1400 631 1383 q 689 1417 665 1417 q 729 1400 712 1417 q 746 1359 746 1383 q 745 1337 746 1347 q 741 1319 743 1328 q 730 1301 738 1310 q 716 1284 723 1293 q 693 1265 709 1276 q 663 1244 677 1253 q 623 1217 650 1234 q 572 1186 595 1200 q 508 1147 548 1172 q 431 1099 468 1122 m 810 0 l 694 0 l 694 840 q 621 946 694 909 q 434 983 547 983 q 248 946 321 983 q 174 840 174 909 l 174 0 l 58 0 l 58 1042 l 434 1042 q 711 972 613 1042 q 810 781 810 902 l 810 0 z "},"ň":{"ha":925,"x_min":58,"x_max":810,"o":"m 434 781 q 351 832 395 806 q 283 874 308 859 q 230 907 258 890 q 188 935 202 925 q 157 957 174 944 q 135 978 141 970 q 122 997 129 986 q 114 1018 115 1008 q 113 1042 113 1028 q 132 1083 113 1066 q 176 1100 152 1100 q 217 1083 199 1100 q 235 1042 235 1066 q 244 975 235 991 q 254 962 250 967 q 267 950 258 958 q 281 938 275 943 q 304 922 288 933 q 335 903 321 911 q 378 877 349 895 q 434 844 408 859 q 475 868 452 854 q 509 889 498 882 q 536 906 521 897 q 558 920 551 916 q 575 930 566 924 q 589 941 585 937 q 600 949 594 944 q 610 958 606 954 q 616 966 613 962 q 624 975 620 970 q 633 1042 633 991 q 650 1083 633 1066 q 692 1100 667 1100 q 732 1083 715 1100 q 749 1042 749 1066 q 747 1020 749 1029 q 743 1002 746 1010 q 733 984 741 993 q 719 967 726 975 q 696 947 712 959 q 666 926 680 936 q 625 900 652 917 q 574 869 598 883 q 511 829 551 854 q 434 781 471 804 m 174 694 l 174 648 q 434 694 285 694 q 711 625 613 694 q 810 434 810 555 l 810 0 l 694 0 l 694 492 q 621 599 694 562 q 434 636 547 636 q 248 599 321 636 q 174 492 174 562 l 174 0 l 58 0 l 58 694 l 174 694 z "},"Ŋ":{"ha":925,"x_min":58,"x_max":810,"o":"m 694 840 q 621 946 694 909 q 434 983 547 983 q 248 946 321 983 q 174 840 174 909 l 174 0 l 58 0 l 58 1042 l 174 1042 l 174 996 q 434 1042 285 1042 q 711 972 613 1042 q 810 781 810 902 l 810 -146 q 694 -289 810 -289 q 608 -277 643 -289 l 608 -214 q 673 -232 642 -232 q 694 -136 694 -232 l 694 840 z "},"ŋ":{"ha":925,"x_min":58,"x_max":810,"o":"m 694 492 q 621 599 694 562 q 434 636 547 636 q 248 599 321 636 q 174 492 174 562 l 174 110 l 174 0 l 58 0 l 58 694 l 174 694 l 174 648 q 434 694 285 694 q 711 625 613 694 q 810 434 810 555 l 810 -146 q 694 -289 810 -289 q 608 -277 643 -289 l 608 -214 q 673 -232 642 -232 q 694 -136 694 -232 l 694 492 z "},"Ō":{"ha":925,"x_min":57,"x_max":810,"o":"m 810 1217 l 810 1158 l 57 1158 l 57 1217 l 810 1217 m 694 232 l 694 840 q 621 946 694 909 q 434 983 547 983 q 248 946 321 983 q 174 840 174 909 l 174 232 q 250 109 174 160 q 434 58 326 58 q 618 109 543 58 q 694 232 694 160 m 810 289 q 709 82 810 164 q 434 0 608 0 q 158 82 258 0 q 58 289 58 164 l 58 781 q 157 972 58 903 q 434 1042 256 1042 q 711 972 613 1042 q 810 781 810 902 l 810 289 z "},"ō":{"ha":925,"x_min":57,"x_max":810,"o":"m 810 985 l 810 926 l 57 926 l 57 985 l 810 985 m 694 232 l 694 492 q 621 599 694 562 q 434 636 547 636 q 248 599 321 636 q 174 492 174 562 l 174 232 q 250 109 174 160 q 434 58 326 58 q 618 109 543 58 q 694 232 694 160 m 810 289 q 709 82 810 164 q 434 0 608 0 q 158 82 258 0 q 58 289 58 164 l 58 434 q 157 625 58 556 q 434 694 256 694 q 711 625 613 694 q 810 434 810 555 l 810 289 z "},"Ŏ":{"ha":925,"x_min":58,"x_max":810,"o":"m 437 1099 q 307 1128 369 1099 q 203 1199 244 1157 q 139 1284 163 1241 q 115 1359 115 1328 q 135 1400 115 1383 q 179 1417 155 1417 q 220 1400 202 1417 q 237 1359 237 1383 q 235 1326 237 1351 q 232 1293 232 1302 q 294 1200 232 1253 q 437 1147 355 1147 q 578 1201 517 1147 q 640 1293 640 1255 q 638 1326 640 1302 q 636 1359 636 1351 q 653 1400 636 1383 q 694 1417 670 1417 q 734 1400 718 1417 q 751 1359 751 1383 q 657 1193 751 1287 q 437 1099 563 1099 m 694 232 l 694 840 q 621 946 694 909 q 434 983 547 983 q 248 946 321 983 q 174 840 174 909 l 174 232 q 250 109 174 160 q 434 58 326 58 q 618 109 543 58 q 694 232 694 160 m 810 289 q 709 82 810 164 q 434 0 608 0 q 158 82 258 0 q 58 289 58 164 l 58 781 q 157 972 58 903 q 434 1042 256 1042 q 711 972 613 1042 q 810 781 810 902 l 810 289 z "},"ŏ":{"ha":925,"x_min":58,"x_max":810,"o":"m 437 781 q 307 810 369 781 q 203 882 244 840 q 139 967 163 924 q 115 1042 115 1010 q 135 1083 115 1066 q 179 1100 155 1100 q 220 1083 202 1100 q 237 1042 237 1066 q 235 1009 237 1034 q 232 975 232 985 q 294 883 232 936 q 437 830 355 830 q 578 884 517 830 q 640 975 640 937 q 638 1009 640 985 q 636 1042 636 1034 q 653 1083 636 1066 q 694 1100 670 1100 q 734 1083 718 1100 q 751 1042 751 1066 q 657 876 751 970 q 437 781 563 781 m 694 232 l 694 492 q 621 599 694 562 q 434 636 547 636 q 248 599 321 636 q 174 492 174 562 l 174 232 q 250 109 174 160 q 434 58 326 58 q 618 109 543 58 q 694 232 694 160 m 810 289 q 709 82 810 164 q 434 0 608 0 q 158 82 258 0 q 58 289 58 164 l 58 434 q 157 625 58 556 q 434 694 256 694 q 711 625 613 694 q 810 434 810 555 l 810 289 z "},"Ő":{"ha":925,"x_min":58,"x_max":810,"o":"m 753 1359 q 690 1227 753 1283 q 594 1172 628 1172 q 579 1234 579 1172 q 603 1243 591 1234 q 626 1282 614 1252 q 637 1359 637 1313 q 654 1400 637 1383 q 694 1417 671 1417 q 736 1400 719 1417 q 753 1359 753 1383 m 347 1359 q 285 1227 347 1283 q 189 1172 222 1172 q 174 1234 174 1172 q 197 1243 186 1234 q 220 1282 209 1252 q 232 1359 232 1313 q 249 1400 232 1383 q 290 1417 266 1417 q 330 1400 313 1417 q 347 1359 347 1383 m 694 232 l 694 840 q 621 946 694 909 q 434 983 547 983 q 248 946 321 983 q 174 840 174 909 l 174 232 q 250 109 174 160 q 434 58 326 58 q 618 109 543 58 q 694 232 694 160 m 810 289 q 709 82 810 164 q 434 0 608 0 q 158 82 258 0 q 58 289 58 164 l 58 781 q 157 972 58 903 q 434 1042 256 1042 q 711 972 613 1042 q 810 781 810 902 l 810 289 z "},"ő":{"ha":925,"x_min":58,"x_max":810,"o":"m 732 1042 q 670 910 732 966 q 574 854 608 854 q 559 917 559 854 q 583 926 571 917 q 606 965 594 935 q 617 1042 617 996 q 634 1083 617 1066 q 674 1100 651 1100 q 715 1083 699 1100 q 732 1042 732 1066 m 327 1042 q 264 910 327 966 q 168 854 202 854 q 153 917 153 854 q 177 926 165 917 q 200 965 189 935 q 212 1042 212 996 q 229 1083 212 1066 q 270 1100 245 1100 q 310 1083 293 1100 q 327 1042 327 1066 m 694 232 l 694 492 q 621 599 694 562 q 434 636 547 636 q 248 599 321 636 q 174 492 174 562 l 174 232 q 250 109 174 160 q 434 58 326 58 q 618 109 543 58 q 694 232 694 160 m 810 289 q 709 82 810 164 q 434 0 608 0 q 158 82 258 0 q 58 289 58 164 l 58 434 q 157 625 58 556 q 434 694 256 694 q 711 625 613 694 q 810 434 810 555 l 810 289 z "},"Œ":{"ha":1619,"x_min":115,"x_max":1504,"o":"m 753 232 l 753 840 q 679 945 753 907 q 492 983 605 983 q 306 946 380 983 q 232 840 232 909 l 232 232 q 308 109 232 160 q 492 58 384 58 q 676 109 600 58 q 753 232 753 160 m 1504 1042 l 1504 983 l 1042 983 q 973 981 996 983 q 922 971 951 979 q 880 943 892 963 q 868 888 868 922 l 868 636 l 1331 636 l 1331 579 l 868 579 l 868 153 q 880 99 868 119 q 922 71 892 79 q 973 60 951 62 q 1042 58 996 58 l 1504 58 l 1504 0 l 753 0 l 753 68 q 492 0 617 0 q 216 82 316 0 q 115 289 115 164 l 115 781 q 215 972 115 903 q 492 1042 315 1042 q 753 981 609 1042 l 753 1042 l 1504 1042 z "},"œ":{"ha":1563,"x_min":58,"x_max":1447,"o":"m 810 406 l 1331 406 l 1331 492 q 1257 599 1331 562 q 1070 636 1183 636 q 884 598 958 636 q 810 492 810 560 l 810 406 m 694 232 l 694 492 q 621 599 694 562 q 434 636 547 636 q 248 599 321 636 q 174 492 174 562 l 174 232 q 250 109 174 160 q 434 58 326 58 q 618 109 543 58 q 694 232 694 160 m 810 347 l 810 289 l 810 232 q 886 109 810 160 q 1070 58 963 58 q 1255 109 1179 58 q 1331 232 1331 160 l 1447 232 q 1326 63 1427 126 q 1070 0 1226 0 q 753 115 879 0 q 434 0 623 0 q 158 82 258 0 q 58 289 58 164 l 58 434 q 157 625 58 556 q 434 694 256 694 q 753 598 628 694 q 1070 694 878 694 q 1347 612 1246 694 q 1447 406 1447 530 l 1447 347 l 810 347 z "},"Ŕ":{"ha":925,"x_min":58,"x_max":810,"o":"m 519 1359 q 459 1227 519 1283 q 365 1172 399 1172 q 346 1234 346 1172 q 370 1243 358 1234 q 393 1282 381 1252 q 404 1359 404 1313 q 421 1400 404 1383 q 461 1417 438 1417 q 503 1400 486 1417 q 519 1359 519 1383 m 636 780 l 636 840 q 562 946 636 909 q 376 983 488 983 q 308 983 330 983 q 255 978 286 982 q 210 965 224 974 q 184 939 195 956 q 174 897 174 922 l 174 734 q 192 678 174 699 q 253 649 210 658 q 330 638 296 640 q 434 636 365 636 q 585 680 533 636 q 636 780 636 723 m 694 0 l 694 434 q 621 541 694 503 q 434 579 547 579 l 174 579 l 174 0 l 58 0 l 58 1042 l 406 1042 q 661 984 568 1042 q 753 810 753 926 l 753 808 q 633 610 753 671 q 769 518 728 575 q 810 376 810 461 l 810 0 l 694 0 z "},"ŕ":{"ha":521,"x_min":58,"x_max":406,"o":"m 347 1042 q 287 910 347 966 q 193 854 227 854 q 174 917 174 854 q 197 926 186 917 q 220 965 209 935 q 232 1042 232 996 q 249 1083 232 1066 q 289 1100 266 1100 q 330 1083 313 1100 q 347 1042 347 1066 m 406 694 l 406 636 q 235 600 296 636 q 174 492 174 563 l 174 0 l 58 0 l 58 694 l 174 694 l 174 648 q 406 694 285 694 z "},"Ŗ":{"ha":925,"x_min":58,"x_max":810,"o":"m 530 -58 q 461 -190 530 -134 q 357 -245 392 -245 l 357 -183 q 380 -174 369 -183 q 403 -135 392 -165 q 414 -58 414 -104 q 431 -17 414 -34 q 472 0 449 0 q 513 -17 495 0 q 530 -58 530 -34 m 636 780 l 636 840 q 562 946 636 909 q 376 983 488 983 q 308 983 330 983 q 255 978 286 982 q 210 965 224 974 q 184 939 195 956 q 174 897 174 922 l 174 734 q 192 678 174 699 q 253 649 210 658 q 330 638 296 640 q 434 636 365 636 q 585 680 533 636 q 636 780 636 723 m 694 0 l 694 434 q 621 541 694 503 q 434 579 547 579 l 174 579 l 174 0 l 58 0 l 58 1042 l 406 1042 q 661 984 568 1042 q 753 810 753 926 l 753 808 q 633 610 753 671 q 769 518 728 575 q 810 376 810 461 l 810 0 l 694 0 z "},"ŗ":{"ha":521,"x_min":58,"x_max":406,"o":"m 391 -88 q 321 -220 391 -164 q 217 -275 252 -275 l 217 -213 q 241 -204 229 -213 q 263 -165 252 -195 q 274 -88 274 -134 q 292 -47 274 -64 q 332 -30 309 -30 q 373 -47 355 -30 q 391 -88 391 -64 m 406 694 l 406 636 q 235 600 296 636 q 174 492 174 563 l 174 0 l 58 0 l 58 694 l 174 694 l 174 648 q 406 694 285 694 z "},"Ř":{"ha":925,"x_min":58,"x_max":810,"o":"m 434 1099 q 351 1149 395 1123 q 283 1192 308 1176 q 230 1225 258 1207 q 188 1252 202 1242 q 157 1274 174 1261 q 135 1295 141 1287 q 122 1314 129 1303 q 114 1335 115 1325 q 113 1359 113 1345 q 132 1400 113 1383 q 176 1417 152 1417 q 217 1400 199 1417 q 235 1359 235 1383 q 244 1293 235 1309 q 254 1280 250 1284 q 267 1267 258 1275 q 281 1255 275 1260 q 304 1240 288 1251 q 335 1221 321 1229 q 378 1194 349 1213 q 434 1161 408 1176 q 475 1185 452 1172 q 509 1206 498 1199 q 536 1223 521 1214 q 558 1237 551 1233 q 575 1248 566 1241 q 589 1258 585 1255 q 600 1266 594 1261 q 610 1275 606 1271 q 616 1283 613 1279 q 624 1293 620 1287 q 633 1359 633 1309 q 650 1400 633 1383 q 692 1417 667 1417 q 732 1400 715 1417 q 749 1359 749 1383 q 747 1337 749 1347 q 743 1319 746 1328 q 733 1301 741 1310 q 719 1284 726 1293 q 696 1265 712 1276 q 666 1244 680 1253 q 625 1217 652 1234 q 574 1186 598 1200 q 511 1147 551 1172 q 434 1099 471 1122 m 636 780 l 636 840 q 562 946 636 909 q 376 983 488 983 q 308 983 330 983 q 255 978 286 982 q 210 965 224 974 q 184 939 195 956 q 174 897 174 922 l 174 734 q 192 678 174 699 q 253 649 210 658 q 330 638 296 640 q 434 636 365 636 q 585 680 533 636 q 636 780 636 723 m 694 0 l 694 434 q 621 541 694 503 q 434 579 547 579 l 174 579 l 174 0 l 58 0 l 58 1042 l 406 1042 q 661 984 568 1042 q 753 810 753 926 l 753 808 q 633 610 753 671 q 769 518 728 575 q 810 376 810 461 l 810 0 l 694 0 z "},"ř":{"ha":521,"x_min":0,"x_max":515,"o":"m 261 781 q 194 832 229 806 q 138 874 159 859 q 96 907 118 890 q 62 935 73 925 q 37 957 50 944 q 19 978 24 970 q 8 997 14 986 q 2 1018 3 1008 q 1 1042 1 1028 q 17 1083 1 1066 q 52 1100 33 1100 q 85 1083 71 1100 q 99 1042 99 1066 q 107 975 99 991 q 115 962 112 967 q 125 950 118 958 q 137 938 132 943 q 156 922 142 933 q 181 903 170 911 q 216 877 192 895 q 261 844 240 859 q 294 868 275 854 q 322 889 312 882 q 343 906 331 897 q 361 920 355 916 q 375 930 367 924 q 386 941 383 937 q 395 949 390 944 q 403 958 400 954 q 408 966 406 962 q 414 975 411 970 q 422 1042 422 991 q 436 1083 422 1066 q 469 1100 450 1100 q 502 1083 488 1100 q 515 1042 515 1066 q 514 1020 515 1029 q 511 1002 513 1010 q 503 984 509 993 q 491 967 497 975 q 473 947 486 959 q 448 926 459 936 q 415 900 437 917 q 374 869 394 883 q 323 829 355 854 q 261 781 290 804 m 406 694 l 406 636 q 235 600 296 636 q 174 492 174 563 l 174 0 l 58 0 l 58 694 l 174 694 l 174 648 q 406 694 285 694 z "},"Ś":{"ha":925,"x_min":64,"x_max":810,"o":"m 547 1359 q 486 1227 547 1283 q 392 1172 426 1172 q 373 1234 373 1172 q 397 1243 385 1234 q 420 1282 408 1252 q 431 1359 431 1313 q 448 1400 431 1383 q 488 1417 465 1417 q 530 1400 513 1417 q 547 1359 547 1383 m 810 290 l 810 289 q 708 82 810 164 q 431 0 606 0 q 64 202 126 0 l 171 202 q 245 96 171 134 q 431 58 319 58 q 617 117 543 58 q 692 267 692 175 q 628 418 692 358 q 431 519 564 477 q 102 777 102 621 q 121 863 102 819 q 178 949 140 907 q 282 1016 216 990 q 434 1042 349 1042 q 673 991 590 1042 q 787 840 757 941 l 680 840 q 612 946 680 909 q 434 983 545 983 q 273 932 330 983 q 217 796 217 880 q 269 665 217 716 q 431 581 320 614 q 722 448 635 517 q 810 290 810 378 z "},"ś":{"ha":925,"x_min":64,"x_max":810,"o":"m 552 1042 q 492 910 552 966 q 397 854 431 854 q 378 917 378 854 q 402 926 391 917 q 425 965 414 935 q 437 1042 437 996 q 454 1083 437 1066 q 494 1100 471 1100 q 535 1083 518 1100 q 552 1042 552 1066 m 449 694 q 683 665 609 694 q 802 549 757 635 l 666 549 q 592 620 637 604 q 449 636 547 636 q 276 606 335 636 q 217 506 217 576 q 253 446 217 469 q 335 414 289 422 q 434 406 381 406 q 719 343 628 406 q 810 203 810 281 l 810 202 q 717 43 810 87 q 431 0 624 0 q 64 202 126 0 l 174 202 q 246 96 174 133 q 431 58 319 58 q 566 68 511 58 q 657 113 620 79 q 694 203 694 146 q 434 347 694 347 q 194 390 286 347 q 102 506 102 433 q 190 642 102 590 q 449 694 278 694 z "},"Ŝ":{"ha":925,"x_min":64,"x_max":810,"o":"m 437 1419 q 513 1371 473 1396 q 577 1331 553 1345 q 628 1300 601 1317 q 669 1274 655 1283 q 699 1253 682 1264 q 722 1233 715 1241 q 736 1216 728 1225 q 746 1198 743 1207 q 750 1180 749 1190 q 751 1158 751 1171 q 734 1117 751 1134 q 694 1100 718 1100 q 653 1117 670 1100 q 636 1158 636 1134 q 627 1225 636 1208 q 619 1234 623 1230 q 612 1242 616 1238 q 603 1251 609 1246 q 592 1259 597 1256 q 578 1270 587 1263 q 561 1280 568 1276 q 538 1294 553 1284 q 512 1311 524 1303 q 477 1332 500 1318 q 437 1356 454 1345 q 381 1323 411 1341 q 338 1297 351 1305 q 307 1278 324 1289 q 284 1262 290 1267 q 269 1250 278 1257 q 256 1238 260 1242 q 247 1225 252 1233 q 237 1158 237 1208 q 220 1117 237 1134 q 179 1100 202 1100 q 135 1117 155 1100 q 115 1158 115 1134 q 117 1182 115 1172 q 125 1203 118 1192 q 138 1222 132 1214 q 160 1243 144 1230 q 191 1265 176 1256 q 233 1293 205 1275 q 286 1326 260 1310 q 354 1368 311 1341 q 437 1419 397 1394 m 810 290 l 810 289 q 708 82 810 164 q 431 0 606 0 q 64 202 126 0 l 171 202 q 245 96 171 134 q 431 58 319 58 q 617 117 543 58 q 692 267 692 175 q 628 418 692 358 q 431 519 564 477 q 102 777 102 621 q 121 863 102 819 q 178 949 140 907 q 282 1016 216 990 q 434 1042 349 1042 q 673 991 590 1042 q 787 840 757 941 l 680 840 q 612 946 680 909 q 434 983 545 983 q 273 932 330 983 q 217 796 217 880 q 269 665 217 716 q 431 581 320 614 q 722 448 635 517 q 810 290 810 378 z "},"ŝ":{"ha":925,"x_min":64,"x_max":810,"o":"m 437 1100 q 513 1052 473 1077 q 577 1013 553 1027 q 628 981 601 998 q 669 955 655 964 q 699 934 682 945 q 722 914 715 922 q 736 897 728 906 q 746 880 743 888 q 750 861 749 871 q 751 840 751 852 q 734 798 751 815 q 694 781 718 781 q 653 798 670 781 q 636 840 636 815 q 627 906 636 890 q 619 916 623 911 q 612 924 616 920 q 603 932 609 928 q 592 941 597 937 q 578 951 587 944 q 561 962 568 958 q 538 975 553 966 q 512 992 524 985 q 477 1013 500 1000 q 437 1038 454 1027 q 381 1004 411 1023 q 338 978 351 986 q 307 959 324 970 q 284 943 290 948 q 269 931 278 939 q 256 919 260 924 q 247 906 252 914 q 237 840 237 890 q 220 798 237 815 q 179 781 202 781 q 135 798 155 781 q 115 840 115 815 q 117 863 115 853 q 125 884 118 873 q 138 903 132 895 q 160 924 144 911 q 191 947 176 937 q 233 974 205 956 q 286 1007 260 991 q 354 1049 311 1023 q 437 1100 397 1076 m 449 694 q 683 665 609 694 q 802 549 757 635 l 666 549 q 592 620 637 604 q 449 636 547 636 q 276 606 335 636 q 217 506 217 576 q 253 446 217 469 q 335 414 289 422 q 434 406 381 406 q 719 343 628 406 q 810 203 810 281 l 810 202 q 717 43 810 87 q 431 0 624 0 q 64 202 126 0 l 174 202 q 246 96 174 133 q 431 58 319 58 q 566 68 511 58 q 657 113 620 79 q 694 203 694 146 q 434 347 694 347 q 194 390 286 347 q 102 506 102 433 q 190 642 102 590 q 449 694 278 694 z "},"Ş":{"ha":925,"x_min":64,"x_max":810,"o":"m 408 -171 q 430 -119 408 -149 q 452 -72 452 -90 q 430 -24 452 -43 q 387 1 408 -4 q 64 202 123 14 l 171 202 q 245 96 171 134 q 431 58 319 58 q 617 117 543 58 q 692 267 692 175 q 628 418 692 358 q 431 519 564 477 q 102 777 102 621 q 121 863 102 819 q 178 949 140 907 q 282 1016 216 990 q 434 1042 349 1042 q 673 991 590 1042 q 787 840 757 941 l 680 840 q 612 946 680 909 q 434 983 545 983 q 273 932 330 983 q 217 796 217 880 q 269 665 217 716 q 431 581 320 614 q 722 448 635 517 q 810 290 810 378 l 810 289 q 721 92 810 172 q 476 1 632 12 q 511 -39 494 -12 q 545 -104 537 -81 q 552 -171 552 -127 q 529 -217 552 -203 q 480 -231 506 -231 q 451 -227 465 -231 q 422 -208 437 -222 q 408 -171 408 -194 z "},"ş":{"ha":925,"x_min":64,"x_max":810,"o":"m 422 -171 q 444 -119 422 -149 q 465 -72 465 -90 q 445 -24 465 -43 q 404 0 425 -5 q 64 202 125 9 l 174 202 q 246 96 174 133 q 431 58 319 58 q 566 68 511 58 q 657 113 620 79 q 694 203 694 146 q 434 347 694 347 q 194 390 286 347 q 102 506 102 433 q 190 642 102 590 q 449 694 278 694 q 683 665 609 694 q 802 549 757 635 l 666 549 q 592 620 637 604 q 449 636 547 636 q 276 606 335 636 q 217 506 217 576 q 253 446 217 469 q 335 414 289 422 q 434 406 381 406 q 719 343 628 406 q 810 203 810 281 l 810 202 q 730 51 810 96 q 491 1 651 5 q 525 -39 513 -18 q 559 -104 552 -81 q 567 -171 567 -127 q 544 -217 567 -203 q 495 -231 521 -231 q 465 -227 480 -231 q 436 -208 450 -222 q 422 -171 422 -194 z "},"Š":{"ha":925,"x_min":64,"x_max":810,"o":"m 437 1099 q 354 1149 397 1123 q 286 1192 311 1176 q 233 1225 260 1207 q 191 1252 205 1242 q 160 1274 176 1261 q 138 1295 144 1287 q 125 1314 132 1303 q 117 1335 118 1325 q 115 1359 115 1345 q 135 1400 115 1383 q 179 1417 155 1417 q 220 1400 202 1417 q 237 1359 237 1383 q 247 1293 237 1309 q 256 1280 252 1284 q 269 1267 260 1275 q 284 1255 278 1260 q 307 1240 290 1251 q 338 1221 324 1229 q 381 1194 351 1213 q 437 1161 411 1176 q 477 1185 454 1172 q 512 1206 500 1199 q 538 1223 524 1214 q 561 1237 553 1233 q 578 1248 568 1241 q 592 1258 587 1255 q 603 1266 597 1261 q 612 1275 609 1271 q 619 1283 616 1279 q 627 1293 623 1287 q 636 1359 636 1309 q 653 1400 636 1383 q 694 1417 670 1417 q 734 1400 718 1417 q 751 1359 751 1383 q 750 1337 751 1347 q 746 1319 749 1328 q 736 1301 743 1310 q 722 1284 728 1293 q 699 1265 715 1276 q 669 1244 682 1253 q 628 1217 655 1234 q 577 1186 601 1200 q 513 1147 553 1172 q 437 1099 473 1122 m 810 290 l 810 289 q 708 82 810 164 q 431 0 606 0 q 64 202 126 0 l 171 202 q 245 96 171 134 q 431 58 319 58 q 617 117 543 58 q 692 267 692 175 q 628 418 692 358 q 431 519 564 477 q 102 777 102 621 q 121 863 102 819 q 178 949 140 907 q 282 1016 216 990 q 434 1042 349 1042 q 673 991 590 1042 q 787 840 757 941 l 680 840 q 612 946 680 909 q 434 983 545 983 q 273 932 330 983 q 217 796 217 880 q 269 665 217 716 q 431 581 320 614 q 722 448 635 517 q 810 290 810 378 z "},"š":{"ha":925,"x_min":64,"x_max":810,"o":"m 437 781 q 354 832 397 806 q 286 874 311 859 q 233 907 260 890 q 191 935 205 925 q 160 957 176 944 q 138 978 144 970 q 125 997 132 986 q 117 1018 118 1008 q 115 1042 115 1028 q 135 1083 115 1066 q 179 1100 155 1100 q 220 1083 202 1100 q 237 1042 237 1066 q 247 975 237 991 q 256 962 252 967 q 269 950 260 958 q 284 938 278 943 q 307 922 290 933 q 338 903 324 911 q 381 877 351 895 q 437 844 411 859 q 477 868 454 854 q 512 889 500 882 q 538 906 524 897 q 561 920 553 916 q 578 930 568 924 q 592 941 587 937 q 603 949 597 944 q 612 958 609 954 q 619 966 616 962 q 627 975 623 970 q 636 1042 636 991 q 653 1083 636 1066 q 694 1100 670 1100 q 734 1083 718 1100 q 751 1042 751 1066 q 750 1020 751 1029 q 746 1002 749 1010 q 736 984 743 993 q 722 967 728 975 q 699 947 715 959 q 669 926 682 936 q 628 900 655 917 q 577 869 601 883 q 513 829 553 854 q 437 781 473 804 m 449 694 q 683 665 609 694 q 802 549 757 635 l 666 549 q 592 620 637 604 q 449 636 547 636 q 276 606 335 636 q 217 506 217 576 q 253 446 217 469 q 335 414 289 422 q 434 406 381 406 q 719 343 628 406 q 810 203 810 281 l 810 202 q 717 43 810 87 q 431 0 624 0 q 64 202 126 0 l 174 202 q 246 96 174 133 q 431 58 319 58 q 566 68 511 58 q 657 113 620 79 q 694 203 694 146 q 434 347 694 347 q 194 390 286 347 q 102 506 102 433 q 190 642 102 590 q 449 694 278 694 z "},"Ţ":{"ha":925,"x_min":58,"x_max":810,"o":"m 406 -171 q 427 -119 406 -149 q 449 -72 449 -90 q 423 -21 449 -42 q 376 0 397 0 l 376 1 l 376 62 l 376 983 l 58 983 l 58 1042 l 810 1042 l 810 983 l 492 983 l 492 0 l 476 0 q 507 -39 502 -28 q 542 -104 534 -81 q 549 -171 549 -127 q 526 -217 549 -203 q 477 -231 503 -231 q 448 -227 463 -231 q 420 -208 434 -222 q 406 -171 406 -194 z "},"ţ":{"ha":463,"x_min":58,"x_max":406,"o":"m 217 -165 q 239 -114 217 -144 q 260 -66 260 -84 q 203 3 260 -20 q 115 144 115 19 l 115 636 l 58 636 l 58 694 l 115 694 l 115 1042 l 232 1042 l 232 694 l 406 694 l 406 636 l 232 636 l 232 153 q 254 58 232 58 q 406 118 305 58 l 406 57 q 286 7 351 23 q 320 -34 297 -1 q 355 -100 347 -77 q 362 -165 362 -123 q 289 -224 362 -224 q 260 -220 274 -224 q 231 -203 245 -217 q 217 -165 217 -189 z "},"Ť":{"ha":925,"x_min":58,"x_max":810,"o":"m 434 1099 q 351 1149 395 1123 q 283 1192 308 1176 q 230 1225 258 1207 q 188 1252 202 1242 q 157 1274 174 1261 q 135 1295 141 1287 q 122 1314 129 1303 q 114 1335 115 1325 q 113 1359 113 1345 q 132 1400 113 1383 q 176 1417 152 1417 q 217 1400 199 1417 q 235 1359 235 1383 q 244 1293 235 1309 q 254 1280 250 1284 q 267 1267 258 1275 q 281 1255 275 1260 q 304 1240 288 1251 q 335 1221 321 1229 q 378 1194 349 1213 q 434 1161 408 1176 q 475 1185 452 1172 q 509 1206 498 1199 q 536 1223 521 1214 q 558 1237 551 1233 q 575 1248 566 1241 q 589 1258 585 1255 q 600 1266 594 1261 q 610 1275 606 1271 q 616 1283 613 1279 q 624 1293 620 1287 q 633 1359 633 1309 q 650 1400 633 1383 q 692 1417 667 1417 q 732 1400 715 1417 q 749 1359 749 1383 q 747 1337 749 1347 q 743 1319 746 1328 q 733 1301 741 1310 q 719 1284 726 1293 q 696 1265 712 1276 q 666 1244 680 1253 q 625 1217 652 1234 q 574 1186 598 1200 q 511 1147 551 1172 q 434 1099 471 1122 m 810 1042 l 810 983 l 492 983 l 492 0 l 376 0 l 376 983 l 58 983 l 58 1042 l 810 1042 z "},"ť":{"ha":636,"x_min":58,"x_max":551,"o":"m 551 983 q 481 852 551 907 q 377 796 412 796 l 377 859 q 401 867 389 859 q 423 907 412 876 q 434 983 434 937 q 452 1025 434 1008 q 492 1042 469 1042 q 533 1025 515 1042 q 551 983 551 1008 m 232 1042 l 232 694 l 406 694 l 406 636 l 232 636 l 232 153 q 254 58 232 58 q 406 118 305 58 q 406 57 406 118 q 232 0 313 0 q 115 144 115 0 l 115 636 l 58 636 l 58 694 l 115 694 l 115 1042 l 232 1042 z "},"Ŧ":{"ha":983,"x_min":58,"x_max":868,"o":"m 868 1042 l 868 983 l 521 983 l 521 868 l 694 868 l 694 810 l 521 810 l 521 0 l 406 0 l 406 810 l 232 810 l 232 868 l 406 868 l 406 983 l 58 983 l 58 1042 l 868 1042 z "},"ŧ":{"ha":463,"x_min":0,"x_max":406,"o":"m 406 868 l 406 810 l 232 810 l 232 636 l 347 636 l 347 579 l 232 579 l 232 153 q 254 58 232 58 q 406 118 305 58 q 406 57 406 118 q 232 0 313 0 q 115 144 115 0 l 115 579 l 58 579 l 58 636 l 115 636 l 115 810 l 0 810 l 0 868 l 115 868 l 115 1042 l 232 1042 l 232 868 l 406 868 z "},"Ũ":{"ha":925,"x_min":58,"x_max":810,"o":"m 751 1302 q 739 1221 751 1264 q 693 1139 727 1177 q 610 1100 659 1100 q 514 1124 556 1100 q 445 1181 472 1147 q 395 1249 418 1215 q 345 1307 372 1283 q 286 1331 317 1331 q 231 1187 231 1331 l 115 1187 q 127 1268 115 1225 q 174 1350 140 1312 q 258 1389 209 1389 q 360 1365 316 1389 q 429 1307 404 1341 q 475 1238 454 1272 q 522 1181 496 1204 q 581 1157 548 1157 q 636 1302 636 1157 l 751 1302 m 810 0 q 745 22 769 0 q 694 45 720 45 q 609 22 692 45 q 434 0 526 0 q 158 82 258 0 q 58 289 58 164 l 58 1042 l 174 1042 l 174 232 q 250 109 174 160 q 434 58 326 58 q 618 109 543 58 q 694 232 694 160 l 694 1042 l 810 1042 l 810 0 z "},"ũ":{"ha":925,"x_min":58,"x_max":810,"o":"m 751 1013 q 739 932 751 975 q 693 850 727 888 q 610 811 659 811 q 514 835 556 811 q 445 892 472 859 q 395 960 418 926 q 345 1018 372 994 q 286 1042 317 1042 q 231 898 231 1042 l 115 898 q 127 979 115 936 q 174 1061 140 1023 q 258 1100 209 1100 q 360 1076 316 1100 q 429 1018 404 1053 q 475 949 454 983 q 522 892 496 916 q 581 868 548 868 q 636 1013 636 868 l 751 1013 m 810 694 q 810 0 810 694 q 745 22 770 0 q 694 45 720 45 q 609 22 692 45 q 434 0 526 0 q 158 82 258 0 q 58 289 58 164 l 58 694 l 174 694 l 174 232 q 250 109 174 160 q 434 58 326 58 q 618 109 543 58 q 694 232 694 160 l 694 694 l 810 694 z "},"Ū":{"ha":925,"x_min":57,"x_max":810,"o":"m 810 1215 l 810 1157 l 57 1157 l 57 1215 l 810 1215 m 810 0 q 745 22 769 0 q 694 45 720 45 q 609 22 692 45 q 434 0 526 0 q 158 82 258 0 q 58 289 58 164 l 58 1042 l 174 1042 l 174 232 q 250 109 174 160 q 434 58 326 58 q 618 109 543 58 q 694 232 694 160 l 694 1042 l 810 1042 l 810 0 z "},"ū":{"ha":925,"x_min":57,"x_max":810,"o":"m 810 985 l 810 926 l 57 926 l 57 985 l 810 985 m 810 694 q 810 0 810 694 q 745 22 770 0 q 694 45 720 45 q 609 22 692 45 q 434 0 526 0 q 158 82 258 0 q 58 289 58 164 l 58 694 l 174 694 l 174 232 q 250 109 174 160 q 434 58 326 58 q 618 109 543 58 q 694 232 694 160 l 694 694 l 810 694 z "},"Ŭ":{"ha":925,"x_min":58,"x_max":810,"o":"m 437 1099 q 307 1128 369 1099 q 203 1199 244 1157 q 139 1284 163 1241 q 115 1359 115 1328 q 135 1400 115 1383 q 179 1417 155 1417 q 220 1400 202 1417 q 237 1359 237 1383 q 235 1326 237 1351 q 232 1293 232 1302 q 294 1200 232 1253 q 437 1147 355 1147 q 578 1201 517 1147 q 640 1293 640 1255 q 638 1326 640 1302 q 636 1359 636 1351 q 653 1400 636 1383 q 694 1417 670 1417 q 734 1400 718 1417 q 751 1359 751 1383 q 657 1193 751 1287 q 437 1099 563 1099 m 810 0 q 745 22 769 0 q 694 45 720 45 q 609 22 692 45 q 434 0 526 0 q 158 82 258 0 q 58 289 58 164 l 58 1042 l 174 1042 l 174 232 q 250 109 174 160 q 434 58 326 58 q 618 109 543 58 q 694 232 694 160 l 694 1042 l 810 1042 l 810 0 z "},"ŭ":{"ha":925,"x_min":58,"x_max":810,"o":"m 437 776 q 307 805 369 776 q 203 876 244 834 q 139 962 163 918 q 115 1036 115 1005 q 135 1078 115 1061 q 179 1095 155 1095 q 220 1078 202 1095 q 237 1036 237 1061 q 235 1004 237 1028 q 232 970 232 979 q 294 878 232 930 q 437 825 355 825 q 578 878 517 825 q 640 970 640 932 q 638 1004 640 979 q 636 1036 636 1028 q 653 1078 636 1061 q 694 1095 670 1095 q 734 1078 718 1095 q 751 1036 751 1061 q 657 870 751 964 q 437 776 563 776 m 810 694 q 810 0 810 694 q 745 22 770 0 q 694 45 720 45 q 609 22 692 45 q 434 0 526 0 q 158 82 258 0 q 58 289 58 164 l 58 694 l 174 694 l 174 232 q 250 109 174 160 q 434 58 326 58 q 618 109 543 58 q 694 232 694 160 l 694 694 l 810 694 z "},"Ů":{"ha":925,"x_min":58,"x_max":810,"o":"m 347 1244 q 373 1183 347 1208 q 434 1157 399 1157 q 496 1183 471 1157 q 521 1244 521 1208 q 496 1305 521 1280 q 434 1331 471 1331 q 373 1305 399 1331 q 347 1244 347 1280 m 290 1244 q 332 1346 290 1303 q 434 1389 374 1389 q 536 1346 494 1389 q 579 1244 579 1303 q 536 1142 579 1184 q 434 1100 494 1100 q 333 1143 376 1100 q 290 1244 290 1185 m 810 0 q 745 22 769 0 q 694 45 720 45 q 609 22 692 45 q 434 0 526 0 q 158 82 258 0 q 58 289 58 164 l 58 1042 l 174 1042 l 174 232 q 250 109 174 160 q 434 58 326 58 q 618 109 543 58 q 694 232 694 160 l 694 1042 l 810 1042 l 810 0 z "},"ů":{"ha":925,"x_min":58,"x_max":810,"o":"m 347 895 q 373 834 347 860 q 434 808 399 808 q 496 834 471 808 q 521 895 521 860 q 496 957 521 932 q 434 982 471 982 q 373 957 399 982 q 347 895 347 932 m 290 895 q 332 998 290 955 q 434 1040 374 1040 q 536 998 494 1040 q 579 895 579 955 q 536 793 579 836 q 434 751 494 751 q 333 794 376 751 q 290 895 290 837 m 810 694 q 810 0 810 694 q 745 22 770 0 q 694 45 720 45 q 609 22 692 45 q 434 0 526 0 q 158 82 258 0 q 58 289 58 164 l 58 694 l 174 694 l 174 232 q 250 109 174 160 q 434 58 326 58 q 618 109 543 58 q 694 232 694 160 l 694 694 l 810 694 z "},"Ű":{"ha":925,"x_min":58,"x_max":810,"o":"m 766 1359 q 704 1227 766 1283 q 608 1172 642 1172 q 593 1234 593 1172 q 616 1243 605 1234 q 640 1282 628 1252 q 651 1359 651 1313 q 668 1400 651 1383 q 708 1417 685 1417 q 749 1400 732 1417 q 766 1359 766 1383 m 361 1359 q 298 1227 361 1283 q 202 1172 236 1172 q 187 1234 187 1172 q 211 1243 199 1234 q 234 1282 222 1252 q 245 1359 245 1313 q 262 1400 245 1383 q 304 1417 279 1417 q 344 1400 327 1417 q 361 1359 361 1383 m 810 0 q 745 22 769 0 q 694 45 720 45 q 609 22 692 45 q 434 0 526 0 q 158 82 258 0 q 58 289 58 164 l 58 1042 l 174 1042 l 174 232 q 250 109 174 160 q 434 58 326 58 q 618 109 543 58 q 694 232 694 160 l 694 1042 l 810 1042 l 810 0 z "},"ű":{"ha":925,"x_min":58,"x_max":810,"o":"m 766 1042 q 704 910 766 966 q 608 854 642 854 q 593 917 593 854 q 616 926 605 917 q 640 965 628 935 q 651 1042 651 996 q 668 1083 651 1066 q 708 1100 685 1100 q 749 1083 732 1100 q 766 1042 766 1066 m 361 1042 q 298 910 361 966 q 202 854 236 854 q 187 917 187 854 q 211 926 199 917 q 234 965 222 935 q 245 1042 245 996 q 262 1083 245 1066 q 304 1100 279 1100 q 344 1083 327 1100 q 361 1042 361 1066 m 810 694 q 810 0 810 694 q 745 22 770 0 q 694 45 720 45 q 609 22 692 45 q 434 0 526 0 q 158 82 258 0 q 58 289 58 164 l 58 694 l 174 694 l 174 232 q 250 109 174 160 q 434 58 326 58 q 618 109 543 58 q 694 232 694 160 l 694 694 l 810 694 z "},"Ų":{"ha":925,"x_min":58,"x_max":810,"o":"m 781 -172 q 758 -218 781 -205 q 709 -232 735 -232 q 680 -228 694 -232 q 650 -210 665 -224 q 636 -172 636 -195 q 644 -108 636 -130 q 678 -41 651 -85 q 741 24 701 -5 q 694 45 723 45 q 609 22 692 45 q 434 0 526 0 q 158 82 258 0 q 58 289 58 164 l 58 1042 l 174 1042 l 174 232 q 250 109 174 160 q 434 58 326 58 q 618 109 543 58 q 694 232 694 160 l 694 1042 l 810 1042 l 810 0 q 766 -20 795 0 q 738 -73 738 -41 q 760 -121 738 -91 q 781 -172 781 -151 z "},"ų":{"ha":925,"x_min":58,"x_max":810,"o":"m 781 -171 q 758 -217 781 -203 q 709 -231 735 -231 q 680 -227 694 -231 q 650 -208 665 -222 q 636 -171 636 -194 q 644 -106 636 -129 q 678 -39 651 -83 q 741 26 704 -1 q 694 45 722 45 q 609 22 692 45 q 434 0 526 0 q 158 82 258 0 q 58 289 58 164 l 58 694 l 174 694 l 174 232 q 250 109 174 160 q 434 58 326 58 q 618 109 543 58 q 694 232 694 160 l 694 694 l 810 694 l 810 1 l 810 0 q 764 -21 789 0 q 738 -72 738 -42 q 760 -119 738 -90 q 781 -171 781 -149 z "},"Ŵ":{"ha":1389,"x_min":58,"x_max":1274,"o":"m 666 1419 q 743 1371 703 1396 q 806 1331 783 1345 q 857 1300 830 1317 q 898 1274 884 1283 q 928 1253 911 1264 q 951 1233 944 1241 q 965 1216 958 1225 q 975 1198 972 1207 q 979 1180 978 1190 q 981 1158 981 1171 q 964 1117 981 1134 q 924 1100 947 1100 q 882 1117 899 1100 q 865 1158 865 1134 q 856 1225 865 1208 q 848 1234 852 1230 q 842 1242 845 1238 q 832 1251 838 1246 q 821 1259 826 1256 q 807 1270 817 1263 q 790 1280 798 1276 q 768 1294 783 1284 q 741 1311 753 1303 q 707 1332 730 1318 q 666 1356 684 1345 q 610 1323 640 1341 q 567 1297 581 1305 q 536 1278 553 1289 q 513 1262 519 1267 q 498 1250 507 1257 q 486 1238 490 1242 q 476 1225 481 1233 q 467 1158 467 1208 q 449 1117 467 1134 q 408 1100 431 1100 q 364 1117 384 1100 q 345 1158 345 1134 q 346 1182 345 1172 q 354 1203 347 1192 q 367 1222 361 1214 q 389 1243 373 1230 q 420 1265 406 1256 q 462 1293 434 1275 q 515 1326 490 1310 q 583 1368 540 1341 q 666 1419 627 1394 m 1274 1042 q 1274 289 1274 1042 q 1259 175 1274 224 q 1211 85 1245 126 q 1113 22 1177 43 q 955 0 1048 0 q 793 28 854 0 q 666 115 731 56 q 536 28 598 56 q 376 0 475 0 q 136 80 213 0 q 58 289 58 160 l 58 1042 l 174 1042 l 174 232 q 224 106 174 155 q 376 58 274 58 q 545 108 481 58 q 608 232 608 157 l 608 636 l 723 636 l 723 232 q 786 108 723 157 q 955 58 849 58 q 1107 106 1057 58 q 1157 232 1157 155 l 1157 1042 l 1274 1042 z "},"ŵ":{"ha":1331,"x_min":58,"x_max":1215,"o":"m 637 1100 q 714 1052 674 1077 q 778 1013 754 1027 q 829 981 802 998 q 869 955 856 964 q 899 934 883 945 q 922 914 916 922 q 937 897 929 906 q 947 880 944 888 q 951 861 949 871 q 952 840 952 852 q 935 798 952 815 q 895 781 918 781 q 854 798 871 781 q 837 840 837 815 q 827 906 837 890 q 820 916 823 911 q 813 924 817 920 q 804 932 810 928 q 793 941 798 937 q 779 951 788 944 q 762 962 769 958 q 739 975 754 966 q 713 992 724 985 q 678 1013 701 1000 q 637 1038 655 1027 q 582 1004 612 1023 q 538 978 552 986 q 508 959 525 970 q 485 943 491 948 q 470 931 479 939 q 457 919 461 924 q 448 906 453 914 q 438 840 438 890 q 420 798 438 815 q 380 781 403 781 q 336 798 355 781 q 316 840 316 815 q 317 863 316 853 q 326 884 319 873 q 338 903 332 895 q 361 924 345 911 q 391 947 377 937 q 433 974 406 956 q 486 1007 461 991 q 555 1049 511 1023 q 637 1100 598 1076 m 1215 694 q 1215 289 1215 694 q 1201 175 1215 224 q 1153 85 1187 126 q 1055 22 1119 43 q 897 0 990 0 q 787 14 833 0 q 718 45 742 28 q 651 102 694 62 q 636 115 642 111 q 530 31 562 49 q 376 0 472 0 q 136 80 213 0 q 58 289 58 160 l 58 694 l 174 694 l 174 232 q 224 106 174 155 q 376 58 274 58 q 529 106 479 58 q 579 232 579 155 l 579 521 l 694 521 l 694 232 q 745 106 694 155 q 897 58 795 58 q 1050 106 1000 58 q 1100 232 1100 155 l 1100 694 l 1215 694 z "},"Ŷ":{"ha":925,"x_min":58,"x_max":810,"o":"m 434 1419 q 511 1371 471 1396 q 574 1331 551 1345 q 625 1300 598 1317 q 666 1274 652 1283 q 696 1253 680 1264 q 719 1233 712 1241 q 733 1216 726 1225 q 743 1198 741 1207 q 747 1180 746 1190 q 749 1158 749 1171 q 732 1117 749 1134 q 692 1100 715 1100 q 650 1117 667 1100 q 633 1158 633 1134 q 624 1225 633 1208 q 616 1234 620 1230 q 610 1242 613 1238 q 600 1251 606 1246 q 589 1259 594 1256 q 575 1270 585 1263 q 558 1280 566 1276 q 536 1294 551 1284 q 509 1311 521 1303 q 475 1332 498 1318 q 434 1356 452 1345 q 378 1323 408 1341 q 335 1297 349 1305 q 304 1278 321 1289 q 281 1262 288 1267 q 267 1250 275 1257 q 254 1238 258 1242 q 244 1225 250 1233 q 235 1158 235 1208 q 217 1117 235 1134 q 176 1100 199 1100 q 132 1117 152 1100 q 113 1158 113 1134 q 114 1182 113 1172 q 122 1203 115 1192 q 135 1222 129 1214 q 157 1243 141 1230 q 188 1265 174 1256 q 230 1293 202 1275 q 283 1326 258 1310 q 351 1368 308 1341 q 434 1419 395 1394 m 694 -58 l 694 58 q 434 0 581 0 q 158 83 258 0 q 58 290 58 165 l 58 1042 l 174 1042 l 174 233 q 250 109 174 160 q 434 58 326 58 q 618 109 543 58 q 694 233 694 160 l 694 1042 l 810 1042 l 810 0 q 711 -214 810 -138 q 434 -289 613 -289 q 210 -242 304 -289 q 65 -115 117 -195 l 164 -115 q 273 -199 197 -165 q 434 -232 350 -232 q 618 -181 541 -232 q 694 -58 694 -130 z "},"ŷ":{"ha":925,"x_min":58,"x_max":810,"o":"m 434 1097 q 511 1049 471 1074 q 574 1010 551 1024 q 625 979 598 996 q 666 952 652 962 q 696 931 680 943 q 719 911 712 920 q 733 895 726 903 q 743 877 741 886 q 747 859 746 868 q 749 837 749 849 q 732 795 749 812 q 692 779 715 779 q 650 795 667 779 q 633 837 633 812 q 624 903 633 887 q 616 913 620 909 q 610 921 613 917 q 600 930 606 925 q 589 938 594 935 q 575 948 585 941 q 558 959 566 955 q 536 972 551 963 q 509 989 521 982 q 475 1010 498 997 q 434 1035 452 1024 q 378 1002 408 1020 q 335 975 349 983 q 304 956 321 967 q 281 941 288 945 q 267 928 275 936 q 254 916 258 921 q 244 903 250 911 q 235 837 235 887 q 217 795 235 812 q 176 779 199 779 q 132 795 152 779 q 113 837 113 812 q 114 861 113 850 q 122 882 115 871 q 135 901 129 892 q 157 922 141 909 q 188 944 174 935 q 230 971 202 954 q 283 1004 258 989 q 351 1046 308 1020 q 434 1097 395 1073 m 810 694 l 810 0 q 709 -207 810 -125 q 434 -289 608 -289 q 210 -242 304 -289 q 65 -115 117 -195 l 164 -115 q 273 -199 197 -165 q 434 -232 350 -232 q 618 -181 541 -232 q 694 -58 694 -130 l 694 58 q 434 0 581 0 q 158 83 258 0 q 58 290 58 165 l 58 694 l 174 694 l 174 233 q 250 109 174 160 q 434 58 326 58 q 618 109 543 58 q 694 233 694 160 l 694 694 l 810 694 z "},"Ÿ":{"ha":925,"x_min":58,"x_max":810,"o":"m 665 1274 q 706 1257 689 1274 q 723 1215 723 1240 q 706 1175 723 1192 q 665 1158 689 1158 q 625 1175 642 1158 q 608 1215 608 1192 q 625 1257 608 1240 q 665 1274 642 1274 m 161 1257 q 170 1265 161 1257 q 202 1274 179 1274 q 243 1257 225 1274 q 260 1215 260 1240 q 243 1175 260 1192 q 202 1158 225 1158 q 161 1175 179 1158 q 144 1215 144 1192 q 161 1257 144 1240 m 694 -58 l 694 58 q 434 0 581 0 q 158 83 258 0 q 58 290 58 165 l 58 1042 l 174 1042 l 174 233 q 250 109 174 160 q 434 58 326 58 q 618 109 543 58 q 694 233 694 160 l 694 1042 l 810 1042 l 810 0 q 711 -214 810 -138 q 434 -289 613 -289 q 210 -242 304 -289 q 65 -115 117 -195 l 164 -115 q 273 -199 197 -165 q 434 -232 350 -232 q 618 -181 541 -232 q 694 -58 694 -130 z "},"Ź":{"ha":983,"x_min":58,"x_max":868,"o":"m 608 1383 q 547 1252 608 1308 q 453 1196 487 1196 q 434 1259 434 1196 q 458 1267 446 1259 q 481 1307 469 1276 q 492 1383 492 1337 q 509 1425 492 1408 q 549 1442 526 1442 q 591 1425 574 1442 q 608 1383 608 1408 m 860 1042 l 822 983 l 232 58 l 868 58 l 868 0 l 58 0 l 94 58 l 627 892 q 647 952 647 930 q 608 983 647 983 l 115 983 l 115 1042 l 860 1042 m 94 58 m 822 983 z "},"ź":{"ha":925,"x_min":58,"x_max":810,"o":"m 549 1042 q 489 910 549 966 q 395 854 429 854 q 376 917 376 854 q 399 926 388 917 q 422 965 411 935 q 434 1042 434 996 q 451 1083 434 1066 q 491 1100 468 1100 q 532 1083 515 1100 q 549 1042 549 1066 m 810 58 l 810 0 l 58 0 l 514 541 q 548 606 548 582 q 491 636 548 636 l 87 636 l 87 694 l 796 694 l 258 58 l 810 58 z "},"Ż":{"ha":983,"x_min":58,"x_max":868,"o":"m 492 1299 q 532 1282 515 1299 q 549 1241 549 1265 q 532 1201 549 1218 q 492 1184 515 1184 q 451 1201 468 1184 q 434 1241 434 1218 q 451 1282 434 1265 q 492 1299 468 1299 m 860 1042 l 822 983 l 232 58 l 868 58 l 868 0 l 58 0 l 94 58 l 627 892 q 647 952 647 930 q 608 983 647 983 l 115 983 l 115 1042 l 860 1042 m 94 58 m 822 983 z "},"ż":{"ha":925,"x_min":58,"x_max":810,"o":"m 434 1042 q 474 1025 457 1042 q 491 983 491 1008 q 474 943 491 960 q 434 926 457 926 q 393 943 410 926 q 376 983 376 960 q 393 1025 376 1008 q 434 1042 410 1042 m 810 58 l 810 0 l 58 0 l 514 541 q 548 606 548 582 q 491 636 548 636 l 87 636 l 87 694 l 796 694 l 258 58 l 810 58 z "},"Ž":{"ha":983,"x_min":58,"x_max":868,"o":"m 492 1099 q 410 1149 453 1123 q 341 1192 366 1176 q 288 1225 316 1207 q 246 1252 260 1242 q 216 1274 232 1261 q 193 1295 199 1287 q 180 1314 187 1303 q 172 1335 174 1325 q 171 1359 171 1345 q 191 1400 171 1383 q 235 1417 210 1417 q 275 1400 258 1417 q 293 1359 293 1383 q 302 1293 293 1309 q 312 1280 308 1284 q 325 1267 316 1275 q 340 1255 334 1260 q 363 1240 346 1251 q 393 1221 380 1229 q 437 1194 407 1213 q 492 1161 467 1176 q 533 1185 510 1172 q 568 1206 556 1199 q 594 1223 579 1214 q 616 1237 609 1233 q 633 1248 624 1241 q 648 1258 643 1255 q 659 1266 652 1261 q 668 1275 665 1271 q 675 1283 671 1279 q 682 1293 678 1287 q 692 1359 692 1309 q 709 1400 692 1383 q 750 1417 726 1417 q 790 1400 773 1417 q 807 1359 807 1383 q 806 1337 807 1347 q 802 1319 804 1328 q 791 1301 799 1310 q 777 1284 784 1293 q 754 1265 770 1276 q 724 1244 738 1253 q 684 1217 711 1234 q 633 1186 656 1200 q 569 1147 609 1172 q 492 1099 529 1122 m 860 1042 l 822 983 l 232 58 l 868 58 l 868 0 l 58 0 l 94 58 l 627 892 q 647 952 647 930 q 608 983 647 983 l 115 983 l 115 1042 l 860 1042 m 94 58 m 822 983 z "},"ž":{"ha":925,"x_min":58,"x_max":810,"o":"m 492 781 q 410 832 453 806 q 341 874 366 859 q 288 907 316 890 q 246 935 260 925 q 216 957 232 944 q 193 978 199 970 q 180 997 187 986 q 172 1018 174 1008 q 171 1042 171 1028 q 191 1083 171 1066 q 235 1100 210 1100 q 275 1083 258 1100 q 293 1042 293 1066 q 302 975 293 991 q 312 962 308 967 q 325 950 316 958 q 340 938 334 943 q 363 922 346 933 q 393 903 380 911 q 437 877 407 895 q 492 844 467 859 q 533 868 510 854 q 568 889 556 882 q 594 906 579 897 q 616 920 609 916 q 633 930 624 924 q 648 941 643 937 q 659 949 652 944 q 668 958 665 954 q 675 966 671 962 q 682 975 678 970 q 692 1042 692 991 q 709 1083 692 1066 q 750 1100 726 1100 q 790 1083 773 1100 q 807 1042 807 1066 q 806 1020 807 1029 q 802 1002 804 1010 q 791 984 799 993 q 777 967 784 975 q 754 947 770 959 q 724 926 738 936 q 684 900 711 917 q 633 869 656 883 q 569 829 609 854 q 492 781 529 804 m 810 58 l 810 0 l 58 0 l 514 541 q 548 606 548 582 q 491 636 548 636 l 87 636 l 87 694 l 796 694 l 258 58 l 810 58 z "},"Ǎ":{"ha":925,"x_min":58,"x_max":810,"o":"m 437 1099 q 354 1149 397 1123 q 286 1192 311 1176 q 233 1225 260 1207 q 191 1252 205 1242 q 160 1274 176 1261 q 138 1295 144 1287 q 125 1314 132 1303 q 117 1335 118 1325 q 115 1359 115 1345 q 135 1400 115 1383 q 179 1417 155 1417 q 220 1400 202 1417 q 237 1359 237 1383 q 247 1293 237 1309 q 256 1280 252 1284 q 269 1267 260 1275 q 284 1255 278 1260 q 307 1240 290 1251 q 338 1221 324 1229 q 381 1194 351 1213 q 437 1161 411 1176 q 477 1185 454 1172 q 512 1206 500 1199 q 538 1223 524 1214 q 561 1237 553 1233 q 578 1248 568 1241 q 592 1258 587 1255 q 603 1266 597 1261 q 612 1275 609 1271 q 619 1283 616 1279 q 627 1293 623 1287 q 636 1359 636 1309 q 653 1400 636 1383 q 694 1417 670 1417 q 734 1400 718 1417 q 751 1359 751 1383 q 750 1337 751 1347 q 746 1319 749 1328 q 736 1301 743 1310 q 722 1284 728 1293 q 699 1265 715 1276 q 669 1244 682 1253 q 628 1217 655 1234 q 577 1186 601 1200 q 513 1147 553 1172 q 437 1099 473 1122 m 810 0 l 694 0 l 694 579 l 174 579 l 174 0 l 58 0 l 58 781 q 157 972 58 903 q 434 1042 256 1042 q 711 972 613 1042 q 810 781 810 902 l 810 0 m 174 636 l 694 636 l 694 840 q 621 946 694 909 q 434 983 547 983 q 248 946 321 983 q 174 840 174 909 l 174 636 z "},"ǎ":{"ha":925,"x_min":58,"x_max":810,"o":"m 437 781 q 354 832 397 806 q 286 874 311 859 q 233 907 260 890 q 191 935 205 925 q 160 957 176 944 q 138 978 144 970 q 125 997 132 986 q 117 1018 118 1008 q 115 1042 115 1028 q 135 1083 115 1066 q 179 1100 155 1100 q 220 1083 202 1100 q 237 1042 237 1066 q 247 975 237 991 q 256 962 252 967 q 269 950 260 958 q 284 938 278 943 q 307 922 290 933 q 338 903 324 911 q 381 877 351 895 q 437 844 411 859 q 477 868 454 854 q 512 889 500 882 q 538 906 524 897 q 561 920 553 916 q 578 930 568 924 q 592 941 587 937 q 603 949 597 944 q 612 958 609 954 q 619 966 616 962 q 627 975 623 970 q 636 1042 636 991 q 653 1083 636 1066 q 694 1100 670 1100 q 734 1083 718 1100 q 751 1042 751 1066 q 750 1020 751 1029 q 746 1002 749 1010 q 736 984 743 993 q 722 967 728 975 q 699 947 715 959 q 669 926 682 936 q 628 900 655 917 q 577 869 601 883 q 513 829 553 854 q 437 781 473 804 m 810 0 q 745 22 770 0 q 694 45 720 45 q 609 22 692 45 q 434 0 526 0 q 159 82 260 0 q 58 275 58 164 q 151 388 58 362 q 434 406 214 406 l 694 406 l 694 492 q 621 599 694 562 q 434 636 547 636 q 210 571 277 636 l 146 635 q 433 694 262 694 q 711 625 613 694 q 810 434 810 555 l 810 0 m 694 347 l 434 347 q 332 342 376 347 q 251 326 289 338 q 193 290 213 313 q 174 232 174 266 q 250 109 174 160 q 434 58 326 58 q 618 109 543 58 q 694 232 694 160 l 694 347 z "},"Ǐ":{"ha":289,"x_min":-88,"x_max":330,"o":"m 123 1123 q 69 1174 98 1147 q 24 1216 41 1200 q -10 1249 8 1232 q -38 1276 -29 1267 q -58 1299 -47 1286 q -72 1320 -68 1312 q -81 1339 -76 1328 q -86 1360 -85 1350 q -87 1383 -87 1370 q -74 1425 -87 1408 q -45 1442 -61 1442 q -19 1425 -30 1442 q -7 1383 -7 1408 q -1 1317 -7 1333 q 5 1304 3 1309 q 14 1292 8 1299 q 23 1280 19 1284 q 39 1264 27 1275 q 58 1245 50 1253 q 87 1219 67 1237 q 123 1185 106 1200 q 150 1210 135 1196 q 173 1231 165 1223 q 190 1248 180 1238 q 205 1261 200 1257 q 216 1272 209 1265 q 225 1282 222 1279 q 232 1291 228 1286 q 238 1299 236 1295 q 243 1308 240 1303 q 248 1317 245 1312 q 254 1383 254 1333 q 265 1425 254 1408 q 292 1442 276 1442 q 318 1425 307 1442 q 329 1383 329 1408 q 328 1362 329 1371 q 326 1343 327 1352 q 319 1326 324 1335 q 310 1309 314 1317 q 295 1289 305 1301 q 275 1268 284 1278 q 248 1242 266 1259 q 215 1211 231 1225 q 173 1171 200 1196 q 123 1123 147 1146 m 174 1042 l 174 0 l 58 0 l 58 1042 l 174 1042 z "},"ǐ":{"ha":404,"x_min":0,"x_max":406,"o":"m 174 694 l 174 153 q 195 58 174 58 q 347 118 247 58 q 347 57 347 118 q 174 0 255 0 q 58 144 58 0 l 58 694 l 174 694 m 203 796 q 25 951 50 921 q 0 1042 0 982 q 15 1082 0 1065 q 49 1100 30 1100 q 80 1082 66 1100 q 94 1042 94 1065 q 92 1006 94 1025 q 90 981 90 986 q 109 939 90 959 q 203 859 127 918 q 299 939 278 917 q 320 981 320 960 q 318 1006 320 986 q 316 1042 316 1025 q 329 1083 316 1066 q 361 1100 342 1100 q 392 1082 378 1100 q 406 1042 406 1065 q 382 953 406 982 q 213 804 358 924 q 203 796 208 799 z "},"Ǒ":{"ha":925,"x_min":58,"x_max":810,"o":"m 437 1099 q 354 1149 397 1123 q 286 1192 311 1176 q 233 1225 260 1207 q 191 1252 205 1242 q 160 1274 176 1261 q 138 1295 144 1287 q 125 1314 132 1303 q 117 1335 118 1325 q 115 1359 115 1345 q 135 1400 115 1383 q 179 1417 155 1417 q 220 1400 202 1417 q 237 1359 237 1383 q 247 1293 237 1309 q 256 1280 252 1284 q 269 1267 260 1275 q 284 1255 278 1260 q 307 1240 290 1251 q 338 1221 324 1229 q 381 1194 351 1213 q 437 1161 411 1176 q 477 1185 454 1172 q 512 1206 500 1199 q 538 1223 524 1214 q 561 1237 553 1233 q 578 1248 568 1241 q 592 1258 587 1255 q 603 1266 597 1261 q 612 1275 609 1271 q 619 1283 616 1279 q 627 1293 623 1287 q 636 1359 636 1309 q 653 1400 636 1383 q 694 1417 670 1417 q 734 1400 718 1417 q 751 1359 751 1383 q 750 1337 751 1347 q 746 1319 749 1328 q 736 1301 743 1310 q 722 1284 728 1293 q 699 1265 715 1276 q 669 1244 682 1253 q 628 1217 655 1234 q 577 1186 601 1200 q 513 1147 553 1172 q 437 1099 473 1122 m 694 232 l 694 840 q 621 946 694 909 q 434 983 547 983 q 248 946 321 983 q 174 840 174 909 l 174 232 q 250 109 174 160 q 434 58 326 58 q 618 109 543 58 q 694 232 694 160 m 810 289 q 709 82 810 164 q 434 0 608 0 q 158 82 258 0 q 58 289 58 164 l 58 781 q 157 972 58 903 q 434 1042 256 1042 q 711 972 613 1042 q 810 781 810 902 l 810 289 z "},"ǒ":{"ha":925,"x_min":58,"x_max":810,"o":"m 437 781 q 354 832 397 806 q 286 874 311 859 q 233 907 260 890 q 191 935 205 925 q 160 957 176 944 q 138 978 144 970 q 125 997 132 986 q 117 1018 118 1008 q 115 1042 115 1028 q 135 1083 115 1066 q 179 1100 155 1100 q 220 1083 202 1100 q 237 1042 237 1066 q 247 975 237 991 q 256 962 252 967 q 269 950 260 958 q 284 938 278 943 q 307 922 290 933 q 338 903 324 911 q 381 877 351 895 q 437 844 411 859 q 477 868 454 854 q 512 889 500 882 q 538 906 524 897 q 561 920 553 916 q 578 930 568 924 q 592 941 587 937 q 603 949 597 944 q 612 958 609 954 q 619 966 616 962 q 627 975 623 970 q 636 1042 636 991 q 653 1083 636 1066 q 694 1100 670 1100 q 734 1083 718 1100 q 751 1042 751 1066 q 750 1020 751 1029 q 746 1002 749 1010 q 736 984 743 993 q 722 967 728 975 q 699 947 715 959 q 669 926 682 936 q 628 900 655 917 q 577 869 601 883 q 513 829 553 854 q 437 781 473 804 m 694 232 l 694 492 q 621 599 694 562 q 434 636 547 636 q 248 599 321 636 q 174 492 174 562 l 174 232 q 250 109 174 160 q 434 58 326 58 q 618 109 543 58 q 694 232 694 160 m 810 289 q 709 82 810 164 q 434 0 608 0 q 158 82 258 0 q 58 289 58 164 l 58 434 q 157 625 58 556 q 434 694 256 694 q 711 625 613 694 q 810 434 810 555 l 810 289 z "},"Ǔ":{"ha":925,"x_min":58,"x_max":810,"o":"m 437 1099 q 354 1149 397 1123 q 286 1192 311 1176 q 233 1225 260 1207 q 191 1252 205 1242 q 160 1274 176 1261 q 138 1295 144 1287 q 125 1314 132 1303 q 117 1335 118 1325 q 115 1359 115 1345 q 135 1400 115 1383 q 179 1417 155 1417 q 220 1400 202 1417 q 237 1359 237 1383 q 247 1293 237 1309 q 256 1280 252 1284 q 269 1267 260 1275 q 284 1255 278 1260 q 307 1240 290 1251 q 338 1221 324 1229 q 381 1194 351 1213 q 437 1161 411 1176 q 477 1185 454 1172 q 512 1206 500 1199 q 538 1223 524 1214 q 561 1237 553 1233 q 578 1248 568 1241 q 592 1258 587 1255 q 603 1266 597 1261 q 612 1275 609 1271 q 619 1283 616 1279 q 627 1293 623 1287 q 636 1359 636 1309 q 653 1400 636 1383 q 694 1417 670 1417 q 734 1400 718 1417 q 751 1359 751 1383 q 750 1337 751 1347 q 746 1319 749 1328 q 736 1301 743 1310 q 722 1284 728 1293 q 699 1265 715 1276 q 669 1244 682 1253 q 628 1217 655 1234 q 577 1186 601 1200 q 513 1147 553 1172 q 437 1099 473 1122 m 810 0 q 745 22 769 0 q 694 45 720 45 q 609 22 692 45 q 434 0 526 0 q 158 82 258 0 q 58 289 58 164 l 58 1042 l 174 1042 l 174 232 q 250 109 174 160 q 434 58 326 58 q 618 109 543 58 q 694 232 694 160 l 694 1042 l 810 1042 l 810 0 z "},"ǔ":{"ha":925,"x_min":58,"x_max":810,"o":"m 437 781 q 354 832 397 806 q 286 874 311 859 q 233 907 260 890 q 191 935 205 925 q 160 957 176 944 q 138 978 144 970 q 125 997 132 986 q 117 1018 118 1008 q 115 1042 115 1028 q 135 1083 115 1066 q 179 1100 155 1100 q 220 1083 202 1100 q 237 1042 237 1066 q 247 975 237 991 q 256 962 252 967 q 269 950 260 958 q 284 938 278 943 q 307 922 290 933 q 338 903 324 911 q 381 877 351 895 q 437 844 411 859 q 477 868 454 854 q 512 889 500 882 q 538 906 524 897 q 561 920 553 916 q 578 930 568 924 q 592 941 587 937 q 603 949 597 944 q 612 958 609 954 q 619 966 616 962 q 627 975 623 970 q 636 1042 636 991 q 653 1083 636 1066 q 694 1100 670 1100 q 734 1083 718 1100 q 751 1042 751 1066 q 750 1020 751 1029 q 746 1002 749 1010 q 736 984 743 993 q 722 967 728 975 q 699 947 715 959 q 669 926 682 936 q 628 900 655 917 q 577 869 601 883 q 513 829 553 854 q 437 781 473 804 m 810 694 q 810 0 810 694 q 745 22 770 0 q 694 45 720 45 q 609 22 692 45 q 434 0 526 0 q 158 82 258 0 q 58 289 58 164 l 58 694 l 174 694 l 174 232 q 250 109 174 160 q 434 58 326 58 q 618 109 543 58 q 694 232 694 160 l 694 694 l 810 694 z "},"Ǖ":{"ha":925,"x_min":57,"x_max":810,"o":"m 810 1388 l 810 1329 l 57 1329 l 57 1388 l 810 1388 m 665 1274 q 706 1257 689 1274 q 723 1215 723 1240 q 706 1175 723 1192 q 665 1158 689 1158 q 625 1175 642 1158 q 608 1215 608 1192 q 625 1257 608 1240 q 665 1274 642 1274 m 161 1257 q 170 1265 161 1257 q 202 1274 179 1274 q 243 1257 225 1274 q 260 1215 260 1240 q 243 1175 260 1192 q 202 1158 225 1158 q 161 1175 179 1158 q 144 1215 144 1192 q 161 1257 144 1240 m 810 0 q 745 22 769 0 q 694 45 720 45 q 609 22 692 45 q 434 0 526 0 q 158 82 258 0 q 58 289 58 164 l 58 1042 l 174 1042 l 174 232 q 250 109 174 160 q 434 58 326 58 q 618 109 543 58 q 694 232 694 160 l 694 1042 l 810 1042 l 810 0 z "},"ǖ":{"ha":925,"x_min":57,"x_max":810,"o":"m 810 1158 l 810 1100 l 57 1100 l 57 1158 l 810 1158 m 665 1042 q 706 1025 689 1042 q 723 983 723 1008 q 706 943 723 960 q 665 926 689 926 q 625 943 642 926 q 608 983 608 960 q 625 1025 608 1008 q 665 1042 642 1042 m 161 1025 q 170 1033 161 1025 q 202 1042 179 1042 q 243 1025 225 1042 q 260 983 260 1008 q 243 943 260 960 q 202 926 225 926 q 161 943 179 926 q 144 983 144 960 q 161 1025 144 1008 m 810 694 q 810 0 810 694 q 745 22 770 0 q 694 45 720 45 q 609 22 692 45 q 434 0 526 0 q 158 82 258 0 q 58 289 58 164 l 58 694 l 174 694 l 174 232 q 250 109 174 160 q 434 58 326 58 q 618 109 543 58 q 694 232 694 160 l 694 694 l 810 694 z "},"ǘ":{"ha":925,"x_min":58,"x_max":810,"o":"m 536 1289 q 475 1157 536 1213 q 381 1101 415 1101 q 362 1164 362 1101 q 386 1173 374 1164 q 409 1212 397 1181 q 420 1289 420 1242 q 437 1330 420 1313 q 477 1347 454 1347 q 519 1330 502 1347 q 536 1289 536 1313 m 665 1042 q 706 1025 689 1042 q 723 983 723 1008 q 706 943 723 960 q 665 926 689 926 q 625 943 642 926 q 608 983 608 960 q 625 1025 608 1008 q 665 1042 642 1042 m 161 1025 q 170 1033 161 1025 q 202 1042 179 1042 q 243 1025 225 1042 q 260 983 260 1008 q 243 943 260 960 q 202 926 225 926 q 161 943 179 926 q 144 983 144 960 q 161 1025 144 1008 m 810 694 q 810 0 810 694 q 745 22 770 0 q 694 45 720 45 q 609 22 692 45 q 434 0 526 0 q 158 82 258 0 q 58 289 58 164 l 58 694 l 174 694 l 174 232 q 250 109 174 160 q 434 58 326 58 q 618 109 543 58 q 694 232 694 160 l 694 694 l 810 694 z "},"ǚ":{"ha":925,"x_min":58,"x_max":810,"o":"m 437 1099 q 354 1149 397 1123 q 286 1192 311 1176 q 233 1225 260 1207 q 191 1252 205 1242 q 160 1274 176 1261 q 138 1295 144 1287 q 125 1314 132 1303 q 117 1335 118 1325 q 115 1359 115 1345 q 135 1400 115 1383 q 179 1417 155 1417 q 220 1400 202 1417 q 237 1359 237 1383 q 247 1293 237 1309 q 256 1280 252 1284 q 269 1267 260 1275 q 284 1255 278 1260 q 307 1240 290 1251 q 338 1221 324 1229 q 381 1194 351 1213 q 437 1161 411 1176 q 477 1185 454 1172 q 512 1206 500 1199 q 538 1223 524 1214 q 561 1237 553 1233 q 578 1248 568 1241 q 592 1258 587 1255 q 603 1266 597 1261 q 612 1275 609 1271 q 619 1283 616 1279 q 627 1293 623 1287 q 636 1359 636 1309 q 653 1400 636 1383 q 694 1417 670 1417 q 734 1400 718 1417 q 751 1359 751 1383 q 750 1337 751 1347 q 746 1319 749 1328 q 736 1301 743 1310 q 722 1284 728 1293 q 699 1265 715 1276 q 669 1244 682 1253 q 628 1217 655 1234 q 577 1186 601 1200 q 513 1147 553 1172 q 437 1099 473 1122 m 665 1042 q 706 1025 689 1042 q 723 983 723 1008 q 706 943 723 960 q 665 926 689 926 q 625 943 642 926 q 608 983 608 960 q 625 1025 608 1008 q 665 1042 642 1042 m 161 1025 q 170 1033 161 1025 q 202 1042 179 1042 q 243 1025 225 1042 q 260 983 260 1008 q 243 943 260 960 q 202 926 225 926 q 161 943 179 926 q 144 983 144 960 q 161 1025 144 1008 m 810 694 q 810 0 810 694 q 745 22 770 0 q 694 45 720 45 q 609 22 692 45 q 434 0 526 0 q 158 82 258 0 q 58 289 58 164 l 58 694 l 174 694 l 174 232 q 250 109 174 160 q 434 58 326 58 q 618 109 543 58 q 694 232 694 160 l 694 694 l 810 694 z "},"ǜ":{"ha":925,"x_min":58,"x_max":810,"o":"m 347 1287 q 365 1329 347 1312 q 406 1345 382 1345 q 446 1329 429 1345 q 464 1287 464 1312 q 475 1211 464 1241 q 497 1171 486 1180 q 521 1162 509 1162 q 502 1100 521 1100 q 408 1156 468 1100 q 347 1287 347 1211 m 665 1042 q 706 1025 689 1042 q 723 983 723 1008 q 706 943 723 960 q 665 926 689 926 q 625 943 642 926 q 608 983 608 960 q 625 1025 608 1008 q 665 1042 642 1042 m 161 1025 q 170 1033 161 1025 q 202 1042 179 1042 q 243 1025 225 1042 q 260 983 260 1008 q 243 943 260 960 q 202 926 225 926 q 161 943 179 926 q 144 983 144 960 q 161 1025 144 1008 m 810 694 q 810 0 810 694 q 745 22 770 0 q 694 45 720 45 q 609 22 692 45 q 434 0 526 0 q 158 82 258 0 q 58 289 58 164 l 58 694 l 174 694 l 174 232 q 250 109 174 160 q 434 58 326 58 q 618 109 543 58 q 694 232 694 160 l 694 694 l 810 694 z "},"Ǟ":{"ha":925,"x_min":57,"x_max":810,"o":"m 810 1388 l 810 1329 l 57 1329 l 57 1388 l 810 1388 m 665 1274 q 706 1257 689 1274 q 723 1215 723 1240 q 706 1175 723 1192 q 665 1158 689 1158 q 625 1175 642 1158 q 608 1215 608 1192 q 625 1257 608 1240 q 665 1274 642 1274 m 161 1257 q 170 1265 161 1257 q 202 1274 179 1274 q 243 1257 225 1274 q 260 1215 260 1240 q 243 1175 260 1192 q 202 1158 225 1158 q 161 1175 179 1158 q 144 1215 144 1192 q 161 1257 144 1240 m 810 0 l 694 0 l 694 579 l 174 579 l 174 0 l 58 0 l 58 781 q 157 972 58 903 q 434 1042 256 1042 q 711 972 613 1042 q 810 781 810 902 l 810 0 m 174 636 l 694 636 l 694 840 q 621 946 694 909 q 434 983 547 983 q 248 946 321 983 q 174 840 174 909 l 174 636 z "},"ǟ":{"ha":925,"x_min":57,"x_max":810,"o":"m 810 1158 l 810 1100 l 57 1100 l 57 1158 l 810 1158 m 665 1042 q 706 1025 689 1042 q 723 983 723 1008 q 706 943 723 960 q 665 926 689 926 q 625 943 642 926 q 608 983 608 960 q 625 1025 608 1008 q 665 1042 642 1042 m 161 1025 q 170 1033 161 1025 q 202 1042 179 1042 q 243 1025 225 1042 q 260 983 260 1008 q 243 943 260 960 q 202 926 225 926 q 161 943 179 926 q 144 983 144 960 q 161 1025 144 1008 m 810 0 q 745 22 770 0 q 694 45 720 45 q 609 22 692 45 q 434 0 526 0 q 159 82 260 0 q 58 275 58 164 q 151 388 58 362 q 434 406 214 406 l 694 406 l 694 492 q 621 599 694 562 q 434 636 547 636 q 210 571 277 636 l 146 635 q 433 694 262 694 q 711 625 613 694 q 810 434 810 555 l 810 0 m 694 347 l 434 347 q 332 342 376 347 q 251 326 289 338 q 193 290 213 313 q 174 232 174 266 q 250 109 174 160 q 434 58 326 58 q 618 109 543 58 q 694 232 694 160 l 694 347 z "},"Ǡ":{"ha":868,"x_min":57,"x_max":810,"o":"m 810 1381 l 810 1322 l 57 1322 l 57 1381 l 810 1381 z "},"ǡ":{"ha":868,"x_min":57,"x_max":810,"o":"m 810 1215 l 810 1157 l 57 1157 l 57 1215 l 810 1215 z "},"Ǣ":{"ha":1563,"x_min":58,"x_max":1447,"o":"m 1128 1274 l 1128 1215 l 376 1215 l 376 1274 l 1128 1274 m 174 636 l 694 636 l 694 840 q 621 946 694 909 q 434 983 547 983 q 248 946 321 983 q 174 840 174 909 l 174 636 m 1447 1042 l 1447 983 l 983 983 q 915 981 937 983 q 863 971 892 979 q 822 943 834 963 q 810 888 810 922 l 810 636 l 1274 636 l 1274 579 l 810 579 l 810 153 q 822 99 810 119 q 863 71 834 79 q 915 60 892 62 q 983 58 937 58 l 1447 58 l 1447 0 l 694 0 l 694 579 l 174 579 l 174 0 l 58 0 l 58 781 q 157 972 58 903 q 434 1042 256 1042 q 694 981 553 1042 l 694 1042 l 1447 1042 z "},"ǣ":{"ha":1563,"x_min":58,"x_max":1447,"o":"m 1128 985 l 1128 926 l 376 926 l 376 985 l 1128 985 m 694 347 l 434 347 q 332 342 376 347 q 251 326 289 338 q 193 290 213 313 q 174 232 174 266 q 250 109 174 160 q 434 58 326 58 q 618 109 543 58 q 694 232 694 160 l 694 347 m 1331 406 l 1331 492 q 1257 599 1331 562 q 1070 636 1183 636 q 884 598 958 636 q 810 492 810 560 l 810 406 l 1331 406 m 1447 347 l 810 347 l 810 232 q 886 109 810 160 q 1070 58 963 58 q 1253 96 1181 58 q 1331 202 1325 134 l 1447 202 q 1320 55 1417 110 q 1070 0 1223 0 q 810 58 926 0 l 810 0 q 755 22 787 0 q 694 45 723 45 q 609 22 692 45 q 434 0 526 0 q 159 82 260 0 q 58 275 58 164 q 151 388 58 362 q 434 406 214 406 l 694 406 l 694 492 q 621 599 694 562 q 434 636 547 636 q 210 571 277 636 l 146 635 q 434 694 262 694 q 753 589 623 694 q 1070 694 873 694 q 1347 612 1246 694 q 1447 406 1447 530 l 1447 347 z "},"Ǥ":{"ha":868,"x_min":58,"x_max":868,"o":"m 868 347 l 868 289 l 810 289 q 709 82 810 164 q 434 0 608 0 q 158 82 258 0 q 58 289 58 164 l 58 781 q 157 972 58 903 q 434 1042 256 1042 q 802 840 741 1042 l 694 840 q 621 946 694 909 q 434 983 547 983 q 248 946 321 983 q 174 840 174 909 l 174 232 q 250 109 174 160 q 434 58 326 58 q 618 109 543 58 q 694 232 694 160 l 694 289 l 406 289 l 406 347 l 694 347 l 694 579 l 463 579 l 463 636 l 810 636 l 810 347 l 868 347 z "},"ǥ":{"ha":868,"x_min":58,"x_max":868,"o":"m 694 232 l 694 492 q 621 599 694 562 q 434 636 547 636 q 248 599 321 636 q 174 492 174 562 l 174 232 q 250 109 174 160 q 434 58 326 58 q 618 109 543 58 q 694 232 694 160 m 694 -58 l 694 58 q 434 0 581 0 q 158 82 258 0 q 58 289 58 164 l 58 434 q 157 625 58 556 q 434 694 256 694 q 711 625 613 694 q 810 434 810 555 l 810 0 q 789 -87 810 -46 l 868 -87 l 868 -145 l 753 -145 q 615 -250 688 -212 q 434 -289 543 -289 q 210 -242 304 -289 q 65 -115 117 -195 l 164 -115 q 273 -199 197 -165 q 434 -232 350 -232 q 564 -208 505 -232 q 659 -145 624 -184 l 406 -145 l 406 -87 l 690 -87 q 694 -58 694 -73 z "},"Ǧ":{"ha":925,"x_min":58,"x_max":810,"o":"m 437 1099 q 354 1149 397 1123 q 286 1192 311 1176 q 233 1225 260 1207 q 191 1252 205 1242 q 160 1274 176 1261 q 138 1295 144 1287 q 125 1314 132 1303 q 117 1335 118 1325 q 115 1359 115 1345 q 135 1400 115 1383 q 179 1417 155 1417 q 220 1400 202 1417 q 237 1359 237 1383 q 247 1293 237 1309 q 256 1280 252 1284 q 269 1267 260 1275 q 284 1255 278 1260 q 307 1240 290 1251 q 338 1221 324 1229 q 381 1194 351 1213 q 437 1161 411 1176 q 477 1185 454 1172 q 512 1206 500 1199 q 538 1223 524 1214 q 561 1237 553 1233 q 578 1248 568 1241 q 592 1258 587 1255 q 603 1266 597 1261 q 612 1275 609 1271 q 619 1283 616 1279 q 627 1293 623 1287 q 636 1359 636 1309 q 653 1400 636 1383 q 694 1417 670 1417 q 734 1400 718 1417 q 751 1359 751 1383 q 750 1337 751 1347 q 746 1319 749 1328 q 736 1301 743 1310 q 722 1284 728 1293 q 699 1265 715 1276 q 669 1244 682 1253 q 628 1217 655 1234 q 577 1186 601 1200 q 513 1147 553 1172 q 437 1099 473 1122 m 810 636 l 810 289 q 709 82 810 164 q 434 0 608 0 q 158 82 258 0 q 58 289 58 164 l 58 781 q 157 972 58 903 q 434 1042 256 1042 q 802 840 741 1042 l 694 840 q 621 946 694 909 q 434 983 547 983 q 248 946 321 983 q 174 840 174 909 l 174 232 q 250 109 174 160 q 434 58 326 58 q 618 109 543 58 q 694 232 694 160 l 694 579 l 463 579 l 463 636 l 810 636 z "},"ǧ":{"ha":925,"x_min":58,"x_max":810,"o":"m 437 781 q 354 832 397 806 q 286 874 311 859 q 233 907 260 890 q 191 935 205 925 q 160 957 176 944 q 138 978 144 970 q 125 997 132 986 q 117 1018 118 1008 q 115 1042 115 1028 q 135 1083 115 1066 q 179 1100 155 1100 q 220 1083 202 1100 q 237 1042 237 1066 q 247 975 237 991 q 256 962 252 967 q 269 950 260 958 q 284 938 278 943 q 307 922 290 933 q 338 903 324 911 q 381 877 351 895 q 437 844 411 859 q 477 868 454 854 q 512 889 500 882 q 538 906 524 897 q 561 920 553 916 q 578 930 568 924 q 592 941 587 937 q 603 949 597 944 q 612 958 609 954 q 619 966 616 962 q 627 975 623 970 q 636 1042 636 991 q 653 1083 636 1066 q 694 1100 670 1100 q 734 1083 718 1100 q 751 1042 751 1066 q 750 1020 751 1029 q 746 1002 749 1010 q 736 984 743 993 q 722 967 728 975 q 699 947 715 959 q 669 926 682 936 q 628 900 655 917 q 577 869 601 883 q 513 829 553 854 q 437 781 473 804 m 694 -58 l 694 58 q 434 0 581 0 q 158 82 258 0 q 58 289 58 164 l 58 434 q 157 625 58 556 q 434 694 256 694 q 711 625 613 694 q 810 434 810 555 l 810 0 q 709 -207 810 -125 q 434 -289 608 -289 q 210 -242 304 -289 q 65 -115 117 -195 l 164 -115 q 273 -199 197 -165 q 434 -232 350 -232 q 618 -181 541 -232 q 694 -58 694 -130 m 694 232 l 694 492 q 621 599 694 562 q 434 636 547 636 q 248 599 321 636 q 174 492 174 562 l 174 232 q 250 109 174 160 q 434 58 326 58 q 618 109 543 58 q 694 232 694 160 z "},"Ǩ":{"ha":925,"x_min":58,"x_max":810,"o":"m 437 1099 q 354 1149 397 1123 q 286 1192 311 1176 q 233 1225 260 1207 q 191 1252 205 1242 q 160 1274 176 1261 q 138 1295 144 1287 q 125 1314 132 1303 q 117 1335 118 1325 q 115 1359 115 1345 q 135 1400 115 1383 q 179 1417 155 1417 q 220 1400 202 1417 q 237 1359 237 1383 q 247 1293 237 1309 q 256 1280 252 1284 q 269 1267 260 1275 q 284 1255 278 1260 q 307 1240 290 1251 q 338 1221 324 1229 q 381 1194 351 1213 q 437 1161 411 1176 q 477 1185 454 1172 q 512 1206 500 1199 q 538 1223 524 1214 q 561 1237 553 1233 q 578 1248 568 1241 q 592 1258 587 1255 q 603 1266 597 1261 q 612 1275 609 1271 q 619 1283 616 1279 q 627 1293 623 1287 q 636 1359 636 1309 q 653 1400 636 1383 q 694 1417 670 1417 q 734 1400 718 1417 q 751 1359 751 1383 q 750 1337 751 1347 q 746 1319 749 1328 q 736 1301 743 1310 q 722 1284 728 1293 q 699 1265 715 1276 q 669 1244 682 1253 q 628 1217 655 1234 q 577 1186 601 1200 q 513 1147 553 1172 q 437 1099 473 1122 m 810 0 l 694 0 l 694 608 q 608 747 694 694 q 361 799 522 799 l 174 724 l 174 0 l 58 0 l 58 1042 l 174 1042 l 174 791 l 766 1042 l 810 993 l 484 846 q 810 549 810 814 l 810 0 z "},"ǩ":{"ha":925,"x_min":58,"x_max":810,"o":"m 437 1099 q 354 1149 397 1123 q 286 1192 311 1176 q 233 1225 260 1207 q 191 1252 205 1242 q 160 1274 176 1261 q 138 1295 144 1287 q 125 1314 132 1303 q 117 1335 118 1325 q 115 1359 115 1345 q 135 1400 115 1383 q 179 1417 155 1417 q 220 1400 202 1417 q 237 1359 237 1383 q 247 1293 237 1309 q 256 1280 252 1284 q 269 1267 260 1275 q 284 1255 278 1260 q 307 1240 290 1251 q 338 1221 324 1229 q 381 1194 351 1213 q 437 1161 411 1176 q 477 1185 454 1172 q 512 1206 500 1199 q 538 1223 524 1214 q 561 1237 553 1233 q 578 1248 568 1241 q 592 1258 587 1255 q 603 1266 597 1261 q 612 1275 609 1271 q 619 1283 616 1279 q 627 1293 623 1287 q 636 1359 636 1309 q 653 1400 636 1383 q 694 1417 670 1417 q 734 1400 718 1417 q 751 1359 751 1383 q 750 1337 751 1347 q 746 1319 749 1328 q 736 1301 743 1310 q 722 1284 728 1293 q 699 1265 715 1276 q 669 1244 682 1253 q 628 1217 655 1234 q 577 1186 601 1200 q 513 1147 553 1172 q 437 1099 473 1122 m 174 1042 l 174 444 l 766 694 l 810 646 l 507 517 q 728 433 647 496 q 810 275 810 370 l 810 0 l 694 0 l 694 304 q 595 420 694 372 q 384 469 496 469 l 174 377 l 174 0 l 58 0 l 58 1042 l 174 1042 z "},"Ǫ":{"ha":925,"x_min":58,"x_max":810,"o":"m 406 -172 q 382 -218 406 -205 q 332 -232 358 -232 q 302 -228 317 -232 q 274 -210 288 -224 q 260 -172 260 -195 q 268 -107 260 -130 q 302 -41 275 -84 q 343 7 315 -19 q 133 105 208 27 q 58 289 58 183 l 58 781 q 157 972 58 903 q 434 1042 256 1042 q 711 972 613 1042 q 810 781 810 902 l 810 289 q 709 82 810 164 q 434 0 608 0 q 390 -20 418 0 q 362 -73 362 -41 q 384 -121 362 -91 q 406 -172 406 -151 m 694 232 l 694 840 q 621 946 694 909 q 434 983 547 983 q 248 946 321 983 q 174 840 174 909 l 174 232 q 250 109 174 160 q 434 58 326 58 q 618 109 543 58 q 694 232 694 160 z "},"ǫ":{"ha":925,"x_min":58,"x_max":810,"o":"m 406 -172 q 382 -218 406 -205 q 332 -232 358 -232 q 302 -228 317 -232 q 274 -210 288 -224 q 260 -172 260 -195 q 268 -107 260 -130 q 302 -41 275 -84 q 343 7 315 -19 q 133 105 208 27 q 58 289 58 183 l 58 434 q 157 625 58 556 q 434 694 256 694 q 711 625 613 694 q 810 434 810 555 l 810 289 q 709 82 810 164 q 434 0 608 0 q 390 -20 418 0 q 362 -73 362 -41 q 384 -121 362 -91 q 406 -172 406 -151 m 694 232 l 694 492 q 621 599 694 562 q 434 636 547 636 q 248 599 321 636 q 174 492 174 562 l 174 232 q 250 109 174 160 q 434 58 326 58 q 618 109 543 58 q 694 232 694 160 z "},"Ǭ":{"ha":925,"x_min":57,"x_max":810,"o":"m 810 1215 l 810 1157 l 57 1157 l 57 1215 l 810 1215 m 406 -172 q 382 -218 406 -205 q 332 -232 358 -232 q 302 -228 317 -232 q 274 -210 288 -224 q 260 -172 260 -195 q 268 -107 260 -130 q 302 -41 275 -84 q 343 7 315 -19 q 133 105 208 27 q 58 289 58 183 l 58 781 q 157 972 58 903 q 434 1042 256 1042 q 711 972 613 1042 q 810 781 810 902 l 810 289 q 709 82 810 164 q 434 0 608 0 q 390 -20 418 0 q 362 -73 362 -41 q 384 -121 362 -91 q 406 -172 406 -151 m 694 232 l 694 840 q 621 946 694 909 q 434 983 547 983 q 248 946 321 983 q 174 840 174 909 l 174 232 q 250 109 174 160 q 434 58 326 58 q 618 109 543 58 q 694 232 694 160 z "}}}
